<?xml version="1.0" standalone="no"?>
<!DOCTYPE svg PUBLIC "-//W3C//DTD SVG 1.1//EN" "http://www.w3.org/Graphics/SVG/1.1/DTD/svg11.dtd" >
<svg xmlns="http://www.w3.org/2000/svg" xmlns:xlink="http://www.w3.org/1999/xlink" version="1.1">
<metadata>
Created by FontForge 20170731 at Tue Oct 24 00:18:35 2023
 By Aleksey,,,
Copyright 2011 The Montserrat Project Authors (https://github.com/JulietaUla/Montserrat)
</metadata>
<defs>
<font id="Montserrat-SemiBold" horiz-adv-x="0" >
  <font-face 
    font-family="Montserrat SemiBold"
    font-weight="600"
    font-stretch="normal"
    units-per-em="2048"
    panose-1="0 0 0 0 0 0 0 0 0 0"
    ascent="1638"
    descent="-410"
    x-height="1094"
    cap-height="1434"
    bbox="-406 -543 3369 2179"
    underline-thickness="102"
    underline-position="-358"
    unicode-range="U+000D-FB02"
  />
<missing-glyph horiz-adv-x="1202" 
d="M82 0v1434h1038v-1434h-1038zM246 143h710v1147h-710v-1147z" />
    <glyph glyph-name="fi" unicode="fi" horiz-adv-x="1355" 
d="M203 0v1155q0 174 101 276q102 103 290 103q72 0 128 -14q61 -15 101 -45l-69 -193q-27 22 -66 34q-34 11 -76 11q-79 0 -120 -44t-41 -132v-123l8 -115v-913h-256zM23 881v204h729v-204h-729zM932 0v1094h256v-1094h-256zM1061 1274q-71 0 -118 45q-46 45 -46 108
q0 67 46 110q47 44 118 44t118 -42q46 -42 46 -105q0 -68 -45 -114t-119 -46z" />
    <glyph glyph-name="fl" unicode="fl" horiz-adv-x="1355" 
d="M203 0v1155q0 174 101 276q102 103 290 103q72 0 128 -14q61 -15 101 -45l-69 -193q-27 22 -66 34q-34 11 -76 11q-79 0 -120 -44t-41 -132v-123l8 -115v-913h-256zM23 881v204h729v-204h-729zM932 0v1520h256v-1520h-256z" />
    <glyph glyph-name=".notdef" horiz-adv-x="1202" 
d="M82 0v1434h1038v-1434h-1038zM246 143h710v1147h-710v-1147z" />
    <glyph glyph-name=".null" 
 />
    <glyph glyph-name="nonmarkingreturn" horiz-adv-x="682" 
 />
    <glyph glyph-name="NULL" 
 />
    <glyph glyph-name="NULL" 
 />
    <glyph glyph-name="CR" unicode="&#xd;" horiz-adv-x="565" 
 />
    <glyph glyph-name="space" unicode=" " horiz-adv-x="565" 
 />
    <glyph glyph-name="exclam" unicode="!" horiz-adv-x="569" 
d="M184 475l-49 959h303l-51 -959h-203zM287 -14q-72 0 -119 47t-47 112t47 112q46 46 119 46q71 0 116 -46q46 -48 46 -112t-46 -112q-45 -47 -116 -47z" />
    <glyph glyph-name="quotedbl" unicode="&#x22;" horiz-adv-x="845" 
d="M131 866l-16 568h221l-19 -568h-186zM526 866l-16 568h221l-18 -568h-187z" />
    <glyph glyph-name="numbersign" unicode="#" horiz-adv-x="1456" 
d="M813 0l176 1434h187l-177 -1434h-186zM47 348v187h1294v-187h-1294zM281 0l178 1434h186l-178 -1434h-186zM117 899v186h1290l2 -186h-1292z" />
    <glyph glyph-name="dollar" unicode="$" horiz-adv-x="1288" 
d="M573 -246v1925h168v-1925h-168zM637 -20q-169 0 -322 48q-154 48 -243 124l92 206q84 -67 213 -112q127 -45 260 -45q113 0 182 24t103 67q32 41 32 95q0 65 -47 106q-43 38 -122 63q-68 22 -165 44q-92 21 -183 48q-85 25 -166 72q-73 42 -121 118t-48 188q0 116 63 214
t190 156q126 58 325 58q128 0 256 -33q127 -33 221 -94l-84 -207q-98 58 -199 85q-106 28 -196 28q-110 0 -179 -27q-71 -28 -101 -69q-31 -43 -31 -99q0 -65 46 -105q47 -41 121 -63q84 -25 166 -44q96 -22 184 -48q96 -28 166 -69q73 -42 120 -117q47 -74 47 -186
q0 -114 -63 -212t-191 -156t-326 -58z" />
    <glyph glyph-name="percent" unicode="%" horiz-adv-x="1761" 
d="M291 0l979 1434h200l-978 -1434h-201zM410 662q-102 0 -179 49t-120 137q-43 87 -43 207t43 207q43 88 120 137t179 49q105 0 181 -49q77 -50 120 -137t43 -207t-43 -207t-120 -137q-76 -49 -181 -49zM412 805q82 0 128 64t46 186q0 121 -46 185q-47 65 -128 65
q-82 0 -130 -66q-49 -67 -49 -184q0 -118 49 -185q47 -65 130 -65zM1350 -14q-102 0 -179 49t-120 137q-43 87 -43 207t43 207q43 88 120 137t179 49q105 0 181 -49q77 -50 120 -137t43 -207t-43 -207t-120 -137q-76 -49 -181 -49zM1350 129q82 0 129 66q47 67 47 184
t-47 184q-47 66 -129 66q-80 0 -128 -65q-48 -64 -48 -185t48 -185q48 -65 128 -65z" />
    <glyph glyph-name="ampersand" unicode="&#x26;" horiz-adv-x="1445" 
d="M606 -20q-151 0 -268 49q-118 49 -186 135t-68 198q0 102 45 185q44 81 143 156q97 74 252 151q126 62 190 104q68 45 96 86q28 42 28 86q0 63 -43 100q-44 38 -123 38q-86 0 -134 -42q-49 -43 -49 -110q0 -33 14 -67t48 -74q44 -51 100 -105l758 -727l-141 -166
l-819 787q-69 68 -113 125q-44 58 -62 111q-18 54 -18 112q0 100 51 177t146 119t219 42q114 0 201 -38q86 -38 134 -108t48 -169q0 -88 -43 -159q-44 -73 -134 -138q-92 -66 -243 -138q-115 -57 -178 -104q-68 -51 -95 -98q-28 -49 -28 -109q0 -59 36 -104q37 -46 101 -71
q67 -26 154 -26q129 0 238 59q108 58 181 175q74 118 107 289l207 -68q-43 -205 -149 -355q-106 -149 -259 -229q-152 -79 -344 -79z" />
    <glyph glyph-name="quotesingle" unicode="'" horiz-adv-x="450" 
d="M131 866l-16 568h221l-19 -568h-186z" />
    <glyph glyph-name="parenleft" unicode="(" horiz-adv-x="710" 
d="M422 -397q-120 183 -185 431q-65 246 -65 527t65 530q65 248 185 429h244q-126 -227 -184 -460q-58 -232 -58 -499t58 -499q58 -231 184 -459h-244z" />
    <glyph glyph-name="parenright" unicode=")" horiz-adv-x="712" 
d="M289 -397h-244q126 222 185 459q59 236 59 499t-59 499q-60 239 -185 460h244q124 -184 186 -429q64 -251 64 -530t-64 -527q-63 -245 -186 -431z" />
    <glyph glyph-name="asterisk" unicode="*" horiz-adv-x="851" 
d="M819 1255l-274 -151v45l274 -152l-80 -139l-264 154l27 14l2 -293h-156l2 293l27 -14l-262 -154l-82 139l276 152v-45l-276 151l82 142l262 -156l-27 -16l-2 295h156l-2 -295l-27 16l264 156z" />
    <glyph glyph-name="plus" unicode="+" horiz-adv-x="1208" 
d="M496 256v922h219v-922h-219zM133 614v205h944v-205h-944z" />
    <glyph glyph-name="comma" unicode="," horiz-adv-x="499" 
d="M100 -309l119 452l35 -151q-71 0 -120 44q-48 44 -48 120q0 77 48 124q47 46 118 46q72 0 119 -47t47 -123q0 -23 -4 -44q-4 -22 -14 -55q-11 -38 -29 -77l-105 -289h-166z" />
    <glyph glyph-name="hyphen" unicode="-" horiz-adv-x="788" 
d="M113 463v213h563v-213h-563z" />
    <glyph glyph-name="period" unicode="." horiz-adv-x="499" 
d="M250 -14q-70 0 -119 48t-49 122q0 78 49 124t119 46t119 -46t49 -124q0 -74 -49 -122t-119 -48z" />
    <glyph glyph-name="slash" unicode="/" horiz-adv-x="759" 
d="M-61 -205l675 1929h230l-676 -1929h-229z" />
    <glyph glyph-name="zero" unicode="0" horiz-adv-x="1378" 
d="M688 -20q-169 0 -306 86q-136 85 -214 250t-78 401q0 235 78 400q79 166 214 251q137 86 306 86q171 0 307 -86q134 -85 214 -251q79 -164 79 -400q0 -237 -79 -401q-79 -165 -214 -250q-136 -86 -307 -86zM688 211q100 0 174 54t116 167q42 112 42 285q0 174 -42 285
q-42 112 -116 166q-75 55 -174 55q-95 0 -171 -55q-74 -54 -117 -166q-42 -111 -42 -285q0 -173 42 -285q42 -113 117 -167t171 -54z" />
    <glyph glyph-name="one" unicode="1" horiz-adv-x="780" 
d="M319 0v1331l117 -121h-420v224h570v-1434h-267z" />
    <glyph glyph-name="two" unicode="2" horiz-adv-x="1191" 
d="M72 0v178l569 541q72 68 107 119q33 49 46 95q11 40 11 83q0 98 -68 152q-69 55 -198 55q-106 0 -190 -37q-85 -37 -146 -113l-187 144q83 111 227 175q140 62 318 62q155 0 272 -50q114 -49 178 -142q62 -90 62 -220q0 -69 -18 -138q-17 -64 -70 -144q-51 -76 -149 -170
l-490 -465l-55 100h837v-225h-1056z" />
    <glyph glyph-name="three" unicode="3" horiz-adv-x="1191" 
d="M541 -20q-150 0 -296 44q-145 44 -243 121l115 207q79 -64 188 -102q111 -39 232 -39q144 0 223 58q80 59 80 159q0 99 -74 156t-238 57h-131v182l410 488l35 -101h-770v224h977v-179l-410 -487l-139 82h80q265 0 396 -118q132 -118 132 -302q0 -122 -61 -223
q-61 -102 -188 -165q-124 -62 -318 -62z" />
    <glyph glyph-name="four" unicode="4" horiz-adv-x="1390" 
d="M70 326v184l706 924h285l-696 -924l-134 41h1137v-225h-1298zM856 0v326l8 225v289h250v-840h-258z" />
    <glyph glyph-name="five" unicode="5" horiz-adv-x="1196" 
d="M565 -20q-150 0 -296 44q-143 43 -242 121l112 207q77 -62 190 -102q111 -39 232 -39q142 0 222 59q81 60 81 160q0 69 -34 119q-35 52 -118 78q-82 26 -233 26h-346l74 781h842v-224h-744l139 127l-55 -583l-139 125h289q213 0 343 -57q131 -57 190 -155
q61 -101 61 -227q0 -123 -62 -229q-62 -105 -187 -168q-126 -63 -319 -63z" />
    <glyph glyph-name="six" unicode="6" horiz-adv-x="1284" 
d="M711 -20q-195 0 -334 82t-213 241t-74 389q0 246 89 416q88 169 248 258q158 88 366 88q110 0 207 -22q98 -22 169 -70l-98 -201q-61 39 -128 54q-74 16 -144 16q-203 0 -322 -125t-119 -369q0 -21 2 -91q1 -45 15 -105l-82 90q37 84 101 140q63 56 154 85q90 29 193 29
q139 0 252 -55q110 -53 176 -153q66 -99 66 -233q0 -138 -70 -245q-69 -105 -188 -162t-266 -57zM696 188q83 0 146 30t99 85t36 129q0 112 -78 178t-209 66q-84 0 -150 -32t-103 -87q-38 -56 -38 -127q0 -65 35 -121q33 -54 102 -88q66 -33 160 -33z" />
    <glyph glyph-name="seven" unicode="7" horiz-adv-x="1245" 
d="M330 0l592 1327l69 -119h-813l127 129v-372h-248v469h1114v-179l-557 -1255h-284z" />
    <glyph glyph-name="eight" unicode="8" horiz-adv-x="1335" 
d="M666 -20q-178 0 -310 53q-130 52 -202 150q-72 97 -72 229q0 130 70 221q69 90 200 137q132 47 314 47q181 0 314 -47t203 -138t70 -220q0 -132 -72 -229t-205 -150t-310 -53zM666 188q147 0 233 62t86 170q0 106 -86 168q-85 61 -233 61q-149 0 -232 -61
q-84 -62 -84 -168q0 -108 84 -170q85 -62 232 -62zM666 678q-165 0 -285 44q-119 44 -183 129q-65 86 -65 204q0 122 67 212q66 89 187 138q120 49 279 49q160 0 280 -49q122 -49 189 -138q67 -88 67 -212q0 -119 -64 -204t-186 -129q-123 -44 -286 -44zM666 842
q126 0 200 54t74 146q0 98 -76 150q-77 53 -198 53q-123 0 -197 -53t-74 -150q0 -91 73 -146q72 -54 198 -54z" />
    <glyph glyph-name="nine" unicode="9" horiz-adv-x="1284" 
d="M573 1454q196 0 335 -83q138 -83 212 -241q74 -159 74 -389q0 -245 -89 -415q-88 -169 -247 -258q-157 -88 -366 -88q-110 0 -207 22q-95 22 -170 70l98 200q60 -39 129 -54t143 -15q203 0 322 125t119 368q0 21 -2 91q-1 46 -15 106l82 -90q-34 -83 -100 -140
q-65 -56 -154 -85q-90 -29 -194 -29q-140 0 -251 54q-110 54 -177 154q-66 99 -66 232q0 142 70 247q69 104 189 161t265 57zM588 1245q-83 0 -146 -30q-64 -30 -99 -83q-36 -54 -36 -131q0 -112 78 -178q77 -65 209 -65q86 0 151 31t103 89q37 56 37 126q0 66 -35 121
q-35 54 -100 87q-66 33 -162 33z" />
    <glyph glyph-name="colon" unicode=":" horiz-adv-x="499" 
d="M250 766q-70 0 -119 48t-49 122q0 78 49 124t119 46t119 -46t49 -124q0 -74 -49 -122t-119 -48zM250 -14q-70 0 -119 48t-49 122q0 78 49 124t119 46t119 -46t49 -124q0 -74 -49 -122t-119 -48z" />
    <glyph glyph-name="semicolon" unicode=";" horiz-adv-x="499" 
d="M250 766q-70 0 -119 48t-49 122q0 78 49 124t119 46t119 -46t49 -124q0 -74 -49 -122t-119 -48zM100 -309l119 452l35 -151q-71 0 -120 44q-48 44 -48 120q0 77 48 124q47 46 118 46q72 0 119 -47t47 -123q0 -23 -4 -44q-4 -22 -14 -55q-11 -38 -29 -77l-105 -289h-166z
" />
    <glyph glyph-name="less" unicode="&#x3c;" horiz-adv-x="1208" 
d="M1077 240l-944 366v221l944 367v-213l-864 -324v119l864 -323v-213z" />
    <glyph glyph-name="equal" unicode="=" horiz-adv-x="1208" 
d="M133 862v205h944v-205h-944zM133 367v204h944v-204h-944z" />
    <glyph glyph-name="greater" unicode="&#x3e;" horiz-adv-x="1208" 
d="M133 240v213l864 323v-119l-864 324v213l944 -367v-221z" />
    <glyph glyph-name="question" unicode="?" horiz-adv-x="1189" 
d="M455 475q0 76 24 133t64 103q37 43 83 84q74 66 83 75q39 38 63 78q25 42 25 92q0 87 -70 140t-186 53q-112 0 -196 -41q-83 -40 -138 -117l-199 129q87 119 225 184q139 66 330 66q148 0 262 -44q112 -43 176 -127t64 -202q0 -80 -26 -143q-26 -64 -65 -108
q-38 -44 -85 -86q-61 -55 -85 -78q-42 -40 -65 -84q-24 -45 -24 -107h-260zM586 -14q-71 0 -118 47q-46 46 -46 112t46 112t118 46q71 0 116 -46q46 -48 46 -112t-46 -112q-45 -47 -116 -47z" />
    <glyph glyph-name="at" unicode="@" horiz-adv-x="2117" 
d="M1061 -418q-214 0 -395 70q-180 70 -308 196q-129 128 -198 298q-70 173 -70 374t70 373t199 295q131 125 311 194q183 70 399 70q209 0 387 -67q177 -67 304 -186q129 -121 199 -284q71 -165 71 -360q0 -172 -48 -304q-47 -128 -134 -196q-86 -67 -212 -67
q-127 0 -201 75q-75 77 -75 220v116l8 117l-18 266v234h227v-697q0 -77 32 -109t74 -32q56 0 95 43q38 43 58 127q19 82 19 203q0 166 -56 299q-57 134 -162 232t-249 150q-143 52 -319 52q-181 0 -324 -56t-249 -159q-103 -100 -161 -243q-56 -139 -56 -306q0 -171 55 -311
q56 -141 159 -243q101 -100 246 -157q144 -57 322 -57q89 0 199 22q101 20 198 68l55 -164q-97 -47 -217 -71q-128 -25 -235 -25zM1008 -12q-141 0 -252 66q-110 65 -175 185q-65 119 -65 271q0 149 64 269q62 117 175 184q109 65 253 65q137 0 239 -60q103 -60 160 -175
q57 -114 57 -283t-55 -285q-55 -117 -158 -177q-102 -60 -243 -60zM1051 186q87 0 155 38q67 37 108 112q40 73 40 174q0 103 -40 173q-41 72 -108 109t-155 37q-92 0 -159 -38q-70 -39 -107 -111q-37 -71 -37 -170q0 -101 37 -172t107 -112q68 -40 159 -40z" />
    <glyph glyph-name="A" unicode="A" horiz-adv-x="1533" 
d="M-10 0l645 1434h262l647 -1434h-278l-555 1292h106l-553 -1292h-274zM287 332l71 209h775l71 -209h-917z" />
    <glyph glyph-name="B" unicode="B" horiz-adv-x="1558" 
d="M193 0v1434h671q258 0 393 -102q136 -103 136 -271q0 -113 -54 -196q-53 -81 -142 -125q-90 -44 -193 -44l36 74q120 0 217 -44q96 -43 153 -128q56 -83 56 -209q0 -185 -141 -287t-420 -102h-712zM459 209h430q150 0 229 49q80 50 80 158q0 106 -80 156q-82 51 -229 51
h-451v206h398q138 0 214 50q74 49 74 147q0 101 -74 150t-214 49h-377v-1016z" />
    <glyph glyph-name="C" unicode="C" horiz-adv-x="1488" 
d="M856 -20q-163 0 -304 54q-140 54 -244 153t-161 235q-57 135 -57 295t57 295t162 234q107 101 244 154q139 54 305 54q176 0 322 -60q142 -59 245 -180l-172 -161q-78 84 -174 126t-209 42t-205 -37q-93 -38 -162 -105q-70 -68 -107 -159q-38 -93 -38 -203t38 -203
q38 -92 107 -160q67 -66 162 -104q92 -37 205 -37t209 42q95 42 174 128l172 -164q-100 -117 -245 -178q-144 -61 -324 -61z" />
    <glyph glyph-name="D" unicode="D" horiz-adv-x="1691" 
d="M193 0v1434h626q233 0 410 -91q175 -90 274 -249t99 -377q0 -216 -99 -376q-100 -162 -274 -251q-175 -90 -410 -90h-626zM459 225h348q160 0 279 62t183 172t64 258q0 150 -64 259q-65 110 -183 171t-279 61h-348v-983z" />
    <glyph glyph-name="E" unicode="E" horiz-adv-x="1372" 
d="M438 838h713v-220h-713v220zM459 223h809v-223h-1075v1434h1046v-224h-780v-987z" />
    <glyph glyph-name="F" unicode="F" horiz-adv-x="1304" 
d="M436 774h715v-225h-715v225zM459 0h-266v1434h1046v-224h-780v-1210z" />
    <glyph glyph-name="G" unicode="G" horiz-adv-x="1581" 
d="M862 -20q-167 0 -308 54q-139 53 -245 153q-104 98 -162 235q-57 135 -57 295t57 295q56 133 163 234q106 100 247 154t309 54q184 0 329 -59q146 -60 247 -174l-168 -164q-83 83 -181 124q-96 40 -214 40q-114 0 -209 -37q-98 -38 -166 -105q-72 -70 -108 -159
q-38 -93 -38 -203q0 -108 38 -201q37 -90 108 -161q66 -66 164 -105q93 -37 209 -37q107 0 205 34q103 36 190 113l151 -198q-111 -89 -261 -136q-147 -46 -300 -46zM1171 197v536h252v-571z" />
    <glyph glyph-name="H" unicode="H" horiz-adv-x="1658" 
d="M1200 1434h266v-1434h-266v1434zM459 0h-266v1434h266v-1434zM1221 614h-785v228h785v-228z" />
    <glyph glyph-name="I" unicode="I" horiz-adv-x="653" 
d="M193 0v1434h266v-1434h-266z" />
    <glyph glyph-name="J" unicode="J" horiz-adv-x="1079" 
d="M416 -20q-136 0 -253 53t-190 153l152 183q60 -83 130 -123q71 -41 155 -41q223 0 223 264v741h-510v224h776v-951q0 -255 -124 -379t-359 -124z" />
    <glyph glyph-name="K" unicode="K" horiz-adv-x="1492" 
d="M430 338l-14 315l751 781h299l-624 -664l-148 -162zM193 0v1434h266v-1434h-266zM1192 0l-549 653l176 195l684 -848h-311z" />
    <glyph glyph-name="L" unicode="L" horiz-adv-x="1226" 
d="M193 0v1434h266v-1209h749v-225h-1015z" />
    <glyph glyph-name="M" unicode="M" horiz-adv-x="1955" 
d="M193 0v1434h219l626 -1047h-114l616 1047h219l2 -1434h-252l-2 1038h54l-525 -874h-118l-533 874h61v-1038h-253z" />
    <glyph glyph-name="N" unicode="N" horiz-adv-x="1658" 
d="M193 0v1434h219l899 -1104h-109v1104h264v-1434h-219l-899 1104h109v-1104h-264z" />
    <glyph glyph-name="O" unicode="O" horiz-adv-x="1724" 
d="M864 -20q-169 0 -309 55q-142 56 -246 154t-162 234q-57 133 -57 294q0 160 57 294t162 233q106 100 246 155t307 55q168 0 308 -55q138 -54 245 -155q105 -99 162 -233t57 -294t-57 -295t-162 -234q-103 -97 -245 -153q-140 -55 -306 -55zM862 213q111 0 201 37
q96 39 160 105q68 69 105 160q38 93 38 202t-38 202q-36 89 -105 159q-66 67 -160 106q-90 37 -201 37q-109 0 -199 -37q-91 -38 -160 -106q-71 -71 -107 -159q-38 -93 -38 -202q0 -108 38 -201q37 -91 106 -161q64 -66 160 -105q90 -37 200 -37z" />
    <glyph glyph-name="P" unicode="P" horiz-adv-x="1486" 
d="M193 0v1434h589q189 0 327 -62q136 -61 210 -176t74 -272q0 -158 -74 -273t-210 -176q-135 -61 -327 -61h-442l119 125v-539h-266zM459 510l-119 129h430q176 0 265 75t89 210q0 137 -89 211q-88 73 -265 73h-430l119 131v-829z" />
    <glyph glyph-name="Q" unicode="Q" horiz-adv-x="1724" 
d="M864 -20q-169 0 -309 55q-142 56 -246 154t-162 234q-57 133 -57 294q0 160 57 294t162 233q106 100 246 155t307 55q168 0 308 -55t245 -154q106 -100 162 -233q57 -135 57 -295t-57 -295t-162 -234q-103 -97 -245 -153q-140 -55 -306 -55zM1331 -313q-79 0 -146 17
q-74 19 -139 57q-71 41 -143 105q-73 64 -162 159l283 73q54 -72 110 -122q50 -44 101 -66q49 -21 102 -21q140 0 246 115l123 -147q-144 -170 -375 -170zM862 213q111 0 201 37q96 39 160 105q67 69 105 161q38 93 38 201q0 109 -38 202q-36 89 -105 159q-66 67 -160 106
q-90 37 -201 37q-110 0 -200 -37q-94 -39 -160 -106q-70 -72 -106 -159q-38 -93 -38 -202q0 -108 38 -201q37 -91 106 -161q64 -66 160 -105q90 -37 200 -37z" />
    <glyph glyph-name="R" unicode="R" horiz-adv-x="1497" 
d="M193 0v1434h589q189 0 327 -62q136 -61 210 -176t74 -272t-74 -272q-73 -114 -210 -174t-327 -60h-442l119 121v-539h-266zM1130 0l-362 520h285l364 -520h-287zM459 510l-119 127h430q177 0 265 76q89 77 89 211q0 137 -89 211q-88 73 -265 73h-430l119 131v-829z" />
    <glyph glyph-name="S" unicode="S" horiz-adv-x="1288" 
d="M637 -20q-169 0 -322 48q-154 48 -243 124l92 206q84 -67 213 -112q127 -45 260 -45q113 0 182 24t103 67q32 41 32 95q0 65 -47 106q-43 38 -122 63q-68 22 -165 44q-92 21 -183 48q-85 25 -166 72q-73 42 -121 118t-48 188q0 116 63 214t190 156q126 58 325 58
q128 0 256 -33q127 -33 221 -94l-84 -207q-98 58 -199 85q-106 28 -196 28q-110 0 -179 -27q-71 -28 -101 -69q-31 -43 -31 -99q0 -65 46 -105q47 -41 121 -63q84 -25 166 -44q96 -22 184 -48q96 -28 166 -69q73 -42 120 -117q47 -74 47 -186q0 -114 -63 -212t-191 -156
t-326 -58z" />
    <glyph glyph-name="T" unicode="T" horiz-adv-x="1232" 
d="M483 0v1208h-475v226h1217v-226h-475v-1208h-267z" />
    <glyph glyph-name="U" unicode="U" horiz-adv-x="1615" 
d="M809 -20q-297 0 -462 165q-167 167 -167 480v809h266v-799q0 -220 96 -322q94 -100 269 -100q174 0 268 100q95 101 95 322v799h262v-809q0 -313 -167 -480q-165 -165 -460 -165z" />
    <glyph glyph-name="V" unicode="V" horiz-adv-x="1492" 
d="M616 0l-626 1434h289l559 -1297h-166l565 1297h266l-624 -1434h-263z" />
    <glyph glyph-name="W" unicode="W" horiz-adv-x="2342" 
d="M530 0l-475 1434h277l424 -1297h-138l441 1297h246l428 -1297h-134l435 1297h254l-476 -1434h-282l-391 1169h73l-397 -1169h-285z" />
    <glyph glyph-name="X" unicode="X" horiz-adv-x="1419" 
d="M18 0l605 831v-200l-576 803h301l428 -594l-123 -2l424 596h289l-571 -789v193l608 -838h-307l-451 631h121l-444 -631h-304z" />
    <glyph glyph-name="Y" unicode="Y" horiz-adv-x="1353" 
d="M545 0v567l59 -164l-622 1031h284l500 -830h-160l504 830h262l-622 -1031l61 164v-567h-266z" />
    <glyph glyph-name="Z" unicode="Z" horiz-adv-x="1357" 
d="M84 0v178l926 1131l30 -101h-942v226h1182v-179l-926 -1130l-32 100h985v-225h-1223z" />
    <glyph glyph-name="bracketleft" unicode="[" horiz-adv-x="716" 
d="M193 -397v1917h489v-205h-233v-1508h233v-204h-489z" />
    <glyph glyph-name="backslash" unicode="\" horiz-adv-x="759" 
d="M823 -205h-229l-676 1929h229z" />
    <glyph glyph-name="bracketright" unicode="]" horiz-adv-x="716" 
d="M522 -397h-487v204h231v1508h-231v205h487v-1917z" />
    <glyph glyph-name="asciicircum" unicode="^" horiz-adv-x="1210" 
d="M135 291l367 852h209l364 -852h-201l-323 780h108l-323 -780h-201z" />
    <glyph glyph-name="underscore" unicode="_" horiz-adv-x="1024" 
d="M0 -156v156h1024v-156h-1024z" />
    <glyph glyph-name="grave" unicode="`" horiz-adv-x="1228" 
d="M565 1243l-356 281h301l276 -281h-221z" />
    <glyph glyph-name="a" unicode="a" horiz-adv-x="1243" 
d="M842 0v221l-15 47v387q0 112 -67 175t-205 63q-91 0 -181 -29q-89 -29 -151 -80l-100 187q86 66 210 101q120 34 253 34q236 0 367 -114q130 -114 130 -351v-641h-241zM498 -14q-124 0 -215 42q-95 44 -143 116q-50 76 -50 169q0 92 44 166q43 73 145 117q99 43 266 43
h317v-170h-299q-131 0 -176 -42t-45 -103q0 -71 55 -111q56 -41 154 -41q95 0 169 43t107 127l43 -154q-38 -97 -132 -149q-95 -53 -240 -53z" />
    <glyph glyph-name="b" unicode="b" horiz-adv-x="1404" 
d="M774 -14q-141 0 -248 61q-109 62 -171 185t-62 315q0 193 64 315q65 124 174 184t243 60q160 0 286 -70q123 -68 196 -194t73 -295t-73 -295t-196 -196q-124 -70 -286 -70zM168 0v1520h256v-680l-21 -291l9 -291v-258h-244zM745 205q92 0 165 41q72 41 116 119
q43 77 43 182q0 107 -43 183q-44 78 -116 118q-73 41 -165 41q-91 0 -165 -41q-73 -40 -117 -118q-43 -76 -43 -183q0 -105 43 -182q44 -79 117 -119q74 -41 165 -41z" />
    <glyph glyph-name="c" unicode="c" horiz-adv-x="1189" 
d="M670 -14q-172 0 -306 72q-133 72 -210 200q-76 127 -76 289q0 165 76 290t210 197t306 72q159 0 281 -65q124 -66 186 -189l-197 -115q-49 77 -120 115q-70 37 -152 37q-93 0 -170 -41q-74 -39 -119 -118q-43 -76 -43 -183t43 -183q45 -79 119 -118q77 -41 170 -41
q82 0 152 37q72 38 120 114l197 -114q-63 -123 -186 -190q-121 -66 -281 -66z" />
    <glyph glyph-name="d" unicode="d" horiz-adv-x="1406" 
d="M631 -14q-159 0 -284 70q-124 69 -197 196q-72 124 -72 295t72 295q73 126 197 194q128 70 284 70q138 0 246 -60q109 -60 172 -184q63 -123 63 -315t-61 -315t-170 -185q-107 -61 -250 -61zM662 205q91 0 164 41q74 42 117 119q44 79 44 182q0 106 -44 183t-117 118
t-164 41q-92 0 -165 -41t-117 -118t-44 -183q0 -103 44 -182q43 -77 117 -119q73 -41 165 -41zM993 0v258l11 291l-21 291v680h254v-1520h-244z" />
    <glyph glyph-name="e" unicode="e" horiz-adv-x="1273" 
d="M682 -14q-182 0 -318 72q-135 71 -211 200q-75 127 -75 289t73 290q71 124 200 197q128 72 292 72q159 0 285 -70q124 -69 196 -196t72 -299q0 -23 -1 -37q-1 -21 -3 -39h-911v170h776l-101 -53q2 96 -38 166t-112 112q-71 41 -163 41q-94 0 -165 -41q-68 -39 -110 -114
q-40 -71 -40 -171v-40q0 -99 45 -175q44 -75 127 -116q84 -41 188 -41q94 0 166 28q73 28 131 91l137 -158q-73 -85 -185 -132q-110 -46 -255 -46z" />
    <glyph glyph-name="f" unicode="f" horiz-adv-x="755" 
d="M203 0v1155q0 174 101 276q102 103 290 103q72 0 128 -14q61 -15 101 -45l-69 -193q-27 22 -66 34q-34 11 -76 11q-79 0 -120 -44t-41 -132v-123l8 -115v-913h-256zM23 881v204h729v-204h-729z" />
    <glyph glyph-name="g" unicode="g" horiz-adv-x="1421" 
d="M664 -412q-154 0 -296 40q-148 42 -237 116l115 193q72 -60 181 -96t222 -36q179 0 264 83q84 82 84 249v195l21 248l-8 247v267h243v-928q0 -296 -151 -437q-152 -141 -438 -141zM631 49q-154 0 -282 67q-126 66 -198 185q-73 120 -73 279q0 156 73 276q72 118 198 184
t282 66q140 0 250 -55q111 -56 177 -172q66 -117 66 -299t-66 -300t-177 -175q-109 -56 -250 -56zM670 266q96 0 172 40q74 39 117 111q42 70 42 163q0 92 -42 162q-43 73 -117 109q-78 38 -172 38q-95 0 -173 -38q-76 -37 -119 -109q-42 -70 -42 -162t42 -163
q42 -70 119 -111q76 -40 173 -40z" />
    <glyph glyph-name="h" unicode="h" horiz-adv-x="1402" 
d="M788 1106q132 0 235 -51q102 -50 163 -157q59 -103 59 -271v-627h-256v594q0 146 -68 217q-69 72 -192 72q-92 0 -160 -37q-69 -38 -107 -110q-38 -73 -38 -183v-553h-256v1520h256v-721l-55 90q56 103 167 161q108 56 252 56z" />
    <glyph glyph-name="i" unicode="i" horiz-adv-x="591" 
d="M168 0v1094h256v-1094h-256zM297 1274q-71 0 -118 45q-46 45 -46 108q0 67 46 110q47 44 118 44t118 -42q46 -42 46 -105q0 -68 -45 -114t-119 -46z" />
    <glyph glyph-name="j" unicode="j" horiz-adv-x="604" 
d="M55 -412q-67 0 -136 16q-64 15 -109 48l73 190q59 -43 150 -43q69 0 108 44q39 43 39 130v1121h256v-1114q0 -181 -99 -286q-100 -106 -282 -106zM307 1274q-71 0 -118 45q-46 45 -46 108q0 67 46 110q47 44 118 44t118 -42q46 -42 46 -105q0 -68 -45 -114t-119 -46z" />
    <glyph glyph-name="k" unicode="k" horiz-adv-x="1302" 
d="M377 244l6 321l571 529h308l-486 -488l-135 -112zM168 0v1520h256v-1520h-256zM993 0l-399 494l162 204l549 -698h-312z" />
    <glyph glyph-name="l" unicode="l" horiz-adv-x="591" 
d="M168 0v1520h256v-1520h-256z" />
    <glyph glyph-name="m" unicode="m" horiz-adv-x="2156" 
d="M1548 1106q131 0 233 -51q100 -50 158 -157t58 -271v-627h-256v594q0 144 -64 217q-63 72 -182 72q-84 0 -148 -37q-66 -38 -101 -109q-36 -72 -36 -182v-555h-256v594q0 145 -63 217t-182 72q-85 0 -149 -37t-100 -109t-36 -182v-555h-256v1094h244v-291l-43 86
q56 107 160 162t241 55q154 0 267 -76q114 -76 151 -229l-101 35q52 121 177 196q124 74 284 74z" />
    <glyph glyph-name="n" unicode="n" horiz-adv-x="1402" 
d="M788 1106q132 0 235 -51q102 -50 163 -157q59 -103 59 -271v-627h-256v594q0 146 -68 217q-69 72 -192 72q-92 0 -160 -37q-69 -38 -107 -110q-38 -73 -38 -183v-553h-256v1094h244v-295l-43 90q56 103 167 161q108 56 252 56z" />
    <glyph glyph-name="o" unicode="o" horiz-adv-x="1320" 
d="M659 -14q-168 0 -299 72q-129 71 -206 200q-76 127 -76 289q0 165 76 290t206 197q131 72 299 72q171 0 303 -72q131 -71 206 -196q75 -124 75 -291q0 -161 -75 -289q-76 -129 -206 -200q-132 -72 -303 -72zM659 205q94 0 168 41t116 119t42 182q0 107 -42 183
q-43 78 -116 118q-74 41 -165 41q-94 0 -167 -41q-72 -40 -116 -118q-43 -76 -43 -183q0 -105 43 -182q44 -78 116 -119q73 -41 164 -41z" />
    <glyph glyph-name="p" unicode="p" horiz-adv-x="1404" 
d="M774 -14q-134 0 -243 61q-110 62 -174 185q-64 124 -64 315q0 194 62 315q64 124 171 184q108 60 248 60q160 0 286 -70q123 -68 196 -194t73 -295q0 -168 -73 -296t-196 -196q-124 -69 -286 -69zM168 -397v1491h244v-258l-9 -291l21 -291v-651h-256zM745 205
q92 0 165 41q72 41 116 119q43 77 43 182q0 107 -43 183q-44 78 -116 118q-73 41 -165 41q-91 0 -165 -41q-73 -40 -117 -118q-43 -76 -43 -183q0 -105 43 -182q44 -79 117 -119q74 -41 165 -41z" />
    <glyph glyph-name="q" unicode="q" horiz-adv-x="1404" 
d="M631 -14q-158 0 -284 69q-124 68 -197 196q-72 126 -72 296q0 171 72 295q73 126 197 194q128 70 284 70q141 0 249 -60q106 -59 170 -184q62 -121 62 -315q0 -191 -64 -315q-63 -122 -174 -185q-107 -61 -243 -61zM659 205q92 0 166 41q73 40 117 119q43 77 43 182
q0 107 -43 183q-44 78 -117 118q-74 41 -166 41q-91 0 -164 -41q-72 -40 -116 -118q-43 -76 -43 -183q0 -105 43 -182q44 -78 116 -119q73 -41 164 -41zM981 -397v651l20 291l-8 291v258h244v-1491h-256z" />
    <glyph glyph-name="r" unicode="r" horiz-adv-x="860" 
d="M168 0v1094h244v-301l-29 88q49 111 155 168q105 57 263 57v-244q-11 3 -31 5q-10 1 -29 1q-146 0 -231 -85q-86 -86 -86 -253v-530h-256z" />
    <glyph glyph-name="s" unicode="s" horiz-adv-x="1054" 
d="M506 -14q-140 0 -263 35q-124 36 -200 88l98 194q77 -49 176 -78q102 -30 205 -30q123 0 175 32q55 34 55 88q0 45 -37 69q-38 24 -97 36q-51 10 -132 22q-79 12 -145 28q-77 19 -132 51q-58 33 -96 91q-37 56 -37 152q0 106 59 181q61 78 167 119q108 42 255 42
q106 0 223 -25q114 -24 187 -69l-99 -195q-80 48 -156 65q-75 17 -157 17q-115 0 -173 -35q-56 -34 -56 -88q0 -51 36 -74q35 -23 97 -38q60 -15 132 -24q64 -8 144 -28q70 -18 132 -50q60 -32 98 -89q36 -55 36 -149q0 -102 -60 -179q-58 -74 -171 -117q-111 -42 -264 -42z
" />
    <glyph glyph-name="t" unicode="t" horiz-adv-x="868" 
d="M580 -14q-180 0 -279 93q-98 92 -98 275v981h256v-975q0 -77 40 -120t111 -43q87 0 144 45l71 -183q-45 -37 -110 -55q-66 -18 -135 -18zM23 881v204h729v-204h-729z" />
    <glyph glyph-name="u" unicode="u" horiz-adv-x="1394" 
d="M631 -14q-141 0 -246 52q-106 52 -166 160q-59 106 -59 271v625h256v-590q0 -148 66 -220q67 -73 190 -73q91 0 156 37q69 39 105 110q38 74 38 183v553h256v-1094h-244v295l43 -90q-55 -106 -162 -163q-105 -56 -233 -56z" />
    <glyph glyph-name="v" unicode="v" horiz-adv-x="1183" 
d="M459 0l-469 1094h266l403 -965h-131l418 965h246l-469 -1094h-264z" />
    <glyph glyph-name="w" unicode="w" horiz-adv-x="1882" 
d="M410 0l-402 1094h242l344 -965h-115l361 965h215l350 -965h-113l355 965h227l-404 -1094h-245l-320 854h76l-326 -854h-245z" />
    <glyph glyph-name="x" unicode="x" horiz-adv-x="1173" 
d="M18 0l482 627l-4 -138l-459 605h285l321 -430h-108l323 430h277l-463 -605l2 138l479 -627h-289l-338 457l107 -15l-332 -442h-283z" />
    <glyph glyph-name="y" unicode="y" horiz-adv-x="1183" 
d="M258 -412q-80 0 -160 27t-133 74l103 188q38 -34 88 -55t100 -21q69 0 113 35q42 33 80 117l63 143l20 31l414 967h246l-512 -1182q-51 -123 -114 -195t-139 -100q-78 -29 -169 -29zM483 -39l-493 1133h266l401 -944z" />
    <glyph glyph-name="z" unicode="z" horiz-adv-x="1089" 
d="M78 0v162l674 815l47 -88h-709v205h914v-162l-674 -815l-51 88h743v-205h-944z" />
    <glyph glyph-name="braceleft" unicode="{" horiz-adv-x="757" 
d="M621 -397q-172 0 -261 86q-88 85 -88 248v421q0 51 -24 75t-68 24h-67v209h67q44 0 68 24t24 74v422q0 164 88 249t261 85h102v-205h-43q-76 0 -114 -41t-38 -115v-389q0 -84 -20 -127q-21 -45 -65 -66q-45 -22 -113 -32v33q67 -7 113 -31q44 -23 65 -68q20 -43 20 -127
v-389q0 -74 38 -115t114 -41h43v-204h-102z" />
    <glyph glyph-name="bar" unicode="|" horiz-adv-x="620" 
d="M193 -397v1917h235v-1917h-235z" />
    <glyph glyph-name="braceright" unicode="}" horiz-adv-x="757" 
d="M137 -397h-102v204h43q78 0 116 41q37 40 37 115v389q0 80 22 127q21 46 64 68q46 24 111 31v-33q-66 10 -111 32q-43 21 -64 66q-22 47 -22 127v389q0 75 -37 115q-38 41 -116 41h-43v205h102q174 0 262 -85t88 -249v-422q0 -49 25 -74q24 -24 66 -24h69v-209h-69
q-42 0 -66 -24q-25 -25 -25 -75v-421q0 -163 -88 -248q-89 -86 -262 -86z" />
    <glyph glyph-name="asciitilde" unicode="~" horiz-adv-x="1208" 
d="M811 528q-73 0 -129 29q-53 27 -101 66q-44 35 -86 65q-41 29 -85 29q-63 0 -97 -46q-35 -47 -39 -126h-163q4 184 84 274t202 90q75 0 130 -29q59 -31 102 -67q35 -29 86 -65q41 -29 84 -29q63 0 99 47t38 127h162q-1 -184 -82 -275q-79 -90 -205 -90z" />
    <glyph glyph-name="uni00A0" unicode="&#xa0;" horiz-adv-x="565" 
 />
    <glyph glyph-name="exclamdown" unicode="&#xa1;" horiz-adv-x="569" 
d="M387 618l51 -933h-303l49 933h203zM287 1106q71 0 116 -46q46 -48 46 -114q0 -61 -46 -109q-45 -46 -116 -46q-73 0 -119 46q-47 47 -47 109q0 67 47 114q46 46 119 46z" />
    <glyph glyph-name="cent" unicode="&#xa2;" horiz-adv-x="1189" 
d="M569 -246v1585h166v-1585h-166zM670 -14q-172 0 -306 72q-133 72 -210 200q-76 127 -76 289q0 165 76 290t210 197t306 72q159 0 281 -65q124 -66 186 -189l-197 -115q-49 77 -120 115q-70 37 -152 37q-93 0 -170 -41q-74 -39 -119 -118q-43 -76 -43 -183t43 -183
q45 -79 119 -118q77 -41 170 -41q82 0 152 37q72 38 120 114l197 -114q-63 -123 -186 -190q-121 -66 -281 -66z" />
    <glyph glyph-name="sterling" unicode="&#xa3;" horiz-adv-x="1345" 
d="M276 33v862q0 170 75 296q74 125 217 194q142 69 345 69q129 0 224 -23q98 -24 180 -73l-84 -217q-65 44 -153 62q-85 18 -181 18q-177 0 -266 -82q-90 -83 -90 -242v-864h-267zM61 0v223h1221v-223h-1221zM61 633v168h1000v-168h-1000z" />
    <glyph glyph-name="currency" unicode="&#xa4;" horiz-adv-x="1433" 
d="M291 926l-234 231l146 154l233 -232zM203 -10l-146 153l234 232l145 -154zM1229 -10l-234 231l146 154l233 -232zM1141 926l-146 153l234 232l145 -154zM717 121q-112 0 -212 41q-99 40 -174 114q-74 73 -118 171q-43 96 -43 208t43 208q44 98 118 171q76 74 174 116
q99 42 212 42q115 0 214 -42q98 -42 174 -116q74 -73 118 -171q43 -96 43 -208t-43 -208q-44 -98 -118 -171q-75 -74 -174 -114q-100 -41 -214 -41zM717 328q93 0 172 44q78 44 126 118q48 75 48 163q0 91 -48 168t-126 120q-79 44 -172 44t-172 -44q-77 -43 -124 -120
q-46 -76 -46 -168q0 -89 46 -163q46 -75 124 -118q79 -44 172 -44z" />
    <glyph glyph-name="yen" unicode="&#xa5;" horiz-adv-x="1476" 
d="M606 0v625l60 -172l-684 981h282l563 -807h-165l565 807h268l-684 -981l61 172v-625h-266zM199 213v143h1081v-143h-1081zM199 496v143h1081v-143h-1081z" />
    <glyph glyph-name="brokenbar" unicode="&#xa6;" horiz-adv-x="620" 
d="M193 803v717h235v-717h-235zM193 -397v716h235v-716h-235z" />
    <glyph glyph-name="section" unicode="&#xa7;" horiz-adv-x="1046" 
d="M745 301l-155 127q75 15 121 58q47 44 47 112q0 53 -35 85t-93 50q-68 21 -127 35q-72 17 -137 37q-73 22 -127 54q-61 36 -94 91q-34 56 -34 148q0 104 57 182q57 77 169 123q111 45 265 45q70 0 137 -11q78 -13 143 -34q68 -22 113 -55l-75 -187q-81 49 -160 69
q-84 21 -174 21q-125 0 -187 -38q-61 -37 -61 -107q0 -47 34 -77q33 -29 92 -47q60 -18 127 -33q54 -12 137 -37q68 -21 126 -59q57 -38 92 -98q35 -61 35 -153q0 -104 -65 -184q-64 -80 -171 -117zM485 -219q-85 0 -166 16q-83 16 -154 45q-69 28 -116 64l76 190
q66 -50 168 -85q99 -34 199 -34q102 0 160 39q59 39 59 107q0 51 -35 81q-34 30 -92 48q-67 21 -126 34q-66 14 -139 35q-67 19 -125 54q-57 35 -93 93q-35 57 -35 148q0 117 64 196q63 78 171 116l152 -127q-72 -15 -118 -58t-46 -110q0 -53 35 -85q34 -32 93 -51
q62 -21 128 -35q69 -15 138 -36q70 -21 127 -55q58 -35 93 -93q35 -59 35 -149q0 -100 -55 -179q-55 -78 -158 -124q-102 -45 -240 -45z" />
    <glyph glyph-name="dieresis" unicode="&#xa8;" horiz-adv-x="1228" 
d="M813 1266q-53 0 -87 33q-36 35 -36 90t36 90q35 34 87 34t87 -34q36 -35 36 -90t-36 -90q-34 -33 -87 -33zM416 1266q-53 0 -87 33q-36 35 -36 90t36 90q35 34 87 34t87 -34q36 -35 36 -90t-36 -90q-34 -33 -87 -33z" />
    <glyph glyph-name="copyright" unicode="&#xa9;" horiz-adv-x="1626" 
d="M811 -6q-156 0 -285 55t-229 155q-99 99 -153 230q-54 130 -54 283t55 282q57 134 154 231q99 99 230 154q133 56 286 56q152 0 286 -55q133 -54 229 -152q99 -101 152 -228q54 -131 54 -284q0 -155 -55 -286t-155 -231q-99 -100 -230 -155q-129 -55 -285 -55zM809 106
q127 0 242 48q108 45 193 130q83 83 128 195t45 242q0 129 -45 240q-44 108 -126 192q-80 81 -190 128q-108 46 -241 46t-243 -46q-112 -47 -192 -130t-127 -195q-46 -110 -46 -239t45 -240q45 -110 127 -194q83 -84 192 -130q112 -47 238 -47zM834 299q-124 0 -224 53
q-96 51 -153 148q-56 95 -56 217t56 217q56 96 153 147q102 54 224 54q115 0 205 -49q92 -50 137 -130l-150 -98q-36 55 -84 78q-52 25 -111 25q-65 0 -117 -30t-84 -84q-32 -55 -32 -130t32 -130q32 -54 84 -84t117 -30q59 0 111 25q49 24 84 77l150 -94q-45 -82 -137 -133
q-88 -49 -205 -49z" />
    <glyph glyph-name="ordfeminine" unicode="&#xaa;" horiz-adv-x="835" 
d="M549 872v132l-12 24v232q0 70 -42 105q-41 34 -126 34q-57 0 -117 -19q-56 -18 -98 -49l-66 115q54 40 138 64q83 24 163 24q157 0 242 -70q84 -69 84 -213v-379h-166zM328 864q-129 0 -195 57q-65 56 -65 140q0 87 67 139q68 53 221 53h203v-104h-178q-74 0 -110 -22
q-33 -20 -33 -60q0 -41 34 -62q36 -22 97 -22q60 0 104 23q43 22 64 63l26 -98q-22 -46 -81 -76q-62 -31 -154 -31z" />
    <glyph glyph-name="guillemotleft" unicode="&#xab;" horiz-adv-x="1095" 
d="M377 152l-291 395l291 397h231l-284 -397l284 -395h-231zM803 152l-291 395l291 397h231l-284 -397l284 -395h-231z" />
    <glyph glyph-name="logicalnot" unicode="&#xac;" horiz-adv-x="1208" 
d="M1077 821v-567h-219v362h-725v205h944z" />
    <glyph glyph-name="uni00AD" unicode="&#xad;" horiz-adv-x="788" 
d="M113 463v213h563v-213h-563z" />
    <glyph glyph-name="registered" unicode="&#xae;" horiz-adv-x="1626" 
d="M811 -6q-156 0 -285 55t-229 155q-99 99 -153 230q-54 130 -54 283t55 282q57 134 154 231q99 99 230 154q133 56 286 56q152 0 286 -55q133 -54 229 -152q99 -101 152 -228q54 -131 54 -284q0 -155 -55 -286t-155 -231q-99 -100 -230 -155q-129 -55 -285 -55zM1028 313
l-201 310h177l200 -310h-176zM809 106q127 0 242 48q108 45 193 130q83 83 128 195t45 242q0 129 -45 240q-44 108 -126 192q-80 81 -190 128q-108 46 -241 46t-243 -46q-112 -47 -192 -130t-127 -195q-46 -110 -46 -239t45 -240q45 -110 127 -194q83 -84 192 -130
q112 -47 238 -47zM510 313v807h336q161 0 250 -76q90 -77 90 -204q0 -134 -90 -207q-91 -74 -250 -74h-160v-246h-176zM684 696h152q86 0 133 38t47 106q0 66 -47 104q-46 37 -133 37h-152v-285z" />
    <glyph glyph-name="macron" unicode="&#xaf;" horiz-adv-x="1228" 
d="M260 1307v153h709v-153h-709z" />
    <glyph glyph-name="degree" unicode="&#xb0;" horiz-adv-x="858" 
d="M428 764q-98 0 -177 46q-78 46 -125 124q-46 77 -46 172q0 97 46 174q47 78 125 124q79 46 177 46q97 0 176 -46q80 -47 126 -124t46 -172t-47 -174q-46 -77 -125 -124q-77 -46 -176 -46zM428 899q58 0 106 28q45 26 72 73q27 46 27 106q0 59 -27 107q-28 49 -72 75
q-47 27 -106 27q-58 0 -104 -27q-48 -28 -75 -74q-28 -48 -28 -108q0 -59 28 -107q26 -44 75 -73q47 -27 104 -27z" />
    <glyph glyph-name="plusminus" unicode="&#xb1;" horiz-adv-x="1208" 
d="M133 0v205h944v-205h-944zM496 403v893h219v-893h-219zM133 748v202h944v-202h-944z" />
    <glyph glyph-name="uni00B2" unicode="&#xb2;" horiz-adv-x="880" 
d="M90 670v114l367 320q69 63 89 97q21 36 21 69q0 48 -42 79q-41 31 -134 31q-71 0 -125 -22t-88 -68l-129 92q53 71 141 111q91 41 216 41q166 0 256 -72t90 -180q0 -62 -30 -119q-31 -59 -128 -143l-309 -270l-43 65h544v-145h-696z" />
    <glyph glyph-name="uni00B3" unicode="&#xb3;" horiz-adv-x="880" 
d="M412 655q-109 0 -211 29q-101 28 -156 72l72 137q53 -40 131 -62q76 -22 164 -22q101 0 151 32q49 31 49 85q0 56 -46 86q-47 30 -144 30h-107v119l271 281l26 -68h-534v146h674v-115l-271 -279l-84 52h60q165 0 253 -70q87 -69 87 -182q0 -72 -43 -133
q-45 -64 -128 -100q-87 -38 -214 -38z" />
    <glyph glyph-name="acute" unicode="&#xb4;" horiz-adv-x="1228" 
d="M442 1243l277 281h301l-356 -281h-222z" />
    <glyph glyph-name="uni00B5" unicode="&#xb5;" horiz-adv-x="1404" 
d="M168 -397v1491h256v-590q0 -147 68 -220t190 -73q92 0 157 37q67 38 104 110q38 74 38 183v553h256v-1094h-240v293l41 -64q-30 -89 -88 -143q-57 -53 -127 -77q-66 -23 -139 -23q-109 0 -188 43q-81 44 -125 125l53 88v-639h-256z" />
    <glyph glyph-name="paragraph" unicode="&#xb6;" horiz-adv-x="1363" 
d="M465 -205v965q-122 1 -222 49q-97 47 -153 132q-55 85 -55 200q0 116 58 201q59 86 165 132q105 46 248 46h665v-1725h-210v1532h-285v-1532h-211z" />
    <glyph glyph-name="periodcentered" unicode="&#xb7;" horiz-adv-x="581" 
d="M291 399q-69 0 -119 47q-49 46 -49 125q0 77 49 123q50 47 119 47q74 0 121 -47t47 -123q0 -78 -47 -125t-121 -47z" />
    <glyph glyph-name="cedilla" unicode="&#xb8;" horiz-adv-x="1228" 
d="M555 -467q-59 0 -102 11q-51 13 -86 32l47 121q38 -19 66 -25q37 -8 73 -8q60 0 84 21q25 22 25 53t-26 49t-83 18h-64l56 209h139l-29 -114q91 -11 135 -59q44 -49 44 -113q0 -91 -76 -143t-203 -52z" />
    <glyph glyph-name="uni00B9" unicode="&#xb9;" horiz-adv-x="880" 
d="M569 709l-98 106h295v-145h-608v145h323l-98 -106v745l80 -80h-289v146h395v-811z" />
    <glyph glyph-name="ordmasculine" unicode="&#xba;" horiz-adv-x="864" 
d="M434 864q-111 0 -194 43q-86 44 -134 119q-49 76 -49 172q0 99 49 173q50 76 135 119q86 44 191 44q110 0 195 -44q84 -43 132 -119q48 -75 48 -173q0 -96 -48 -172q-47 -75 -132 -119q-83 -43 -193 -43zM432 1010q92 0 145 52q54 52 54 138t-54 137q-55 52 -145 52
q-87 0 -143 -53t-56 -136q0 -85 56 -138q55 -52 143 -52z" />
    <glyph glyph-name="guillemotright" unicode="&#xbb;" horiz-adv-x="1095" 
d="M293 152h-232l285 395l-285 397h232l291 -397zM719 152h-232l285 395l-285 397h232l291 -397z" />
    <glyph glyph-name="onequarter" unicode="&#xbc;" horiz-adv-x="2127" 
d="M569 623l-98 106h295v-145h-608v145h323l-98 -106v745l80 -80h-289v146h395v-811zM475 0l979 1434h199l-979 -1434h-199zM1282 188v119l399 543h203l-403 -543l-86 27h686v-146h-799zM1749 0v188l16 146v158h164v-492h-180z" />
    <glyph glyph-name="onehalf" unicode="&#xbd;" horiz-adv-x="2127" 
d="M569 623l-98 106h295v-145h-608v145h323l-98 -106v745l80 -80h-289v146h395v-811zM475 0l979 1434h199l-979 -1434h-199zM1337 0v115l367 319q69 63 89 97q22 38 22 69q0 48 -42 79q-43 32 -135 32q-68 0 -125 -23q-55 -22 -88 -67l-129 92q51 69 142 110t215 41
q167 0 256 -71q90 -72 90 -181q0 -61 -30 -118q-32 -61 -128 -144l-309 -270l-43 65h545v-145h-697z" />
    <glyph glyph-name="threequarters" unicode="&#xbe;" horiz-adv-x="2127" 
d="M412 569q-109 0 -211 29q-101 28 -156 72l72 137q53 -40 131 -62q76 -22 164 -22q101 0 151 32q49 31 49 85q0 56 -46 86q-47 30 -144 30h-107v119l271 281l26 -68h-534v146h674v-115l-271 -279l-84 52h60q165 0 253 -70q87 -69 87 -182q0 -72 -43 -133
q-45 -64 -128 -100q-87 -38 -214 -38zM475 0l979 1434h199l-979 -1434h-199zM1282 188v119l399 543h203l-403 -543l-86 27h686v-146h-799zM1749 0v188l16 146v158h164v-492h-180z" />
    <glyph glyph-name="questiondown" unicode="&#xbf;" horiz-adv-x="1189" 
d="M627 -336q-151 0 -265 44q-112 43 -175 126q-62 81 -62 195q0 80 26 141q26 60 65 104q40 45 84 84q61 54 84 76q40 38 66 81q25 43 25 103h260q0 -73 -24 -130q-23 -54 -64 -100t-83 -82q-48 -42 -83 -75q-40 -39 -63 -77q-25 -42 -25 -91q0 -75 69 -126q70 -52 187 -52
q113 0 197 42t137 116l197 -129q-84 -117 -224 -183q-142 -67 -329 -67zM604 791q-71 0 -117 46q-47 47 -47 109q0 67 47 114q46 46 117 46q74 0 119 -46t45 -114q0 -62 -45 -109q-45 -46 -119 -46z" />
    <glyph glyph-name="Agrave" unicode="&#xc0;" horiz-adv-x="1533" 
d="M-10 0l645 1434h262l647 -1434h-278l-555 1292h106l-553 -1292h-274zM287 332l71 209h775l71 -209h-917zM717 1550l-357 281h302l276 -281h-221z" />
    <glyph glyph-name="Aacute" unicode="&#xc1;" horiz-adv-x="1533" 
d="M-10 0l645 1434h262l647 -1434h-278l-555 1292h106l-553 -1292h-274zM287 332l71 209h775l71 -209h-917zM594 1550l276 281h301l-356 -281h-221z" />
    <glyph glyph-name="Acircumflex" unicode="&#xc2;" horiz-adv-x="1533" 
d="M-10 0l645 1434h262l647 -1434h-278l-555 1292h106l-553 -1292h-274zM287 332l71 209h775l71 -209h-917zM375 1550l274 281h234l274 -281h-211l-278 236h196l-278 -236h-211z" />
    <glyph glyph-name="Atilde" unicode="&#xc3;" horiz-adv-x="1533" 
d="M-10 0l645 1434h262l647 -1434h-278l-555 1292h106l-553 -1292h-274zM287 332l71 209h775l71 -209h-917zM913 1550q-47 0 -89 20q-37 18 -71 47q-25 22 -61 48q-28 21 -57 21q-43 0 -70 -33q-25 -31 -30 -90h-138q4 126 63 200t158 74q52 0 91 -20q41 -21 72 -48
q17 -15 61 -47q27 -20 55 -20q43 0 71 31t29 86h138q-1 -118 -62 -194q-60 -75 -160 -75z" />
    <glyph glyph-name="Adieresis" unicode="&#xc4;" horiz-adv-x="1533" 
d="M-10 0l645 1434h262l647 -1434h-278l-555 1292h106l-553 -1292h-274zM287 332l71 209h775l71 -209h-917zM965 1573q-52 0 -87 34q-36 34 -36 89q0 56 36 90q37 35 87 35t87 -35q35 -34 35 -90q0 -55 -35 -89t-87 -34zM567 1573q-52 0 -87 34q-36 34 -36 89q0 56 36 90
q37 35 87 35t87 -35q36 -34 36 -90q0 -54 -36 -89q-35 -34 -87 -34z" />
    <glyph glyph-name="Aring" unicode="&#xc5;" horiz-adv-x="1533" 
d="M-10 0l645 1434h262l647 -1434h-278l-555 1292h106l-553 -1292h-274zM287 332l71 209h775l71 -209h-917zM764 1554q-68 0 -122 33q-56 34 -85 85q-31 54 -31 116q0 65 32 120q31 54 85 86q52 31 121 31q71 0 124 -31q55 -32 85 -86q31 -56 31 -120q0 -63 -31 -117
q-30 -53 -85 -85t-124 -32zM764 1659q57 0 94 37t37 92q0 58 -37 95q-38 38 -94 38q-54 0 -91 -37q-38 -38 -38 -96q0 -55 37 -92t92 -37z" />
    <glyph glyph-name="AE" unicode="&#xc6;" horiz-adv-x="2177" 
d="M-10 0l831 1434h266v-224h-231l162 115l-754 -1325h-274zM383 332l8 209h696v-209h-704zM1243 838h713v-220h-715zM1264 223h809v-223h-1076v1434h1047v-224h-780v-987z" />
    <glyph glyph-name="Ccedilla" unicode="&#xc7;" horiz-adv-x="1488" 
d="M856 -20q-163 0 -304 54q-140 54 -244 153t-161 235q-57 135 -57 295t57 295t162 234q107 101 244 154q139 54 305 54q176 0 322 -60q142 -59 245 -180l-172 -161q-78 84 -174 126t-209 42t-205 -37q-93 -38 -162 -105q-70 -68 -107 -159q-38 -93 -38 -203t38 -203
q38 -92 107 -160q67 -66 162 -104q92 -37 205 -37t209 42q95 42 174 128l172 -164q-100 -117 -245 -178q-144 -61 -324 -61zM760 -467q-60 0 -103 11q-51 13 -86 32l48 121q38 -19 66 -25q37 -8 73 -8q60 0 84 21t24 53q0 31 -25 49t-83 18h-64l56 209h139l-29 -114
q90 -11 134 -59q44 -49 44 -113q0 -92 -75 -143q-76 -52 -203 -52z" />
    <glyph glyph-name="Egrave" unicode="&#xc8;" horiz-adv-x="1372" 
d="M438 838h713v-220h-713v220zM459 223h809v-223h-1075v1434h1046v-224h-780v-987zM670 1550l-357 281h301l277 -281h-221z" />
    <glyph glyph-name="Eacute" unicode="&#xc9;" horiz-adv-x="1372" 
d="M438 838h713v-220h-713v220zM459 223h809v-223h-1075v1434h1046v-224h-780v-987zM547 1550l276 281h301l-356 -281h-221z" />
    <glyph glyph-name="Ecircumflex" unicode="&#xca;" horiz-adv-x="1372" 
d="M438 838h713v-220h-713v220zM459 223h809v-223h-1075v1434h1046v-224h-780v-987zM328 1550l274 281h234l274 -281h-211l-278 236h196l-278 -236h-211z" />
    <glyph glyph-name="Edieresis" unicode="&#xcb;" horiz-adv-x="1372" 
d="M438 838h713v-220h-713v220zM459 223h809v-223h-1075v1434h1046v-224h-780v-987zM918 1573q-53 0 -88 34t-35 89q0 56 35 90q37 35 88 35q50 0 87 -35q35 -34 35 -90q0 -55 -35 -89t-87 -34zM520 1573q-52 0 -87 34q-36 34 -36 89q0 56 36 90q37 35 87 35t87 -35
q36 -34 36 -90q0 -54 -36 -89q-35 -34 -87 -34z" />
    <glyph glyph-name="Igrave" unicode="&#xcc;" horiz-adv-x="653" 
d="M193 0v1434h266v-1434h-266zM276 1550l-356 281h301l277 -281h-222z" />
    <glyph glyph-name="Iacute" unicode="&#xcd;" horiz-adv-x="653" 
d="M193 0v1434h266v-1434h-266zM154 1550l276 281h301l-356 -281h-221z" />
    <glyph glyph-name="Icircumflex" unicode="&#xce;" horiz-adv-x="653" 
d="M193 0v1434h266v-1434h-266zM-66 1550l275 281h233l275 -281h-211l-279 236h197l-279 -236h-211z" />
    <glyph glyph-name="Idieresis" unicode="&#xcf;" horiz-adv-x="653" 
d="M193 0v1434h266v-1434h-266zM524 1573q-52 0 -87 34q-36 34 -36 89q0 56 36 90q37 35 87 35t87 -35q36 -34 36 -90q0 -54 -36 -89q-35 -34 -87 -34zM127 1573q-52 0 -87 34q-36 35 -36 89q0 56 36 90q37 35 87 35t87 -35q36 -34 36 -90q0 -54 -36 -89q-35 -34 -87 -34z
" />
    <glyph glyph-name="Eth" unicode="&#xd0;" horiz-adv-x="1712" 
d="M213 0v1434h627q232 0 409 -91q176 -90 275 -249q98 -157 98 -377q0 -217 -98 -376q-99 -161 -275 -251q-175 -90 -409 -90h-627zM479 225h348q161 0 280 62q117 61 182 172q65 112 65 258q0 149 -65 259t-182 171q-118 61 -280 61h-348v-983zM12 631v196h852v-196h-852z
" />
    <glyph glyph-name="Ntilde" unicode="&#xd1;" horiz-adv-x="1658" 
d="M193 0v1434h219l899 -1104h-109v1104h264v-1434h-219l-899 1104h109v-1104h-264zM977 1550q-47 0 -89 20q-39 19 -72 47q-32 27 -60 48t-58 21q-42 0 -69 -33q-26 -32 -31 -90h-137q5 128 62 200q59 74 159 74q51 0 90 -20q43 -22 73 -48q23 -20 60 -47q27 -20 56 -20
q42 0 70 31q29 32 30 86h137q-2 -120 -61 -194q-60 -75 -160 -75z" />
    <glyph glyph-name="Ograve" unicode="&#xd2;" horiz-adv-x="1724" 
d="M864 -20q-169 0 -309 55q-142 56 -246 154t-162 234q-57 133 -57 294q0 160 57 294t162 233q106 100 246 155t307 55q168 0 308 -55q138 -54 245 -155q105 -99 162 -233t57 -294t-57 -295t-162 -234q-103 -97 -245 -153q-140 -55 -306 -55zM862 213q111 0 201 37
q96 39 160 105q68 69 105 160q38 93 38 202t-38 202q-36 89 -105 159q-66 67 -160 106q-90 37 -201 37q-109 0 -199 -37q-91 -38 -160 -106q-71 -71 -107 -159q-38 -93 -38 -202q0 -108 38 -201q37 -91 106 -161q64 -66 160 -105q90 -37 200 -37zM813 1550l-356 281h301
l276 -281h-221z" />
    <glyph glyph-name="Oacute" unicode="&#xd3;" horiz-adv-x="1724" 
d="M864 -20q-169 0 -309 55q-142 56 -246 154t-162 234q-57 133 -57 294q0 160 57 294t162 233q106 100 246 155t307 55q168 0 308 -55q138 -54 245 -155q105 -99 162 -233t57 -294t-57 -295t-162 -234q-103 -97 -245 -153q-140 -55 -306 -55zM862 213q111 0 201 37
q96 39 160 105q68 69 105 160q38 93 38 202t-38 202q-36 89 -105 159q-66 67 -160 106q-90 37 -201 37q-109 0 -199 -37q-91 -38 -160 -106q-71 -71 -107 -159q-38 -93 -38 -202q0 -108 38 -201q37 -91 106 -161q64 -66 160 -105q90 -37 200 -37zM690 1550l277 281h301
l-357 -281h-221z" />
    <glyph glyph-name="Ocircumflex" unicode="&#xd4;" horiz-adv-x="1724" 
d="M864 -20q-169 0 -309 55q-142 56 -246 154t-162 234q-57 133 -57 294q0 160 57 294t162 233q106 100 246 155t307 55q168 0 308 -55q138 -54 245 -155q105 -99 162 -233t57 -294t-57 -295t-162 -234q-103 -97 -245 -153q-140 -55 -306 -55zM862 213q111 0 201 37
q96 39 160 105q68 69 105 160q38 93 38 202t-38 202q-36 89 -105 159q-66 67 -160 106q-90 37 -201 37q-109 0 -199 -37q-91 -38 -160 -106q-71 -71 -107 -159q-38 -93 -38 -202q0 -108 38 -201q37 -91 106 -161q64 -66 160 -105q90 -37 200 -37zM471 1550l274 281h234
l274 -281h-211l-278 236h197l-279 -236h-211z" />
    <glyph glyph-name="Otilde" unicode="&#xd5;" horiz-adv-x="1724" 
d="M864 -20q-169 0 -309 55q-142 56 -246 154t-162 234q-57 133 -57 294q0 160 57 294t162 233q106 100 246 155t307 55q168 0 308 -55q138 -54 245 -155q105 -99 162 -233t57 -294t-57 -295t-162 -234q-103 -97 -245 -153q-140 -55 -306 -55zM862 213q111 0 201 37
q96 39 160 105q68 69 105 160q38 93 38 202t-38 202q-36 89 -105 159q-66 67 -160 106q-90 37 -201 37q-109 0 -199 -37q-91 -38 -160 -106q-71 -71 -107 -159q-38 -93 -38 -202q0 -108 38 -201q37 -91 106 -161q64 -66 160 -105q90 -37 200 -37zM1010 1550q-47 0 -89 20
q-39 19 -72 47q-25 22 -61 48q-28 21 -57 21q-42 0 -69 -33q-26 -32 -31 -90h-137q5 128 62 200q59 74 159 74q51 0 90 -20q43 -22 73 -48q23 -20 60 -47q27 -20 55 -20q43 0 71 31q29 32 30 86h137q-1 -118 -62 -194q-60 -75 -159 -75z" />
    <glyph glyph-name="Odieresis" unicode="&#xd6;" horiz-adv-x="1724" 
d="M864 -20q-169 0 -309 55q-142 56 -246 154t-162 234q-57 133 -57 294q0 160 57 294t162 233q106 100 246 155t307 55q168 0 308 -55q138 -54 245 -155q105 -99 162 -233t57 -294t-57 -295t-162 -234q-103 -97 -245 -153q-140 -55 -306 -55zM862 213q111 0 201 37
q96 39 160 105q68 69 105 160q38 93 38 202t-38 202q-36 89 -105 159q-66 67 -160 106q-90 37 -201 37q-109 0 -199 -37q-91 -38 -160 -106q-71 -71 -107 -159q-38 -93 -38 -202q0 -108 38 -201q37 -91 106 -161q64 -66 160 -105q90 -37 200 -37zM1061 1573q-52 0 -87 34
q-36 34 -36 89q0 56 36 90q37 35 87 35t87 -35q36 -34 36 -90q0 -54 -36 -89q-35 -34 -87 -34zM664 1573q-52 0 -87 34q-36 34 -36 89q0 56 36 90q37 35 87 35t87 -35q35 -34 35 -90q0 -55 -35 -89t-87 -34z" />
    <glyph glyph-name="multiply" unicode="&#xd7;" horiz-adv-x="1208" 
d="M203 455l665 673l142 -149l-670 -674zM203 979l137 149l670 -673l-142 -150z" />
    <glyph glyph-name="Oslash" unicode="&#xd8;" horiz-adv-x="1724" 
d="M864 -20q-169 0 -309 55q-142 56 -246 154t-162 234q-57 133 -57 294q0 160 57 294t162 233q106 100 246 155t307 55q168 0 308 -55q138 -54 245 -155q105 -99 162 -233t57 -294t-57 -295t-162 -234q-103 -97 -245 -153q-140 -55 -306 -55zM862 213q111 0 201 37
q96 39 160 105q68 69 105 160q38 93 38 202t-38 202q-36 89 -105 159q-66 67 -160 106q-90 37 -201 37q-109 0 -199 -37q-91 -38 -160 -106q-71 -71 -107 -159q-38 -93 -38 -202q0 -108 38 -201q37 -91 106 -161q64 -66 160 -105q90 -37 200 -37zM154 -143l1228 1720h191
l-1229 -1720h-190z" />
    <glyph glyph-name="Ugrave" unicode="&#xd9;" horiz-adv-x="1615" 
d="M809 -20q-297 0 -462 165q-167 167 -167 480v809h266v-799q0 -220 96 -322q94 -100 269 -100q174 0 268 100q95 101 95 322v799h262v-809q0 -313 -167 -480q-165 -165 -460 -165zM762 1550l-356 281h301l276 -281h-221z" />
    <glyph glyph-name="Uacute" unicode="&#xda;" horiz-adv-x="1615" 
d="M809 -20q-297 0 -462 165q-167 167 -167 480v809h266v-799q0 -220 96 -322q94 -100 269 -100q174 0 268 100q95 101 95 322v799h262v-809q0 -313 -167 -480q-165 -165 -460 -165zM639 1550l276 281h302l-357 -281h-221z" />
    <glyph glyph-name="Ucircumflex" unicode="&#xdb;" horiz-adv-x="1615" 
d="M809 -20q-297 0 -462 165q-167 167 -167 480v809h266v-799q0 -220 96 -322q94 -100 269 -100q174 0 268 100q95 101 95 322v799h262v-809q0 -313 -167 -480q-165 -165 -460 -165zM420 1550l274 281h234l274 -281h-211l-278 236h196l-278 -236h-211z" />
    <glyph glyph-name="Udieresis" unicode="&#xdc;" horiz-adv-x="1615" 
d="M809 -20q-297 0 -462 165q-167 167 -167 480v809h266v-799q0 -220 96 -322q94 -100 269 -100q174 0 268 100q95 101 95 322v799h262v-809q0 -313 -167 -480q-165 -165 -460 -165zM1010 1573q-52 0 -87 34q-36 34 -36 89q0 56 36 90q37 35 87 35t87 -35q36 -34 36 -90
q0 -54 -36 -89q-35 -34 -87 -34zM612 1573q-52 0 -87 34q-36 34 -36 89q0 56 36 90q37 35 87 35t87 -35q36 -34 36 -90q0 -54 -36 -89q-35 -34 -87 -34z" />
    <glyph glyph-name="Yacute" unicode="&#xdd;" horiz-adv-x="1353" 
d="M545 0v567l59 -164l-622 1031h284l500 -830h-160l504 830h262l-622 -1031l61 164v-567h-266zM506 1550l276 281h301l-356 -281h-221z" />
    <glyph glyph-name="Thorn" unicode="&#xde;" horiz-adv-x="1486" 
d="M399 246v225h371q176 0 265 75t89 210q0 137 -89 211q-88 73 -265 73h-371v226h383q189 0 327 -62q137 -62 210 -175q74 -115 74 -273t-74 -273t-210 -176q-135 -61 -327 -61h-383zM193 0v1434h266v-1434h-266z" />
    <glyph glyph-name="germandbls" unicode="&#xdf;" horiz-adv-x="1400" 
d="M819 -14q-61 0 -127 9q-71 10 -112 23l34 211q36 -13 84 -20q44 -6 105 -6q83 0 140 25t91 76q33 49 33 122q0 106 -80 163q-78 56 -211 56h-112v211q133 1 213 69q77 65 77 177q0 96 -65 155q-66 60 -184 60q-130 0 -206 -74q-75 -73 -75 -217v-1026h-256v1001
q0 176 71 295t192 179q119 59 274 59q156 0 266 -55t170 -150q59 -93 59 -213q0 -95 -37 -168q-39 -76 -97 -124q-63 -52 -131 -78q-71 -27 -142 -27l67 104q131 0 237 -47q105 -47 167 -137q61 -89 61 -221q0 -136 -64 -233q-64 -96 -179 -148q-114 -51 -263 -51z" />
    <glyph glyph-name="agrave" unicode="&#xe0;" horiz-adv-x="1243" 
d="M842 0v221l-15 47v387q0 112 -67 175t-205 63q-91 0 -181 -29q-89 -29 -151 -80l-100 187q86 66 210 101q120 34 253 34q236 0 367 -114q130 -114 130 -351v-641h-241zM498 -14q-124 0 -215 42q-95 44 -143 116q-50 76 -50 169q0 92 44 166q43 73 145 117q99 43 266 43
h317v-170h-299q-131 0 -176 -42t-45 -103q0 -71 55 -111q56 -41 154 -41q95 0 169 43t107 127l43 -154q-38 -97 -132 -149q-95 -53 -240 -53zM559 1243l-356 281h301l276 -281h-221z" />
    <glyph glyph-name="aacute" unicode="&#xe1;" horiz-adv-x="1243" 
d="M842 0v221l-15 47v387q0 112 -67 175t-205 63q-91 0 -181 -29q-89 -29 -151 -80l-100 187q86 66 210 101q120 34 253 34q236 0 367 -114q130 -114 130 -351v-641h-241zM498 -14q-124 0 -215 42q-95 44 -143 116q-50 76 -50 169q0 92 44 166q43 73 145 117q99 43 266 43
h317v-170h-299q-131 0 -176 -42t-45 -103q0 -71 55 -111q56 -41 154 -41q95 0 169 43t107 127l43 -154q-38 -97 -132 -149q-95 -53 -240 -53zM436 1243l277 281h301l-357 -281h-221z" />
    <glyph glyph-name="acircumflex" unicode="&#xe2;" horiz-adv-x="1243" 
d="M842 0v221l-15 47v387q0 112 -67 175t-205 63q-91 0 -181 -29q-89 -29 -151 -80l-100 187q86 66 210 101q120 34 253 34q236 0 367 -114q130 -114 130 -351v-641h-241zM498 -14q-124 0 -215 42q-95 44 -143 116q-50 76 -50 169q0 92 44 166q43 73 145 117q99 43 266 43
h317v-170h-299q-131 0 -176 -42t-45 -103q0 -71 55 -111q56 -41 154 -41q95 0 169 43t107 127l43 -154q-38 -97 -132 -149q-95 -53 -240 -53zM217 1243l275 281h233l274 -281h-211l-278 236h197l-279 -236h-211z" />
    <glyph glyph-name="atilde" unicode="&#xe3;" horiz-adv-x="1243" 
d="M842 0v221l-15 47v387q0 112 -67 175t-205 63q-91 0 -181 -29q-89 -29 -151 -80l-100 187q86 66 210 101q120 34 253 34q236 0 367 -114q130 -114 130 -351v-641h-241zM498 -14q-124 0 -215 42q-95 44 -143 116q-50 76 -50 169q0 92 44 166q43 73 145 117q99 43 266 43
h317v-170h-299q-131 0 -176 -42t-45 -103q0 -71 55 -111q56 -41 154 -41q95 0 169 43t107 127l43 -154q-38 -97 -132 -149q-95 -53 -240 -53zM756 1243q-47 0 -89 20q-39 19 -72 47q-31 27 -60 48q-27 20 -58 20q-43 0 -69 -32t-31 -91h-137q5 129 62 201q59 74 159 74
q49 0 90 -21q46 -24 73 -47q23 -20 60 -47q27 -20 55 -20q44 0 71 30q29 32 30 86h137q-1 -117 -62 -193q-60 -75 -159 -75z" />
    <glyph glyph-name="adieresis" unicode="&#xe4;" horiz-adv-x="1243" 
d="M842 0v221l-15 47v387q0 112 -67 175t-205 63q-91 0 -181 -29q-89 -29 -151 -80l-100 187q86 66 210 101q120 34 253 34q236 0 367 -114q130 -114 130 -351v-641h-241zM498 -14q-124 0 -215 42q-95 44 -143 116q-50 76 -50 169q0 92 44 166q43 73 145 117q99 43 266 43
h317v-170h-299q-131 0 -176 -42t-45 -103q0 -71 55 -111q56 -41 154 -41q95 0 169 43t107 127l43 -154q-38 -97 -132 -149q-95 -53 -240 -53zM807 1266q-53 0 -87 33q-36 35 -36 90t36 90q35 34 87 34t87 -34q36 -35 36 -90t-36 -90q-34 -33 -87 -33zM410 1266q-53 0 -87 33
q-36 35 -36 90t36 90q35 34 87 34t87 -34t35 -90t-35 -90q-34 -33 -87 -33z" />
    <glyph glyph-name="aring" unicode="&#xe5;" horiz-adv-x="1243" 
d="M842 0v221l-15 47v387q0 112 -67 175t-205 63q-91 0 -181 -29q-89 -29 -151 -80l-100 187q86 66 210 101q120 34 253 34q236 0 367 -114q130 -114 130 -351v-641h-241zM498 -14q-124 0 -215 42q-95 44 -143 116q-50 76 -50 169q0 92 44 166q43 73 145 117q99 43 266 43
h317v-170h-299q-131 0 -176 -42t-45 -103q0 -71 55 -111q56 -41 154 -41q95 0 169 43t107 127l43 -154q-38 -97 -132 -149q-95 -53 -240 -53zM606 1214q-68 0 -122 33q-56 34 -85 85q-30 52 -30 116q0 67 31 120q31 54 85 86q53 32 121 32q69 0 124 -32t85 -86
q31 -56 31 -120q0 -63 -31 -117q-30 -53 -85 -85t-124 -32zM606 1319q57 0 94 37t37 92q0 58 -37 95q-38 38 -94 38q-54 0 -91 -37q-38 -38 -38 -96q0 -55 37 -92t92 -37z" />
    <glyph glyph-name="ae" unicode="&#xe6;" horiz-adv-x="2033" 
d="M532 -14q-209 0 -325 94q-117 94 -117 244q0 85 44 156q43 70 145 114q99 43 266 43h315v-168h-297q-129 0 -175 -42t-46 -99q0 -75 56 -115q58 -41 157 -41q128 0 201 67q71 65 71 173v243q0 112 -67 175t-203 63q-93 0 -183 -29q-89 -29 -151 -80l-100 187
q86 66 210 101q120 34 251 34q185 0 301 -70q114 -69 155 -205l-120 9q68 125 193 195q127 71 286 71q119 0 220 -40q99 -39 177 -114q75 -72 118 -176q42 -102 42 -225q0 -31 -1 -45q-2 -25 -5 -37h-910v168h762l-94 -55q2 108 -43 176t-117 106q-71 37 -151 37t-151 -37
q-74 -39 -119 -108q-46 -71 -46 -181v-40q0 -99 45 -175q44 -75 126 -116t190 -41q93 0 164 28q70 28 133 91l139 -158q-77 -89 -189 -133q-114 -45 -253 -45q-127 0 -239 38q-113 38 -196 117t-133 207l154 -2q-28 -137 -106 -218q-77 -80 -178 -111q-100 -31 -206 -31z
" />
    <glyph glyph-name="ccedilla" unicode="&#xe7;" horiz-adv-x="1189" 
d="M670 -14q-172 0 -306 72q-133 72 -210 200q-76 127 -76 289q0 165 76 290t210 197t306 72q159 0 281 -65q124 -66 186 -189l-197 -115q-49 77 -120 115q-70 37 -152 37q-93 0 -170 -41q-74 -39 -119 -118q-43 -76 -43 -183t43 -183q45 -79 119 -118q77 -41 170 -41
q82 0 152 37q72 38 120 114l197 -114q-63 -123 -186 -190q-121 -66 -281 -66zM563 -467q-59 0 -102 11q-51 13 -86 32l47 121q38 -19 66 -25q37 -8 73 -8q60 0 84 21q25 22 25 53t-26 49t-83 18h-63l55 209h139l-28 -114q90 -11 134 -59q44 -49 44 -113q0 -91 -76 -143
t-203 -52z" />
    <glyph glyph-name="egrave" unicode="&#xe8;" horiz-adv-x="1273" 
d="M682 -14q-182 0 -318 72q-135 71 -211 200q-75 127 -75 289t73 290q71 124 200 197q128 72 292 72q159 0 285 -70q124 -69 196 -196t72 -299q0 -23 -1 -37q-1 -21 -3 -39h-911v170h776l-101 -53q2 96 -38 166t-112 112q-71 41 -163 41q-94 0 -165 -41q-68 -39 -110 -114
q-40 -71 -40 -171v-40q0 -99 45 -175q44 -75 127 -116q84 -41 188 -41q94 0 166 28q73 28 131 91l137 -158q-73 -85 -185 -132q-110 -46 -255 -46zM588 1243l-357 281h301l277 -281h-221z" />
    <glyph glyph-name="eacute" unicode="&#xe9;" horiz-adv-x="1273" 
d="M682 -14q-182 0 -318 72q-135 71 -211 200q-75 127 -75 289t73 290q71 124 200 197q128 72 292 72q159 0 285 -70q124 -69 196 -196t72 -299q0 -23 -1 -37q-1 -21 -3 -39h-911v170h776l-101 -53q2 96 -38 166t-112 112q-71 41 -163 41q-94 0 -165 -41q-68 -39 -110 -114
q-40 -71 -40 -171v-40q0 -99 45 -175q44 -75 127 -116q84 -41 188 -41q94 0 166 28q73 28 131 91l137 -158q-73 -85 -185 -132q-110 -46 -255 -46zM465 1243l276 281h301l-356 -281h-221z" />
    <glyph glyph-name="ecircumflex" unicode="&#xea;" horiz-adv-x="1273" 
d="M682 -14q-182 0 -318 72q-135 71 -211 200q-75 127 -75 289t73 290q71 124 200 197q128 72 292 72q159 0 285 -70q124 -69 196 -196t72 -299q0 -23 -1 -37q-1 -21 -3 -39h-911v170h776l-101 -53q2 96 -38 166t-112 112q-71 41 -163 41q-94 0 -165 -41q-68 -39 -110 -114
q-40 -71 -40 -171v-40q0 -99 45 -175q44 -75 127 -116q84 -41 188 -41q94 0 166 28q73 28 131 91l137 -158q-73 -85 -185 -132q-110 -46 -255 -46zM246 1243l274 281h234l274 -281h-211l-278 236h196l-278 -236h-211z" />
    <glyph glyph-name="edieresis" unicode="&#xeb;" horiz-adv-x="1273" 
d="M682 -14q-182 0 -318 72q-135 71 -211 200q-75 127 -75 289t73 290q71 124 200 197q128 72 292 72q159 0 285 -70q124 -69 196 -196t72 -299q0 -23 -1 -37q-1 -21 -3 -39h-911v170h776l-101 -53q2 96 -38 166t-112 112q-71 41 -163 41q-94 0 -165 -41q-68 -39 -110 -114
q-40 -71 -40 -171v-40q0 -99 45 -175q44 -75 127 -116q84 -41 188 -41q94 0 166 28q73 28 131 91l137 -158q-73 -85 -185 -132q-110 -46 -255 -46zM836 1266q-53 0 -87 33q-36 35 -36 90t36 90q35 34 87 34t87 -34t35 -90t-35 -90q-34 -33 -87 -33zM438 1266q-53 0 -87 33
q-36 35 -36 90t36 90q35 34 87 34t87 -34q36 -35 36 -90t-36 -90q-34 -33 -87 -33z" />
    <glyph glyph-name="igrave" unicode="&#xec;" horiz-adv-x="591" 
d="M168 0v1094h256v-1094h-256zM248 1243l-357 281h302l276 -281h-221z" />
    <glyph glyph-name="iacute" unicode="&#xed;" horiz-adv-x="591" 
d="M168 0v1094h256v-1094h-256zM125 1243l276 281h301l-356 -281h-221z" />
    <glyph glyph-name="icircumflex" unicode="&#xee;" horiz-adv-x="591" 
d="M168 0v1094h256v-1094h-256zM-43 1243l225 281h230l225 -281h-201l-227 236h176l-227 -236h-201z" />
    <glyph glyph-name="idieresis" unicode="&#xef;" horiz-adv-x="591" 
d="M168 0v1094h256v-1094h-256zM455 1268q-50 0 -85 35q-34 34 -34 86t34 87t85 35q49 0 83 -34q33 -33 33 -88q0 -54 -33 -87q-34 -34 -83 -34zM141 1268q-50 0 -85 35q-33 33 -33 86t33 87q34 35 85 35q49 0 83 -34t34 -88q0 -53 -34 -87t-83 -34z" />
    <glyph glyph-name="eth" unicode="&#xf0;" horiz-adv-x="1327" 
d="M610 -20q-148 0 -270 57t-192 162q-70 104 -70 247t68 244q70 103 189 160q120 57 265 57q116 0 207 -39q94 -40 158 -110q66 -72 96 -176l-92 -41q14 48 17 107q3 54 3 112q0 181 -58 298t-167 178q-108 60 -260 60q-87 0 -158 -13q-77 -14 -131 -34l-39 209
q68 21 153 33q82 12 179 12q226 0 392 -90q168 -91 259 -268q92 -179 92 -443q0 -224 -76 -385q-75 -159 -220 -249q-142 -88 -345 -88zM629 188q97 0 166 36q68 36 106 93q37 56 37 125q0 74 -39 132q-40 60 -106 92q-65 32 -156 32q-137 0 -219 -69t-82 -187
q0 -75 38 -133t103 -89q67 -32 152 -32zM315 961l-61 151l876 344l60 -151z" />
    <glyph glyph-name="ntilde" unicode="&#xf1;" horiz-adv-x="1402" 
d="M788 1106q132 0 235 -51q102 -50 163 -157q59 -103 59 -271v-627h-256v594q0 146 -68 217q-69 72 -192 72q-92 0 -160 -37q-69 -38 -107 -110q-38 -73 -38 -183v-553h-256v1094h244v-295l-43 90q56 103 167 161q108 56 252 56zM854 1243q-47 0 -89 20q-39 19 -72 47
q-31 27 -60 48q-27 20 -58 20q-43 0 -69 -32t-31 -91h-137q5 129 62 201q59 74 159 74q49 0 90 -21q46 -24 73 -47q23 -20 60 -47q27 -20 56 -20q43 0 70 30q29 32 30 86h137q-2 -119 -61 -193q-60 -75 -160 -75z" />
    <glyph glyph-name="ograve" unicode="&#xf2;" horiz-adv-x="1320" 
d="M659 -14q-168 0 -299 72q-129 71 -206 200q-76 127 -76 289q0 165 76 290t206 197q131 72 299 72q171 0 303 -72q131 -71 206 -196q75 -124 75 -291q0 -161 -75 -289q-76 -129 -206 -200q-132 -72 -303 -72zM659 205q94 0 168 41t116 119t42 182q0 107 -42 183
q-43 78 -116 118q-74 41 -165 41q-94 0 -167 -41q-72 -40 -116 -118q-43 -76 -43 -183q0 -105 43 -182q44 -78 116 -119q73 -41 164 -41zM608 1243l-356 281h301l276 -281h-221z" />
    <glyph glyph-name="oacute" unicode="&#xf3;" horiz-adv-x="1320" 
d="M659 -14q-168 0 -299 72q-129 71 -206 200q-76 127 -76 289q0 165 76 290t206 197q131 72 299 72q171 0 303 -72q131 -71 206 -196q75 -124 75 -291q0 -161 -75 -289q-76 -129 -206 -200q-132 -72 -303 -72zM659 205q94 0 168 41t116 119t42 182q0 107 -42 183
q-43 78 -116 118q-74 41 -165 41q-94 0 -167 -41q-72 -40 -116 -118q-43 -76 -43 -183q0 -105 43 -182q44 -78 116 -119q73 -41 164 -41zM485 1243l277 281h301l-356 -281h-222z" />
    <glyph glyph-name="ocircumflex" unicode="&#xf4;" horiz-adv-x="1320" 
d="M659 -14q-168 0 -299 72q-129 71 -206 200q-76 127 -76 289q0 165 76 290t206 197q131 72 299 72q171 0 303 -72q131 -71 206 -196q75 -124 75 -291q0 -161 -75 -289q-76 -129 -206 -200q-132 -72 -303 -72zM659 205q94 0 168 41t116 119t42 182q0 107 -42 183
q-43 78 -116 118q-74 41 -165 41q-94 0 -167 -41q-72 -40 -116 -118q-43 -76 -43 -183q0 -105 43 -182q44 -78 116 -119q73 -41 164 -41zM266 1243l275 281h233l275 -281h-211l-279 236h197l-279 -236h-211z" />
    <glyph glyph-name="otilde" unicode="&#xf5;" horiz-adv-x="1320" 
d="M659 -14q-168 0 -299 72q-129 71 -206 200q-76 127 -76 289q0 165 76 290t206 197q131 72 299 72q171 0 303 -72q131 -71 206 -196q75 -124 75 -291q0 -161 -75 -289q-76 -129 -206 -200q-132 -72 -303 -72zM659 205q94 0 168 41t116 119t42 182q0 107 -42 183
q-43 78 -116 118q-74 41 -165 41q-94 0 -167 -41q-72 -40 -116 -118q-43 -76 -43 -183q0 -105 43 -182q44 -78 116 -119q73 -41 164 -41zM805 1243q-47 0 -89 20q-39 19 -72 47q-32 27 -60 48q-27 20 -58 20q-43 0 -69 -32t-31 -91h-137q5 129 62 201q59 74 159 74
q50 0 90 -21q46 -24 73 -47q23 -20 60 -47q27 -20 55 -20q44 0 71 30q29 32 30 86h137q-2 -119 -61 -193q-60 -75 -160 -75z" />
    <glyph glyph-name="odieresis" unicode="&#xf6;" horiz-adv-x="1320" 
d="M659 -14q-168 0 -299 72q-129 71 -206 200q-76 127 -76 289q0 165 76 290t206 197q131 72 299 72q171 0 303 -72q131 -71 206 -196q75 -124 75 -291q0 -161 -75 -289q-76 -129 -206 -200q-132 -72 -303 -72zM659 205q94 0 168 41t116 119t42 182q0 107 -42 183
q-43 78 -116 118q-74 41 -165 41q-94 0 -167 -41q-72 -40 -116 -118q-43 -76 -43 -183q0 -105 43 -182q44 -78 116 -119q73 -41 164 -41zM856 1266q-53 0 -87 33q-36 35 -36 90t36 90q35 34 87 34t87 -34q36 -35 36 -90t-36 -90q-34 -33 -87 -33zM459 1266q-53 0 -87 33
q-36 35 -36 90t36 90q35 34 87 34t87 -34q36 -35 36 -90t-36 -90q-34 -33 -87 -33z" />
    <glyph glyph-name="divide" unicode="&#xf7;" horiz-adv-x="1208" 
d="M133 614v205h944v-205h-944zM604 156q-60 0 -100 42q-41 43 -41 105q0 65 41 106q40 40 100 40q63 0 103 -40q41 -41 41 -106q0 -62 -41 -105q-41 -42 -103 -42zM604 985q-60 0 -100 42q-41 43 -41 106t41 104t100 41q62 0 103 -41t41 -104t-41 -106q-41 -42 -103 -42z
" />
    <glyph glyph-name="oslash" unicode="&#xf8;" horiz-adv-x="1320" 
d="M659 -14q-168 0 -299 72q-129 71 -206 200q-76 127 -76 289q0 165 76 290t206 197q131 72 299 72q171 0 303 -72q131 -71 206 -196q75 -124 75 -291q0 -161 -75 -289q-76 -129 -206 -200q-132 -72 -303 -72zM659 205q94 0 168 41t116 119t42 182q0 107 -42 183
q-43 78 -116 118q-74 41 -165 41q-94 0 -167 -41q-72 -40 -116 -118q-43 -76 -43 -183q0 -105 43 -182q44 -78 116 -119q73 -41 164 -41zM135 -145l901 1376h144l-901 -1376h-144z" />
    <glyph glyph-name="ugrave" unicode="&#xf9;" horiz-adv-x="1394" 
d="M631 -14q-141 0 -246 52q-106 52 -166 160q-59 106 -59 271v625h256v-590q0 -148 66 -220q67 -73 190 -73q91 0 156 37q69 39 105 110q38 74 38 183v553h256v-1094h-244v295l43 -90q-55 -106 -162 -163q-105 -56 -233 -56zM643 1243l-356 281h301l276 -281h-221z" />
    <glyph glyph-name="uacute" unicode="&#xfa;" horiz-adv-x="1394" 
d="M631 -14q-141 0 -246 52q-106 52 -166 160q-59 106 -59 271v625h256v-590q0 -148 66 -220q67 -73 190 -73q91 0 156 37q69 39 105 110q38 74 38 183v553h256v-1094h-244v295l43 -90q-55 -106 -162 -163q-105 -56 -233 -56zM520 1243l277 281h301l-357 -281h-221z" />
    <glyph glyph-name="ucircumflex" unicode="&#xfb;" horiz-adv-x="1394" 
d="M631 -14q-141 0 -246 52q-106 52 -166 160q-59 106 -59 271v625h256v-590q0 -148 66 -220q67 -73 190 -73q91 0 156 37q69 39 105 110q38 74 38 183v553h256v-1094h-244v295l43 -90q-55 -106 -162 -163q-105 -56 -233 -56zM301 1243l274 281h234l274 -281h-211l-278 236
h197l-279 -236h-211z" />
    <glyph glyph-name="udieresis" unicode="&#xfc;" horiz-adv-x="1394" 
d="M631 -14q-141 0 -246 52q-106 52 -166 160q-59 106 -59 271v625h256v-590q0 -148 66 -220q67 -73 190 -73q91 0 156 37q69 39 105 110q38 74 38 183v553h256v-1094h-244v295l43 -90q-55 -106 -162 -163q-105 -56 -233 -56zM891 1266q-53 0 -87 33q-36 35 -36 90t36 90
q35 34 87 34t87 -34q36 -35 36 -90t-36 -90q-34 -33 -87 -33zM494 1266q-53 0 -87 33q-36 35 -36 90t36 90q35 34 87 34t87 -34t35 -90t-35 -90q-34 -33 -87 -33z" />
    <glyph glyph-name="yacute" unicode="&#xfd;" horiz-adv-x="1183" 
d="M258 -412q-80 0 -160 27t-133 74l103 188q38 -34 88 -55t100 -21q69 0 113 35q42 33 80 117l63 143l20 31l414 967h246l-512 -1182q-51 -123 -114 -195t-139 -100q-78 -29 -169 -29zM483 -39l-493 1133h266l401 -944zM393 1243l277 281h301l-357 -281h-221z" />
    <glyph glyph-name="thorn" unicode="&#xfe;" horiz-adv-x="1404" 
d="M774 -14q-134 0 -243 61q-110 62 -174 185q-64 124 -64 315q0 194 62 315q64 124 171 184q108 60 248 60q160 0 286 -70q123 -68 196 -194t73 -295q0 -168 -73 -296t-196 -196q-124 -69 -286 -69zM168 -397v1917h256v-684l-21 -291l21 -291v-651h-256zM745 205
q92 0 165 41q72 41 116 119q43 77 43 182q0 107 -43 183q-44 78 -116 118q-73 41 -165 41q-91 0 -165 -41q-73 -40 -117 -118q-43 -76 -43 -183q0 -105 43 -182q44 -79 117 -119q74 -41 165 -41z" />
    <glyph glyph-name="ydieresis" unicode="&#xff;" horiz-adv-x="1183" 
d="M258 -412q-80 0 -160 27t-133 74l103 188q38 -34 88 -55t100 -21q69 0 113 35q42 33 80 117l63 143l20 31l414 967h246l-512 -1182q-51 -123 -114 -195t-139 -100q-78 -29 -169 -29zM483 -39l-493 1133h266l401 -944zM764 1266q-53 0 -87 33q-36 35 -36 90t36 90
q35 34 87 34t87 -34q36 -35 36 -90t-36 -90q-34 -33 -87 -33zM367 1266q-53 0 -87 33q-36 35 -36 90t36 90q35 34 87 34t87 -34t35 -90t-35 -90q-34 -33 -87 -33z" />
    <glyph glyph-name="Amacron" unicode="&#x100;" horiz-adv-x="1533" 
d="M-10 0l645 1434h262l647 -1434h-278l-555 1292h106l-553 -1292h-274zM287 332l71 209h775l71 -209h-917zM412 1614v153h708v-153h-708z" />
    <glyph glyph-name="amacron" unicode="&#x101;" horiz-adv-x="1243" 
d="M842 0v221l-15 47v387q0 112 -67 175t-205 63q-91 0 -181 -29q-89 -29 -151 -80l-100 187q86 66 210 101q120 34 253 34q236 0 367 -114q130 -114 130 -351v-641h-241zM498 -14q-124 0 -215 42q-95 44 -143 116q-50 76 -50 169q0 92 44 166q43 73 145 117q99 43 266 43
h317v-170h-299q-131 0 -176 -42t-45 -103q0 -71 55 -111q56 -41 154 -41q95 0 169 43t107 127l43 -154q-38 -97 -132 -149q-95 -53 -240 -53zM254 1307v153h709v-153h-709z" />
    <glyph glyph-name="Abreve" unicode="&#x102;" horiz-adv-x="1533" 
d="M-10 0l645 1434h262l647 -1434h-278l-555 1292h106l-553 -1292h-274zM287 332l71 209h775l71 -209h-917zM766 1536q-149 0 -249 80q-99 79 -105 215h168q5 -73 57 -113q53 -41 129 -41q75 0 130 41q54 41 56 113h168q-6 -136 -105 -215q-100 -80 -249 -80z" />
    <glyph glyph-name="abreve" unicode="&#x103;" horiz-adv-x="1243" 
d="M842 0v221l-15 47v387q0 112 -67 175t-205 63q-91 0 -181 -29q-89 -29 -151 -80l-100 187q86 66 210 101q120 34 253 34q236 0 367 -114q130 -114 130 -351v-641h-241zM498 -14q-124 0 -215 42q-95 44 -143 116q-50 76 -50 169q0 92 44 166q43 73 145 117q99 43 266 43
h317v-170h-299q-131 0 -176 -42t-45 -103q0 -71 55 -111q56 -41 154 -41q95 0 169 43t107 127l43 -154q-38 -97 -132 -149q-95 -53 -240 -53zM608 1229q-149 0 -249 80q-99 79 -105 215h168q5 -73 57 -113q53 -41 129 -41q75 0 130 41q56 42 57 113h168q-6 -135 -106 -215
t-249 -80z" />
    <glyph glyph-name="Aogonek" unicode="&#x104;" horiz-adv-x="1533" 
d="M-10 0l645 1434h262l647 -1434h-278l-555 1292h106l-553 -1292h-274zM287 332l71 209h775l71 -209h-917zM1397 -467q-128 0 -197 60q-70 61 -70 159q0 58 31 118q29 57 97 111q62 49 174 95l112 -76q-90 -41 -139 -76q-56 -40 -78 -74q-24 -38 -24 -77q0 -48 33 -74
q34 -27 87 -27q31 0 68 10q36 10 57 23l43 -125q-37 -20 -90 -34q-49 -13 -104 -13z" />
    <glyph glyph-name="aogonek" unicode="&#x105;" horiz-adv-x="1243" 
d="M842 0v221l-15 47v387q0 112 -67 175t-205 63q-91 0 -181 -29q-89 -29 -151 -80l-100 187q86 66 210 101q120 34 253 34q236 0 367 -114q130 -114 130 -351v-641h-241zM498 -14q-124 0 -215 42q-95 44 -143 116q-50 76 -50 169q0 92 44 166q43 73 145 117q99 43 266 43
h317v-170h-299q-131 0 -176 -42t-45 -103q0 -71 55 -111q56 -41 154 -41q95 0 169 43t107 127l43 -154q-38 -97 -132 -149q-95 -53 -240 -53zM936 -467q-128 0 -197 60t-69 159q0 60 30 118q29 56 98 111q63 50 173 95l112 -76q-90 -41 -139 -76q-56 -40 -78 -74
q-24 -38 -24 -77q0 -47 34 -74t87 -27q30 0 67 10q36 10 57 23l43 -125q-37 -20 -90 -34q-49 -13 -104 -13z" />
    <glyph glyph-name="Cacute" unicode="&#x106;" horiz-adv-x="1488" 
d="M856 -20q-163 0 -304 54q-140 54 -244 153t-161 235q-57 135 -57 295t57 295t162 234q107 101 244 154q139 54 305 54q176 0 322 -60q142 -59 245 -180l-172 -161q-78 84 -174 126t-209 42t-205 -37q-93 -38 -162 -105q-70 -68 -107 -159q-38 -93 -38 -203t38 -203
q38 -92 107 -160q67 -66 162 -104q92 -37 205 -37t209 42q95 42 174 128l172 -164q-100 -117 -245 -178q-144 -61 -324 -61zM674 1550l276 281h301l-356 -281h-221z" />
    <glyph glyph-name="cacute" unicode="&#x107;" horiz-adv-x="1189" 
d="M670 -14q-172 0 -306 72q-133 72 -210 200q-76 127 -76 289q0 165 76 290t210 197t306 72q159 0 281 -65q124 -66 186 -189l-197 -115q-49 77 -120 115q-70 37 -152 37q-93 0 -170 -41q-74 -39 -119 -118q-43 -76 -43 -183t43 -183q45 -79 119 -118q77 -41 170 -41
q82 0 152 37q72 38 120 114l197 -114q-63 -123 -186 -190q-121 -66 -281 -66zM457 1243l276 281h301l-356 -281h-221z" />
    <glyph glyph-name="Ccircumflex" unicode="&#x108;" horiz-adv-x="1488" 
d="M856 -20q-163 0 -304 54q-140 54 -244 153t-161 235q-57 135 -57 295t57 295t162 234q107 101 244 154q139 54 305 54q176 0 322 -60q142 -59 245 -180l-172 -161q-78 84 -174 126t-209 42t-205 -37q-93 -38 -162 -105q-70 -68 -107 -159q-38 -93 -38 -203t38 -203
q38 -92 107 -160q67 -66 162 -104q92 -37 205 -37t209 42q95 42 174 128l172 -164q-100 -117 -245 -178q-144 -61 -324 -61zM455 1550l274 281h234l274 -281h-211l-278 236h196l-278 -236h-211z" />
    <glyph glyph-name="ccircumflex" unicode="&#x109;" horiz-adv-x="1189" 
d="M670 -14q-172 0 -306 72q-133 72 -210 200q-76 127 -76 289q0 165 76 290t210 197t306 72q159 0 281 -65q124 -66 186 -189l-197 -115q-49 77 -120 115q-70 37 -152 37q-93 0 -170 -41q-74 -39 -119 -118q-43 -76 -43 -183t43 -183q45 -79 119 -118q77 -41 170 -41
q82 0 152 37q72 38 120 114l197 -114q-63 -123 -186 -190q-121 -66 -281 -66zM238 1243l274 281h233l275 -281h-211l-279 236h197l-278 -236h-211z" />
    <glyph glyph-name="Cdotaccent" unicode="&#x10a;" horiz-adv-x="1488" 
d="M856 -20q-163 0 -304 54q-140 54 -244 153t-161 235q-57 135 -57 295t57 295t162 234q107 101 244 154q139 54 305 54q176 0 322 -60q142 -59 245 -180l-172 -161q-78 84 -174 126t-209 42t-205 -37q-93 -38 -162 -105q-70 -68 -107 -159q-38 -93 -38 -203t38 -203
q38 -92 107 -160q67 -66 162 -104q92 -37 205 -37t209 42q95 42 174 128l172 -164q-100 -117 -245 -178q-144 -61 -324 -61zM846 1575q-64 0 -105 41t-41 104q0 64 41 105t105 41q60 0 103 -41q42 -41 42 -105t-42 -104q-43 -41 -103 -41z" />
    <glyph glyph-name="cdotaccent" unicode="&#x10b;" horiz-adv-x="1189" 
d="M670 -14q-172 0 -306 72q-133 72 -210 200q-76 127 -76 289q0 165 76 290t210 197t306 72q159 0 281 -65q124 -66 186 -189l-197 -115q-49 77 -120 115q-70 37 -152 37q-93 0 -170 -41q-74 -39 -119 -118q-43 -76 -43 -183t43 -183q45 -79 119 -118q77 -41 170 -41
q82 0 152 37q72 38 120 114l197 -114q-63 -123 -186 -190q-121 -66 -281 -66zM629 1268q-64 0 -105 41t-41 104q0 64 41 105t105 41q60 0 103 -41q42 -40 42 -105q0 -63 -42 -104q-43 -41 -103 -41z" />
    <glyph glyph-name="Ccaron" unicode="&#x10c;" horiz-adv-x="1488" 
d="M856 -20q-163 0 -304 54q-140 54 -244 153t-161 235q-57 135 -57 295t57 295t162 234q107 101 244 154q139 54 305 54q176 0 322 -60q142 -59 245 -180l-172 -161q-78 84 -174 126t-209 42t-205 -37q-93 -38 -162 -105q-70 -68 -107 -159q-38 -93 -38 -203t38 -203
q38 -92 107 -160q67 -66 162 -104q92 -37 205 -37t209 42q95 42 174 128l172 -164q-100 -117 -245 -178q-144 -61 -324 -61zM729 1550l-274 281h211l278 -234h-196l278 234h211l-274 -281h-234z" />
    <glyph glyph-name="ccaron" unicode="&#x10d;" horiz-adv-x="1189" 
d="M670 -14q-172 0 -306 72q-133 72 -210 200q-76 127 -76 289q0 165 76 290t210 197t306 72q159 0 281 -65q124 -66 186 -189l-197 -115q-49 77 -120 115q-70 37 -152 37q-93 0 -170 -41q-74 -39 -119 -118q-43 -76 -43 -183t43 -183q45 -79 119 -118q77 -41 170 -41
q82 0 152 37q72 38 120 114l197 -114q-63 -123 -186 -190q-121 -66 -281 -66zM512 1243l-274 281h211l278 -234h-197l279 234h211l-275 -281h-233z" />
    <glyph glyph-name="Dcaron" unicode="&#x10e;" horiz-adv-x="1691" 
d="M193 0v1434h626q233 0 410 -91q175 -90 274 -249t99 -377q0 -216 -99 -376q-100 -162 -274 -251q-175 -90 -410 -90h-626zM459 225h348q160 0 279 62t183 172t64 258q0 150 -64 259q-65 110 -183 171t-279 61h-348v-983zM651 1548l-274 281h211l278 -234h-196l278 234
h211l-274 -281h-234z" />
    <glyph glyph-name="dcaron" unicode="&#x10f;" horiz-adv-x="1406" 
d="M631 -14q-159 0 -284 70q-124 69 -197 196q-72 124 -72 295t72 295q73 126 197 194q128 70 284 70q138 0 246 -60q109 -60 172 -184q63 -123 63 -315t-61 -315t-170 -185q-107 -61 -250 -61zM662 205q91 0 164 41q74 42 117 119q44 79 44 182q0 106 -44 183t-117 118
t-164 41q-92 0 -165 -41t-117 -118t-44 -183q0 -103 44 -182q43 -77 117 -119q73 -41 165 -41zM993 0v258l11 291l-21 291v680h254v-1520h-244zM1415 1192v403h203l-33 -403h-170z" />
    <glyph glyph-name="Dcroat" unicode="&#x110;" horiz-adv-x="1712" 
d="M213 0v1434h627q232 0 409 -91q176 -90 275 -249q98 -157 98 -377q0 -217 -98 -376q-99 -161 -275 -251q-175 -90 -409 -90h-627zM479 225h348q161 0 280 62q117 61 182 172q65 112 65 258q0 149 -65 259t-182 171q-118 61 -280 61h-348v-983zM12 631v196h852v-196h-852z
" />
    <glyph glyph-name="dcroat" unicode="&#x111;" horiz-adv-x="1406" 
d="M631 -14q-159 0 -284 70q-124 69 -197 196q-72 124 -72 295t72 295q73 126 197 194q128 70 284 70q138 0 246 -60q109 -60 172 -184q63 -123 63 -315t-61 -315t-170 -185q-107 -61 -250 -61zM662 205q91 0 164 41q74 42 117 119q44 79 44 182q0 106 -44 183t-117 118
t-164 41q-92 0 -165 -41t-117 -118t-44 -183q0 -103 44 -182q43 -77 117 -119q73 -41 165 -41zM993 0v258l11 291l-21 291v680h254v-1520h-244zM580 1219v167h827v-167h-827z" />
    <glyph glyph-name="Emacron" unicode="&#x112;" horiz-adv-x="1372" 
d="M438 838h713v-220h-713v220zM459 223h809v-223h-1075v1434h1046v-224h-780v-987zM365 1614v153h708v-153h-708z" />
    <glyph glyph-name="emacron" unicode="&#x113;" horiz-adv-x="1273" 
d="M682 -14q-182 0 -318 72q-135 71 -211 200q-75 127 -75 289t73 290q71 124 200 197q128 72 292 72q159 0 285 -70q124 -69 196 -196t72 -299q0 -23 -1 -37q-1 -21 -3 -39h-911v170h776l-101 -53q2 96 -38 166t-112 112q-71 41 -163 41q-94 0 -165 -41q-68 -39 -110 -114
q-40 -71 -40 -171v-40q0 -99 45 -175q44 -75 127 -116q84 -41 188 -41q94 0 166 28q73 28 131 91l137 -158q-73 -85 -185 -132q-110 -46 -255 -46zM283 1307v153h708v-153h-708z" />
    <glyph glyph-name="Ebreve" unicode="&#x114;" horiz-adv-x="1372" 
d="M438 838h713v-220h-713v220zM459 223h809v-223h-1075v1434h1046v-224h-780v-987zM719 1536q-149 0 -249 80q-99 79 -105 215h167q4 -72 58 -113q53 -41 129 -41q75 0 130 41q54 41 56 113h168q-6 -136 -105 -215q-100 -80 -249 -80z" />
    <glyph glyph-name="ebreve" unicode="&#x115;" horiz-adv-x="1273" 
d="M682 -14q-182 0 -318 72q-135 71 -211 200q-75 127 -75 289t73 290q71 124 200 197q128 72 292 72q159 0 285 -70q124 -69 196 -196t72 -299q0 -23 -1 -37q-1 -21 -3 -39h-911v170h776l-101 -53q2 96 -38 166t-112 112q-71 41 -163 41q-94 0 -165 -41q-68 -39 -110 -114
q-40 -71 -40 -171v-40q0 -99 45 -175q44 -75 127 -116q84 -41 188 -41q94 0 166 28q73 28 131 91l137 -158q-73 -85 -185 -132q-110 -46 -255 -46zM637 1229q-149 0 -249 80q-99 79 -105 215h168q5 -73 57 -113q53 -41 129 -41q75 0 130 41q54 41 56 113h168
q-6 -136 -105 -215q-100 -80 -249 -80z" />
    <glyph glyph-name="Edotaccent" unicode="&#x116;" horiz-adv-x="1372" 
d="M438 838h713v-220h-713v220zM459 223h809v-223h-1075v1434h1046v-224h-780v-987zM719 1575q-64 0 -105 41t-41 104q0 64 41 105t105 41q60 0 103 -41q42 -41 42 -105t-42 -104q-43 -41 -103 -41z" />
    <glyph glyph-name="edotaccent" unicode="&#x117;" horiz-adv-x="1273" 
d="M682 -14q-182 0 -318 72q-135 71 -211 200q-75 127 -75 289t73 290q71 124 200 197q128 72 292 72q159 0 285 -70q124 -69 196 -196t72 -299q0 -23 -1 -37q-1 -21 -3 -39h-911v170h776l-101 -53q2 96 -38 166t-112 112q-71 41 -163 41q-94 0 -165 -41q-68 -39 -110 -114
q-40 -71 -40 -171v-40q0 -99 45 -175q44 -75 127 -116q84 -41 188 -41q94 0 166 28q73 28 131 91l137 -158q-73 -85 -185 -132q-110 -46 -255 -46zM637 1268q-64 0 -105 41q-40 40 -40 104q0 65 40 105q41 41 105 41q60 0 103 -41q42 -40 42 -105q0 -63 -42 -104
q-43 -41 -103 -41z" />
    <glyph glyph-name="Eogonek" unicode="&#x118;" horiz-adv-x="1372" 
d="M438 838h713v-220h-713v220zM459 223h809v-223h-1075v1434h1046v-224h-780v-987zM1120 -467q-127 0 -196 60q-70 61 -70 159q0 58 31 118q29 57 97 111q63 50 173 95l113 -76q-93 -42 -140 -76q-55 -39 -77 -74q-25 -39 -25 -77q0 -47 34 -74t87 -27q30 0 67 10
q38 10 58 23l43 -125q-37 -20 -90 -34q-49 -13 -105 -13z" />
    <glyph glyph-name="eogonek" unicode="&#x119;" horiz-adv-x="1273" 
d="M905 -467q-123 0 -193 63q-71 63 -71 164q0 76 42 155q41 78 128 136l78 -35q-43 -14 -100 -22q-56 -8 -107 -8q-182 0 -318 72q-135 71 -211 200q-75 127 -75 289t73 290q71 124 200 197q128 72 292 72q159 0 285 -70q124 -69 196 -196t72 -299q0 -23 -1 -37
q-1 -21 -3 -39h-911v170h776l-101 -53q2 96 -38 166t-112 112q-71 41 -163 41q-94 0 -165 -41q-68 -39 -110 -114q-40 -71 -40 -171v-40q0 -99 45 -175q44 -75 127 -116q84 -41 188 -41q94 0 166 28q73 28 131 91l137 -158q-18 -22 -37 -39q-28 -24 -43 -35
q-88 -71 -139 -126q-46 -51 -69 -99q-21 -45 -21 -84q0 -55 34 -82q35 -27 87 -27q28 0 66 10t59 23l43 -125q-37 -20 -90 -34q-49 -13 -107 -13z" />
    <glyph glyph-name="Ecaron" unicode="&#x11a;" horiz-adv-x="1372" 
d="M438 838h713v-220h-713v220zM459 223h809v-223h-1075v1434h1046v-224h-780v-987zM602 1550l-274 281h211l278 -234h-196l278 234h211l-274 -281h-234z" />
    <glyph glyph-name="ecaron" unicode="&#x11b;" horiz-adv-x="1273" 
d="M682 -14q-182 0 -318 72q-135 71 -211 200q-75 127 -75 289t73 290q71 124 200 197q128 72 292 72q159 0 285 -70q124 -69 196 -196t72 -299q0 -23 -1 -37q-1 -21 -3 -39h-911v170h776l-101 -53q2 96 -38 166t-112 112q-71 41 -163 41q-94 0 -165 -41q-68 -39 -110 -114
q-40 -71 -40 -171v-40q0 -99 45 -175q44 -75 127 -116q84 -41 188 -41q94 0 166 28q73 28 131 91l137 -158q-73 -85 -185 -132q-110 -46 -255 -46zM520 1243l-274 281h211l278 -234h-196l278 234h211l-274 -281h-234z" />
    <glyph glyph-name="Gcircumflex" unicode="&#x11c;" horiz-adv-x="1581" 
d="M862 -20q-167 0 -308 54q-139 53 -245 153q-104 98 -162 235q-57 135 -57 295t57 295q56 133 163 234q106 100 247 154t309 54q184 0 329 -59q146 -60 247 -174l-168 -164q-83 83 -181 124q-96 40 -214 40q-114 0 -209 -37q-98 -38 -166 -105q-72 -70 -108 -159
q-38 -93 -38 -203q0 -108 38 -201q37 -90 108 -161q66 -66 164 -105q93 -37 209 -37q107 0 205 34q103 36 190 113l151 -198q-111 -89 -261 -136q-147 -46 -300 -46zM1171 197v536h252v-571zM457 1550l274 281h234l274 -281h-211l-278 236h196l-278 -236h-211z" />
    <glyph glyph-name="gcircumflex" unicode="&#x11d;" horiz-adv-x="1421" 
d="M664 -412q-154 0 -296 40q-148 42 -237 116l115 193q72 -60 181 -96t222 -36q179 0 264 83q84 82 84 249v195l21 248l-8 247v267h243v-928q0 -296 -151 -437q-152 -141 -438 -141zM631 49q-154 0 -282 67q-126 66 -198 185q-73 120 -73 279q0 156 73 276q72 118 198 184
t282 66q140 0 250 -55q111 -56 177 -172q66 -117 66 -299t-66 -300t-177 -175q-109 -56 -250 -56zM670 266q96 0 172 40q74 39 117 111q42 70 42 163q0 92 -42 162q-43 73 -117 109q-78 38 -172 38q-95 0 -173 -38q-76 -37 -119 -109q-42 -70 -42 -162t42 -163
q42 -70 119 -111q76 -40 173 -40zM295 1243l274 281h234l274 -281h-211l-278 236h196l-278 -236h-211z" />
    <glyph glyph-name="Gbreve" unicode="&#x11e;" horiz-adv-x="1581" 
d="M862 -20q-167 0 -308 54q-139 53 -245 153q-104 98 -162 235q-57 135 -57 295t57 295q56 133 163 234q106 100 247 154t309 54q184 0 329 -59q146 -60 247 -174l-168 -164q-83 83 -181 124q-96 40 -214 40q-114 0 -209 -37q-98 -38 -166 -105q-72 -70 -108 -159
q-38 -93 -38 -203q0 -108 38 -201q37 -90 108 -161q66 -66 164 -105q93 -37 209 -37q107 0 205 34q103 36 190 113l151 -198q-111 -89 -261 -136q-147 -46 -300 -46zM1171 197v536h252v-571zM848 1536q-149 0 -249 80q-99 79 -105 215h168q5 -73 57 -113q53 -41 129 -41
q75 0 130 41q54 41 56 113h168q-6 -136 -105 -215q-100 -80 -249 -80z" />
    <glyph glyph-name="gbreve" unicode="&#x11f;" horiz-adv-x="1421" 
d="M664 -412q-154 0 -296 40q-148 42 -237 116l115 193q72 -60 181 -96t222 -36q179 0 264 83q84 82 84 249v195l21 248l-8 247v267h243v-928q0 -296 -151 -437q-152 -141 -438 -141zM631 49q-154 0 -282 67q-126 66 -198 185q-73 120 -73 279q0 156 73 276q72 118 198 184
t282 66q140 0 250 -55q111 -56 177 -172q66 -117 66 -299t-66 -300t-177 -175q-109 -56 -250 -56zM670 266q96 0 172 40q74 39 117 111q42 70 42 163q0 92 -42 162q-43 73 -117 109q-78 38 -172 38q-95 0 -173 -38q-76 -37 -119 -109q-42 -70 -42 -162t42 -163
q42 -70 119 -111q76 -40 173 -40zM686 1229q-149 0 -249 80q-99 79 -105 215h168q5 -73 57 -113q53 -41 129 -41q75 0 130 41q54 41 56 113h168q-6 -136 -105 -215q-100 -80 -249 -80z" />
    <glyph glyph-name="Gdotaccent" unicode="&#x120;" horiz-adv-x="1581" 
d="M862 -20q-167 0 -308 54q-139 53 -245 153q-104 98 -162 235q-57 135 -57 295t57 295q56 133 163 234q106 100 247 154t309 54q184 0 329 -59q146 -60 247 -174l-168 -164q-83 83 -181 124q-96 40 -214 40q-114 0 -209 -37q-98 -38 -166 -105q-72 -70 -108 -159
q-38 -93 -38 -203q0 -108 38 -201q37 -90 108 -161q66 -66 164 -105q93 -37 209 -37q107 0 205 34q103 36 190 113l151 -198q-111 -89 -261 -136q-147 -46 -300 -46zM1171 197v536h252v-571zM848 1575q-64 0 -105 41t-41 104q0 64 41 105t105 41q60 0 103 -41
q42 -41 42 -105t-42 -104q-43 -41 -103 -41z" />
    <glyph glyph-name="gdotaccent" unicode="&#x121;" horiz-adv-x="1421" 
d="M664 -412q-154 0 -296 40q-148 42 -237 116l115 193q72 -60 181 -96t222 -36q179 0 264 83q84 82 84 249v195l21 248l-8 247v267h243v-928q0 -296 -151 -437q-152 -141 -438 -141zM631 49q-154 0 -282 67q-126 66 -198 185q-73 120 -73 279q0 156 73 276q72 118 198 184
t282 66q140 0 250 -55q111 -56 177 -172q66 -117 66 -299t-66 -300t-177 -175q-109 -56 -250 -56zM670 266q96 0 172 40q74 39 117 111q42 70 42 163q0 92 -42 162q-43 73 -117 109q-78 38 -172 38q-95 0 -173 -38q-76 -37 -119 -109q-42 -70 -42 -162t42 -163
q42 -70 119 -111q76 -40 173 -40zM686 1268q-63 0 -104 41t-41 104q0 64 41 105t104 41q61 0 104 -41q41 -40 41 -105q0 -64 -41 -104q-43 -41 -104 -41z" />
    <glyph glyph-name="uni0122" unicode="&#x122;" horiz-adv-x="1581" 
d="M862 -20q-167 0 -308 54q-139 53 -245 153q-104 98 -162 235q-57 135 -57 295t57 295q56 133 163 234q106 100 247 154t309 54q184 0 329 -59q146 -60 247 -174l-168 -164q-83 83 -181 124q-96 40 -214 40q-114 0 -209 -37q-98 -38 -166 -105q-72 -70 -108 -159
q-38 -93 -38 -203q0 -108 38 -201q37 -90 108 -161q66 -66 164 -105q93 -37 209 -37q107 0 205 34q103 36 190 113l151 -198q-111 -89 -261 -136q-147 -46 -300 -46zM1171 197v536h252v-571zM731 -543l74 250l26 -92q-56 0 -90 29q-32 28 -32 77t33 78q36 31 89 31
q57 0 91 -32q32 -31 32 -77q0 -25 -6 -53q-6 -31 -26 -67l-66 -144h-125z" />
    <glyph glyph-name="uni0123" unicode="&#x123;" horiz-adv-x="1421" 
d="M664 -412q-154 0 -296 40q-148 42 -237 116l115 193q72 -60 181 -96t222 -36q179 0 264 83q84 82 84 249v195l21 248l-8 247v267h243v-928q0 -296 -151 -437q-152 -141 -438 -141zM631 49q-154 0 -282 67q-126 66 -198 185q-73 120 -73 279q0 156 73 276q72 118 198 184
t282 66q140 0 250 -55q111 -56 177 -172q66 -117 66 -299t-66 -300t-177 -175q-109 -56 -250 -56zM670 266q96 0 172 40q74 39 117 111q42 70 42 163q0 92 -42 162q-43 73 -117 109q-78 38 -172 38q-95 0 -173 -38q-76 -37 -119 -109q-42 -70 -42 -162t42 -163
q42 -70 119 -111q76 -40 173 -40zM686 1229q-66 0 -102 31q-35 30 -35 77q0 22 8 51q7 25 29 66l84 188h141l-92 -290l-33 92q64 0 101 -29q36 -29 36 -78t-35 -79q-33 -29 -102 -29z" />
    <glyph glyph-name="Hcircumflex" unicode="&#x124;" horiz-adv-x="1658" 
d="M1200 1434h266v-1434h-266v1434zM459 0h-266v1434h266v-1434zM1221 614h-785v228h785v-228zM438 1550l275 281h233l275 -281h-211l-279 236h197l-279 -236h-211z" />
    <glyph glyph-name="hcircumflex" unicode="&#x125;" horiz-adv-x="1402" 
d="M788 1106q132 0 235 -51q102 -50 163 -157q59 -103 59 -271v-627h-256v594q0 146 -68 217q-69 72 -192 72q-92 0 -160 -37q-69 -38 -107 -110q-38 -73 -38 -183v-553h-256v1520h256v-721l-55 90q56 103 167 161q108 56 252 56zM-94 1636l274 281h234l274 -281h-211
l-278 236h196l-278 -236h-211z" />
    <glyph glyph-name="Hbar" unicode="&#x126;" horiz-adv-x="1701" 
d="M1221 1434h266v-1434h-266v1434zM479 0h-266v1434h266v-1434zM1241 614h-784v228h784v-228zM10 1044v197h1678v-197h-1678z" />
    <glyph glyph-name="hbar" unicode="&#x127;" horiz-adv-x="1402" 
d="M788 1106q132 0 235 -51q102 -50 163 -157q59 -103 59 -271v-627h-256v594q0 146 -68 217q-69 72 -192 72q-92 0 -160 -37q-69 -38 -107 -110q-38 -73 -38 -183v-553h-256v1520h256v-721l-55 90q56 103 167 161q108 56 252 56zM0 1219v167h827v-167h-827z" />
    <glyph glyph-name="Itilde" unicode="&#x128;" horiz-adv-x="653" 
d="M193 0v1434h266v-1434h-266zM473 1550q-47 0 -89 20q-39 19 -72 47q-32 27 -60 48t-57 21q-43 0 -70 -33q-26 -32 -31 -90h-137q5 128 62 200q59 74 159 74q51 0 90 -20q43 -22 73 -48q23 -20 60 -47q27 -20 56 -20q42 0 70 31q29 32 30 86h137q-2 -120 -61 -194
q-60 -75 -160 -75z" />
    <glyph glyph-name="itilde" unicode="&#x129;" horiz-adv-x="591" 
d="M168 0v1094h256v-1094h-256zM426 1243q-46 0 -83 20q-35 19 -63 47q-6 6 -51 48q-21 20 -47 20q-33 0 -49 -31t-16 -92h-135q0 134 49 204q50 71 137 71q50 0 84 -21q38 -23 62 -47q11 -11 29.5 -27.5t21.5 -19.5q21 -20 47 -20q33 0 49 31t16 85h135q0 -130 -49 -198
q-50 -70 -137 -70z" />
    <glyph glyph-name="Imacron" unicode="&#x12a;" horiz-adv-x="653" 
d="M193 0v1434h266v-1434h-266zM37 1614v153h577v-153h-577z" />
    <glyph glyph-name="imacron" unicode="&#x12b;" horiz-adv-x="591" 
d="M168 0v1094h256v-1094h-256zM8 1307v153h578v-153h-578z" />
    <glyph glyph-name="Ibreve" unicode="&#x12c;" horiz-adv-x="653" 
d="M193 0v1434h266v-1434h-266zM326 1536q-149 0 -249 80t-106 215h168q4 -72 58 -113q53 -41 129 -41q75 0 130 41q54 41 56 113h168q-6 -135 -106 -215t-248 -80z" />
    <glyph glyph-name="ibreve" unicode="&#x12d;" horiz-adv-x="591" 
d="M168 0v1094h256v-1094h-256zM297 1229q-129 0 -215 80q-87 80 -88 215h158q0 -73 38 -114q39 -42 107 -42q67 0 106 42t39 114h158q-1 -135 -88 -215q-86 -80 -215 -80z" />
    <glyph glyph-name="Iogonek" unicode="&#x12e;" horiz-adv-x="653" 
d="M193 0v1434h266v-1434h-266zM387 -467q-101 0 -163 58t-62 155q0 87 50 172q49 82 159 156l88 -74q-80 -69 -103 -123q-24 -55 -24 -104q0 -47 26 -73q28 -28 64 -28q14 0 34 5q13 3 33 16l39 -119q-56 -41 -141 -41z" />
    <glyph glyph-name="iogonek" unicode="&#x12f;" horiz-adv-x="591" 
d="M168 0v1094h256v-1094h-256zM297 1274q-71 0 -118 45q-46 45 -46 108q0 67 46 110q47 44 118 44t118 -42q46 -42 46 -105q0 -68 -45 -114t-119 -46zM352 -467q-101 0 -163 58t-62 155q0 87 50 172q49 82 159 156l88 -74q-78 -68 -102 -123q-25 -58 -25 -104t27 -73
q28 -28 63 -28q14 0 34 5q15 4 34 16l39 -119q-56 -41 -142 -41z" />
    <glyph glyph-name="Idotaccent" unicode="&#x130;" horiz-adv-x="653" 
d="M193 0v1434h266v-1434h-266zM326 1575q-64 0 -105 41t-41 104q0 64 41 105t105 41q60 0 103 -41q42 -41 42 -105t-42 -104q-43 -41 -103 -41z" />
    <glyph glyph-name="dotlessi" unicode="&#x131;" horiz-adv-x="591" 
d="M168 0v1094h256v-1094h-256z" />
    <glyph glyph-name="IJ" unicode="&#x132;" horiz-adv-x="1478" 
d="M670 -20q-154 0 -286 42t-230 109l100 207q90 -60 200 -94q108 -33 216 -33q177 0 269 101q93 102 93 311v811h266v-797q0 -218 -78 -362q-79 -146 -220 -221q-139 -74 -330 -74zM180 645v789h266v-789h-266z" />
    <glyph glyph-name="ij" unicode="&#x133;" horiz-adv-x="1196" 
d="M168 0v1094h256v-1094h-256zM297 1274q-71 0 -118 45q-46 45 -46 108q0 67 46 110q47 44 118 44t118 -42q46 -42 46 -105q0 -68 -45 -114t-119 -46zM647 -412q-67 0 -136 16q-65 15 -110 48l74 190q59 -43 150 -43q69 0 108 44t39 130v1121h256v-1114q0 -181 -99 -286
q-100 -106 -282 -106zM899 1274q-71 0 -118 45q-46 45 -46 108q0 67 46 110q47 44 118 44t118 -42q46 -42 46 -105q0 -68 -45 -114t-119 -46z" />
    <glyph glyph-name="Jcircumflex" unicode="&#x134;" horiz-adv-x="1079" 
d="M416 -20q-136 0 -253 53t-190 153l152 183q60 -83 130 -123q71 -41 155 -41q223 0 223 264v741h-510v224h776v-951q0 -255 -124 -379t-359 -124zM121 1550l274 281h234l274 -281h-211l-278 236h196l-278 -236h-211z" />
    <glyph glyph-name="jcircumflex" unicode="&#x135;" horiz-adv-x="604" 
d="M55 -412q-67 0 -136 16q-64 15 -109 48l73 190q59 -43 150 -43q69 0 108 44q39 43 39 130v1121h256v-1114q0 -181 -99 -286q-100 -106 -282 -106zM-33 1243l226 281h229l225 -281h-201l-227 236h176l-227 -236h-201z" />
    <glyph glyph-name="uni0136" unicode="&#x136;" horiz-adv-x="1492" 
d="M430 338l-14 315l751 781h299l-624 -664l-148 -162zM193 0v1434h266v-1434h-266zM1192 0l-549 653l176 195l684 -848h-311zM672 -543l73 250l27 -92q-56 0 -90 29q-33 28 -33 77q0 48 34 78q36 31 89 31q56 0 90 -32q33 -31 33 -77q0 -25 -6 -53t-27 -67l-65 -144h-125z
" />
    <glyph glyph-name="uni0137" unicode="&#x137;" horiz-adv-x="1302" 
d="M377 244l6 321l571 529h308l-486 -488l-135 -112zM168 0v1520h256v-1520h-256zM993 0l-399 494l162 204l549 -698h-312zM545 -543l73 250l27 -92q-56 0 -90 29q-33 28 -33 77q0 48 34 78q36 31 89 31q56 0 90 -32q33 -31 33 -77q0 -25 -6 -53t-27 -67l-65 -144h-125z" />
    <glyph glyph-name="kgreenlandic" unicode="&#x138;" horiz-adv-x="1280" 
d="M377 244l6 321l571 529h308l-486 -488l-135 -112zM168 0v1094h256v-1094h-256zM993 0l-399 494l162 204l549 -698h-312z" />
    <glyph glyph-name="Lacute" unicode="&#x139;" horiz-adv-x="1226" 
d="M193 0v1434h266v-1209h749v-225h-1015zM154 1550l276 281h301l-356 -281h-221z" />
    <glyph glyph-name="lacute" unicode="&#x13a;" horiz-adv-x="591" 
d="M168 0v1520h256v-1520h-256zM125 1669l276 281h301l-356 -281h-221z" />
    <glyph glyph-name="uni013B" unicode="&#x13b;" horiz-adv-x="1226" 
d="M193 0v1434h266v-1209h749v-225h-1015zM625 -543l73 250l27 -92q-56 0 -90 29q-33 28 -33 77q0 48 34 78q36 31 89 31q56 0 90 -32q33 -31 33 -77q0 -25 -6 -53t-27 -67l-65 -144h-125z" />
    <glyph glyph-name="uni013C" unicode="&#x13c;" horiz-adv-x="591" 
d="M168 0v1520h256v-1520h-256zM197 -543l73 250l27 -92q-56 0 -90 29q-33 28 -33 77q0 48 34 78q36 31 89 31q56 0 90 -32q33 -32 33 -77q0 -25 -6 -53t-27 -67l-65 -144h-125z" />
    <glyph glyph-name="Lcaron" unicode="&#x13d;" horiz-adv-x="1226" 
d="M193 0v1434h266v-1209h749v-225h-1015zM889 1106v403h203l-33 -403h-170z" />
    <glyph glyph-name="lcaron" unicode="&#x13e;" horiz-adv-x="591" 
d="M168 0v1520h256v-1520h-256zM596 1192v403h203l-33 -403h-170z" />
    <glyph glyph-name="Ldot" unicode="&#x13f;" horiz-adv-x="1226" 
d="M193 0v1434h266v-1209h749v-225h-1015zM940 676q-63 0 -106 43t-43 110t43 110q44 44 106 44q64 0 106 -44q41 -42 41 -110t-41 -110q-42 -43 -106 -43z" />
    <glyph glyph-name="ldot" unicode="&#x140;" horiz-adv-x="780" 
d="M168 0v1520h256v-1520h-256zM686 598q-59 0 -99 40t-40 99t40 99q41 41 99 41q60 0 101 -41q40 -40 40 -99t-40 -99t-101 -40z" />
    <glyph glyph-name="Lslash" unicode="&#x141;" horiz-adv-x="1247" 
d="M213 0v1434h266v-1209h750v-225h-1016zM102 481l-108 142l706 534l109 -139z" />
    <glyph glyph-name="lslash" unicode="&#x142;" horiz-adv-x="634" 
d="M188 0v1520h256v-1520h-256zM70 440l-107 144l602 456l105 -145z" />
    <glyph glyph-name="Nacute" unicode="&#x143;" horiz-adv-x="1658" 
d="M193 0v1434h219l899 -1104h-109v1104h264v-1434h-219l-899 1104h109v-1104h-264zM657 1550l277 281h301l-356 -281h-222z" />
    <glyph glyph-name="nacute" unicode="&#x144;" horiz-adv-x="1402" 
d="M788 1106q132 0 235 -51q102 -50 163 -157q59 -103 59 -271v-627h-256v594q0 146 -68 217q-69 72 -192 72q-92 0 -160 -37q-69 -38 -107 -110q-38 -73 -38 -183v-553h-256v1094h244v-295l-43 90q56 103 167 161q108 56 252 56zM535 1243l276 281h301l-356 -281h-221z" />
    <glyph glyph-name="uni0145" unicode="&#x145;" horiz-adv-x="1658" 
d="M193 0v1434h219l899 -1104h-109v1104h264v-1434h-219l-899 1104h109v-1104h-264zM729 -543l74 250l26 -92q-56 0 -90 29q-32 28 -32 77t33 78q36 31 89 31q57 0 91 -32q32 -31 32 -77q0 -25 -6 -53q-6 -31 -26 -67l-66 -144h-125z" />
    <glyph glyph-name="uni0146" unicode="&#x146;" horiz-adv-x="1402" 
d="M788 1106q132 0 235 -51q102 -50 163 -157q59 -103 59 -271v-627h-256v594q0 146 -68 217q-69 72 -192 72q-92 0 -160 -37q-69 -38 -107 -110q-38 -73 -38 -183v-553h-256v1094h244v-295l-43 90q56 103 167 161q108 56 252 56zM606 -543l74 250l27 -92q-57 0 -91 29
q-32 28 -32 77t33 78q36 31 90 31q56 0 90 -32q32 -31 32 -77q0 -25 -6 -53q-6 -31 -26 -67l-66 -144h-125z" />
    <glyph glyph-name="Ncaron" unicode="&#x147;" horiz-adv-x="1658" 
d="M193 0v1434h219l899 -1104h-109v1104h264v-1434h-219l-899 1104h109v-1104h-264zM713 1550l-275 281h211l279 -234h-197l279 234h211l-275 -281h-233z" />
    <glyph glyph-name="ncaron" unicode="&#x148;" horiz-adv-x="1402" 
d="M788 1106q132 0 235 -51q102 -50 163 -157q59 -103 59 -271v-627h-256v594q0 146 -68 217q-69 72 -192 72q-92 0 -160 -37q-69 -38 -107 -110q-38 -73 -38 -183v-553h-256v1094h244v-295l-43 90q56 103 167 161q108 56 252 56zM590 1243l-275 281h211l279 -234h-197
l279 234h211l-275 -281h-233z" />
    <glyph glyph-name="napostrophe" unicode="&#x149;" horiz-adv-x="1540" 
d="M-10 899l119 455l34 -154q-71 0 -119 45q-49 46 -49 121t49 122q47 46 117 46q72 0 119 -47t47 -121q0 -22 -3 -46q-3 -22 -12 -53t-30 -77l-106 -291h-166zM924 1106q130 0 234 -51q102 -50 163 -157q59 -103 59 -271v-627h-256v594q0 146 -68 217q-69 72 -192 72
q-91 0 -159 -37q-71 -38 -108 -110q-38 -73 -38 -183v-553h-256v1094h244v-295l-43 90q56 103 167 161q108 56 253 56z" />
    <glyph glyph-name="Eng" unicode="&#x14a;" horiz-adv-x="1658" 
d="M193 0v1434h219l899 -1104l-64 -330l-899 1104h109v-1104h-264zM989 -412q-110 0 -207 38q-95 37 -168 110l127 190q46 -52 108 -83q58 -29 134 -29q219 0 219 264v1356h264v-1317q0 -273 -120 -400q-122 -129 -357 -129z" />
    <glyph glyph-name="eng" unicode="&#x14b;" horiz-adv-x="1402" 
d="M788 1106q132 0 235 -51q102 -50 163 -157q59 -103 59 -271v-647q0 -181 -99 -286q-100 -106 -282 -106q-67 0 -136 16q-65 15 -110 48l76 190q56 -43 148 -43q69 0 108 44t39 130v621q0 146 -68 217q-69 72 -192 72q-92 0 -160 -37q-69 -38 -107 -110q-38 -73 -38 -183
v-553h-256v1094h244v-295l-43 90q56 103 167 161q108 56 252 56z" />
    <glyph glyph-name="Omacron" unicode="&#x14c;" horiz-adv-x="1724" 
d="M864 -20q-169 0 -309 55q-142 56 -246 154t-162 234q-57 133 -57 294q0 160 57 294t162 233q106 100 246 155t307 55q168 0 308 -55q138 -54 245 -155q105 -99 162 -233t57 -294t-57 -295t-162 -234q-103 -97 -245 -153q-140 -55 -306 -55zM862 213q111 0 201 37
q96 39 160 105q68 69 105 160q38 93 38 202t-38 202q-36 89 -105 159q-66 67 -160 106q-90 37 -201 37q-109 0 -199 -37q-91 -38 -160 -106q-71 -71 -107 -159q-38 -93 -38 -202q0 -108 38 -201q37 -91 106 -161q64 -66 160 -105q90 -37 200 -37zM508 1614v153h709v-153
h-709z" />
    <glyph glyph-name="omacron" unicode="&#x14d;" horiz-adv-x="1320" 
d="M659 -14q-168 0 -299 72q-129 71 -206 200q-76 127 -76 289q0 165 76 290t206 197q131 72 299 72q171 0 303 -72q131 -71 206 -196q75 -124 75 -291q0 -161 -75 -289q-76 -129 -206 -200q-132 -72 -303 -72zM659 205q94 0 168 41t116 119t42 182q0 107 -42 183
q-43 78 -116 118q-74 41 -165 41q-94 0 -167 -41q-72 -40 -116 -118q-43 -76 -43 -183q0 -105 43 -182q44 -78 116 -119q73 -41 164 -41zM303 1307v153h709v-153h-709z" />
    <glyph glyph-name="Obreve" unicode="&#x14e;" horiz-adv-x="1724" 
d="M864 -20q-169 0 -309 55q-142 56 -246 154t-162 234q-57 133 -57 294q0 160 57 294t162 233q106 100 246 155t307 55q168 0 308 -55q138 -54 245 -155q105 -99 162 -233t57 -294t-57 -295t-162 -234q-103 -97 -245 -153q-140 -55 -306 -55zM862 213q111 0 201 37
q96 39 160 105q68 69 105 160q38 93 38 202t-38 202q-36 89 -105 159q-66 67 -160 106q-90 37 -201 37q-109 0 -199 -37q-91 -38 -160 -106q-71 -71 -107 -159q-38 -93 -38 -202q0 -108 38 -201q37 -91 106 -161q64 -66 160 -105q90 -37 200 -37zM862 1536q-149 0 -249 80
q-99 79 -105 215h168q5 -73 57 -113q53 -41 129 -41q75 0 130 41q56 42 57 113h168q-6 -135 -106 -215t-249 -80z" />
    <glyph glyph-name="obreve" unicode="&#x14f;" horiz-adv-x="1320" 
d="M659 -14q-168 0 -299 72q-129 71 -206 200q-76 127 -76 289q0 165 76 290t206 197q131 72 299 72q171 0 303 -72q131 -71 206 -196q75 -124 75 -291q0 -161 -75 -289q-76 -129 -206 -200q-132 -72 -303 -72zM659 205q94 0 168 41t116 119t42 182q0 107 -42 183
q-43 78 -116 118q-74 41 -165 41q-94 0 -167 -41q-72 -40 -116 -118q-43 -76 -43 -183q0 -105 43 -182q44 -78 116 -119q73 -41 164 -41zM657 1229q-148 0 -248 80t-106 215h168q5 -73 57 -113q53 -41 129 -41q75 0 130 41q56 42 57 113h168q-6 -135 -106 -215t-249 -80z
" />
    <glyph glyph-name="Ohungarumlaut" unicode="&#x150;" horiz-adv-x="1724" 
d="M864 -20q-169 0 -309 55q-142 56 -246 154t-162 234q-57 133 -57 294q0 160 57 294t162 233q106 100 246 155t307 55q168 0 308 -55q138 -54 245 -155q105 -99 162 -233t57 -294t-57 -295t-162 -234q-103 -97 -245 -153q-140 -55 -306 -55zM862 213q111 0 201 37
q96 39 160 105q68 69 105 160q38 93 38 202t-38 202q-36 89 -105 159q-66 67 -160 106q-90 37 -201 37q-109 0 -199 -37q-91 -38 -160 -106q-71 -71 -107 -159q-38 -93 -38 -202q0 -108 38 -201q37 -91 106 -161q64 -66 160 -105q90 -37 200 -37zM954 1550l164 281h256
l-219 -281h-201zM569 1550l166 281h256l-221 -281h-201z" />
    <glyph glyph-name="ohungarumlaut" unicode="&#x151;" horiz-adv-x="1320" 
d="M659 -14q-168 0 -299 72q-129 71 -206 200q-76 127 -76 289q0 165 76 290t206 197q131 72 299 72q171 0 303 -72q131 -71 206 -196q75 -124 75 -291q0 -161 -75 -289q-76 -129 -206 -200q-132 -72 -303 -72zM659 205q94 0 168 41t116 119t42 182q0 107 -42 183
q-43 78 -116 118q-74 41 -165 41q-94 0 -167 -41q-72 -40 -116 -118q-43 -76 -43 -183q0 -105 43 -182q44 -78 116 -119q73 -41 164 -41zM750 1243l163 281h256l-219 -281h-200zM365 1243l165 281h256l-221 -281h-200z" />
    <glyph glyph-name="OE" unicode="&#x152;" horiz-adv-x="2316" 
d="M872 0q-234 0 -409 90q-176 90 -275 251q-98 159 -98 374q0 219 98 378t275 250t409 91h332v-226h-319q-159 0 -278 -61q-120 -61 -184 -172q-65 -112 -65 -258q0 -149 65 -259t184 -171q121 -62 278 -62h319v-225h-332zM1380 838h715v-219h-715v219zM1401 223h809v-223
h-1073v1434h1044v-224h-780v-987z" />
    <glyph glyph-name="oe" unicode="&#x153;" horiz-adv-x="2181" 
d="M659 -14q-168 0 -299 72q-129 71 -206 200q-76 127 -76 289q0 165 76 290t206 197q131 72 299 72q169 0 293 -72q127 -74 195 -197q70 -128 70 -290q0 -160 -70 -289q-69 -127 -195 -200q-124 -72 -293 -72zM659 205q94 0 168 41t116 119t42 182q0 107 -42 183
q-43 78 -116 118q-74 41 -168 41q-91 0 -164 -41q-72 -40 -116 -118q-43 -76 -43 -183q0 -105 43 -182q44 -78 116 -119q73 -41 164 -41zM1591 -14q-182 0 -314 72t-203 200q-70 127 -70 289q0 164 69 290q68 124 193 197q123 72 284 72t287 -70t197 -196t71 -299
q0 -23 -1 -37q-2 -21 -3 -39h-905v170h756l-88 -53q2 96 -38 166q-40 71 -111 112t-165 41q-91 0 -162 -41t-112 -114t-41 -171v-40q0 -99 45 -175q44 -75 127 -116q84 -41 190 -41q92 0 164 28q73 28 131 91l140 -158q-76 -86 -189 -132q-111 -46 -252 -46z" />
    <glyph glyph-name="Racute" unicode="&#x154;" horiz-adv-x="1497" 
d="M193 0v1434h589q189 0 327 -62q136 -61 210 -176t74 -272t-74 -272q-73 -114 -210 -174t-327 -60h-442l119 121v-539h-266zM1130 0l-362 520h285l364 -520h-287zM459 510l-119 127h430q177 0 265 76q89 77 89 211q0 137 -89 211q-88 73 -265 73h-430l119 131v-829z
M592 1550l276 281h301l-356 -281h-221z" />
    <glyph glyph-name="racute" unicode="&#x155;" horiz-adv-x="860" 
d="M168 0v1094h244v-301l-29 88q49 111 155 168q105 57 263 57v-244q-11 3 -31 5q-10 1 -29 1q-146 0 -231 -85q-86 -86 -86 -253v-530h-256zM311 1243l277 281h301l-357 -281h-221z" />
    <glyph glyph-name="uni0156" unicode="&#x156;" horiz-adv-x="1497" 
d="M193 0v1434h589q189 0 327 -62q136 -61 210 -176t74 -272t-74 -272q-73 -114 -210 -174t-327 -60h-442l119 121v-539h-266zM1130 0l-362 520h285l364 -520h-287zM459 510l-119 127h430q177 0 265 76q89 77 89 211q0 137 -89 211q-88 73 -265 73h-430l119 131v-829z
M664 -543l73 250l27 -92q-56 0 -90 29q-33 28 -33 77q0 48 34 78q36 31 89 31q56 0 90 -32q33 -31 33 -77q0 -25 -6 -53t-27 -67l-66 -144h-124z" />
    <glyph glyph-name="uni0157" unicode="&#x157;" horiz-adv-x="860" 
d="M168 0v1094h244v-301l-29 88q49 111 155 168q105 57 263 57v-244q-11 3 -31 5q-10 1 -29 1q-146 0 -231 -85q-86 -86 -86 -253v-530h-256zM197 -543l73 250l27 -92q-56 0 -90 29q-33 28 -33 77q0 48 34 78q36 31 89 31q56 0 90 -32q33 -32 33 -77q0 -25 -6 -53t-27 -67
l-65 -144h-125z" />
    <glyph glyph-name="Rcaron" unicode="&#x158;" horiz-adv-x="1497" 
d="M193 0v1434h589q189 0 327 -62q136 -61 210 -176t74 -272t-74 -272q-73 -114 -210 -174t-327 -60h-442l119 121v-539h-266zM1130 0l-362 520h285l364 -520h-287zM459 510l-119 127h430q177 0 265 76q89 77 89 211q0 137 -89 211q-88 73 -265 73h-430l119 131v-829z
M647 1550l-274 281h211l278 -234h-196l278 234h211l-274 -281h-234z" />
    <glyph glyph-name="rcaron" unicode="&#x159;" horiz-adv-x="860" 
d="M168 0v1094h244v-301l-29 88q49 111 155 168q105 57 263 57v-244q-11 3 -31 5q-10 1 -29 1q-146 0 -231 -85q-86 -86 -86 -253v-530h-256zM367 1243l-275 281h211l279 -234h-197l279 234h210l-274 -281h-233z" />
    <glyph glyph-name="Sacute" unicode="&#x15a;" horiz-adv-x="1288" 
d="M637 -20q-169 0 -322 48q-154 48 -243 124l92 206q84 -67 213 -112q127 -45 260 -45q113 0 182 24t103 67q32 41 32 95q0 65 -47 106q-43 38 -122 63q-68 22 -165 44q-92 21 -183 48q-85 25 -166 72q-73 42 -121 118t-48 188q0 116 63 214t190 156q126 58 325 58
q128 0 256 -33q127 -33 221 -94l-84 -207q-98 58 -199 85q-106 28 -196 28q-110 0 -179 -27q-71 -28 -101 -69q-31 -43 -31 -99q0 -65 46 -105q47 -41 121 -63q84 -25 166 -44q96 -22 184 -48q96 -28 166 -69q73 -42 120 -117q47 -74 47 -186q0 -114 -63 -212t-191 -156
t-326 -58zM492 1550l276 281h301l-356 -281h-221z" />
    <glyph glyph-name="sacute" unicode="&#x15b;" horiz-adv-x="1054" 
d="M506 -14q-140 0 -263 35q-124 36 -200 88l98 194q77 -49 176 -78q102 -30 205 -30q123 0 175 32q55 34 55 88q0 45 -37 69q-38 24 -97 36q-51 10 -132 22q-79 12 -145 28q-77 19 -132 51q-58 33 -96 91q-37 56 -37 152q0 106 59 181q61 78 167 119q108 42 255 42
q106 0 223 -25q114 -24 187 -69l-99 -195q-80 48 -156 65q-75 17 -157 17q-115 0 -173 -35q-56 -34 -56 -88q0 -51 36 -74q35 -23 97 -38q60 -15 132 -24q64 -8 144 -28q70 -18 132 -50q60 -32 98 -89q36 -55 36 -149q0 -102 -60 -179q-58 -74 -171 -117q-111 -42 -264 -42z
M348 1243l277 281h301l-357 -281h-221z" />
    <glyph glyph-name="Scircumflex" unicode="&#x15c;" horiz-adv-x="1288" 
d="M637 -20q-169 0 -322 48q-154 48 -243 124l92 206q84 -67 213 -112q127 -45 260 -45q113 0 182 24t103 67q32 41 32 95q0 65 -47 106q-43 38 -122 63q-68 22 -165 44q-92 21 -183 48q-85 25 -166 72q-73 42 -121 118t-48 188q0 116 63 214t190 156q126 58 325 58
q128 0 256 -33q127 -33 221 -94l-84 -207q-98 58 -199 85q-106 28 -196 28q-110 0 -179 -27q-71 -28 -101 -69q-31 -43 -31 -99q0 -65 46 -105q47 -41 121 -63q84 -25 166 -44q96 -22 184 -48q96 -28 166 -69q73 -42 120 -117q47 -74 47 -186q0 -114 -63 -212t-191 -156
t-326 -58zM272 1550l275 281h233l275 -281h-211l-279 236h197l-279 -236h-211z" />
    <glyph glyph-name="scircumflex" unicode="&#x15d;" horiz-adv-x="1054" 
d="M506 -14q-140 0 -263 35q-124 36 -200 88l98 194q77 -49 176 -78q102 -30 205 -30q123 0 175 32q55 34 55 88q0 45 -37 69q-38 24 -97 36q-51 10 -132 22q-79 12 -145 28q-77 19 -132 51q-58 33 -96 91q-37 56 -37 152q0 106 59 181q61 78 167 119q108 42 255 42
q106 0 223 -25q114 -24 187 -69l-99 -195q-80 48 -156 65q-75 17 -157 17q-115 0 -173 -35q-56 -34 -56 -88q0 -51 36 -74q35 -23 97 -38q60 -15 132 -24q64 -8 144 -28q70 -18 132 -50q60 -32 98 -89q36 -55 36 -149q0 -102 -60 -179q-58 -74 -171 -117q-111 -42 -264 -42z
M129 1243l274 281h234l274 -281h-211l-278 236h196l-278 -236h-211z" />
    <glyph glyph-name="Scedilla" unicode="&#x15e;" horiz-adv-x="1288" 
d="M637 -20q-169 0 -322 48q-154 48 -243 124l92 206q84 -67 213 -112q127 -45 260 -45q113 0 182 24t103 67q32 41 32 95q0 65 -47 106q-43 38 -122 63q-68 22 -165 44q-92 21 -183 48q-85 25 -166 72q-73 42 -121 118t-48 188q0 116 63 214t190 156q126 58 325 58
q128 0 256 -33q127 -33 221 -94l-84 -207q-98 58 -199 85q-106 28 -196 28q-110 0 -179 -27q-71 -28 -101 -69q-31 -43 -31 -99q0 -65 46 -105q47 -41 121 -63q84 -25 166 -44q96 -22 184 -48q96 -28 166 -69q73 -42 120 -117q47 -74 47 -186q0 -114 -63 -212t-191 -156
t-326 -58zM604 -467q-59 0 -102 11q-51 13 -86 32l47 121q38 -19 66 -25q37 -8 73 -8q60 0 84 21q25 22 25 53t-26 49q-25 18 -83 18h-63l55 209h139l-28 -114q90 -11 134 -59q44 -49 44 -113q0 -91 -76 -143t-203 -52z" />
    <glyph glyph-name="scedilla" unicode="&#x15f;" horiz-adv-x="1054" 
d="M506 -14q-140 0 -263 35q-124 36 -200 88l98 194q77 -49 176 -78q102 -30 205 -30q123 0 175 32q55 34 55 88q0 45 -37 69q-38 24 -97 36q-51 10 -132 22q-79 12 -145 28q-77 19 -132 51q-58 33 -96 91q-37 56 -37 152q0 106 59 181q61 78 167 119q108 42 255 42
q106 0 223 -25q114 -24 187 -69l-99 -195q-80 48 -156 65q-75 17 -157 17q-115 0 -173 -35q-56 -34 -56 -88q0 -51 36 -74q35 -23 97 -38q60 -15 132 -24q64 -8 144 -28q70 -18 132 -50q60 -32 98 -89q36 -55 36 -149q0 -102 -60 -179q-58 -74 -171 -117q-111 -42 -264 -42z
M461 -467q-60 0 -103 11q-51 13 -86 32l47 121q37 -18 67 -25q37 -8 73 -8q60 0 84 21t24 53q0 31 -25 49q-26 18 -83 18h-64l56 209h139l-29 -114q90 -11 134 -59q44 -49 44 -113q0 -92 -75 -143q-76 -52 -203 -52z" />
    <glyph glyph-name="Scaron" unicode="&#x160;" horiz-adv-x="1288" 
d="M637 -20q-169 0 -322 48q-154 48 -243 124l92 206q84 -67 213 -112q127 -45 260 -45q113 0 182 24t103 67q32 41 32 95q0 65 -47 106q-43 38 -122 63q-68 22 -165 44q-92 21 -183 48q-85 25 -166 72q-73 42 -121 118t-48 188q0 116 63 214t190 156q126 58 325 58
q128 0 256 -33q127 -33 221 -94l-84 -207q-98 58 -199 85q-106 28 -196 28q-110 0 -179 -27q-71 -28 -101 -69q-31 -43 -31 -99q0 -65 46 -105q47 -41 121 -63q84 -25 166 -44q96 -22 184 -48q96 -28 166 -69q73 -42 120 -117q47 -74 47 -186q0 -114 -63 -212t-191 -156
t-326 -58zM547 1550l-275 281h211l279 -234h-197l279 234h211l-275 -281h-233z" />
    <glyph glyph-name="scaron" unicode="&#x161;" horiz-adv-x="1054" 
d="M506 -14q-140 0 -263 35q-124 36 -200 88l98 194q77 -49 176 -78q102 -30 205 -30q123 0 175 32q55 34 55 88q0 45 -37 69q-38 24 -97 36q-51 10 -132 22q-79 12 -145 28q-77 19 -132 51q-58 33 -96 91q-37 56 -37 152q0 106 59 181q61 78 167 119q108 42 255 42
q106 0 223 -25q114 -24 187 -69l-99 -195q-80 48 -156 65q-75 17 -157 17q-115 0 -173 -35q-56 -34 -56 -88q0 -51 36 -74q35 -23 97 -38q60 -15 132 -24q64 -8 144 -28q70 -18 132 -50q60 -32 98 -89q36 -55 36 -149q0 -102 -60 -179q-58 -74 -171 -117q-111 -42 -264 -42z
M403 1243l-274 281h211l278 -234h-196l278 234h211l-274 -281h-234z" />
    <glyph glyph-name="uni0162" unicode="&#x162;" horiz-adv-x="1232" 
d="M483 0v1208h-475v226h1217v-226h-475v-1208h-267zM557 -467q-59 0 -102 11q-51 13 -86 32l47 121q38 -19 66 -25q37 -8 73 -8q60 0 84 21q25 22 25 53t-26 49t-83 18h-63l55 209h139l-29 -114q91 -11 135 -59q44 -49 44 -113q0 -91 -76 -143t-203 -52z" />
    <glyph glyph-name="uni0163" unicode="&#x163;" horiz-adv-x="868" 
d="M580 -14q-180 0 -279 93q-98 92 -98 275v981h256v-975q0 -77 40 -120t111 -43q87 0 144 45l71 -183q-45 -37 -110 -55q-66 -18 -135 -18zM23 881v204h729v-204h-729zM467 -467q-59 0 -102 11q-51 13 -86 32l47 121q38 -19 66 -25q37 -8 73 -8q60 0 84 21t24 53
q0 31 -25 49q-26 18 -83 18h-64l56 209h139l-29 -114q90 -11 134 -59q44 -49 44 -113q0 -92 -75 -143q-76 -52 -203 -52z" />
    <glyph glyph-name="Tcaron" unicode="&#x164;" horiz-adv-x="1232" 
d="M483 0v1208h-475v226h1217v-226h-475v-1208h-267zM500 1550l-275 281h211l279 -234h-197l279 234h211l-275 -281h-233z" />
    <glyph glyph-name="tcaron" unicode="&#x165;" horiz-adv-x="868" 
d="M580 -14q-180 0 -279 93q-98 92 -98 275v981h256v-975q0 -77 40 -120t111 -43q87 0 144 45l71 -183q-45 -37 -110 -55q-66 -18 -135 -18zM23 881v204h729v-204h-729zM612 1210v361h193l-27 -361h-166z" />
    <glyph glyph-name="Tbar" unicode="&#x166;" horiz-adv-x="1232" 
d="M483 0v1208h-475v226h1217v-226h-475v-1208h-267zM190 584v196h852v-196h-852z" />
    <glyph glyph-name="tbar" unicode="&#x167;" horiz-adv-x="888" 
d="M590 -14q-180 0 -279 93q-98 92 -98 275v981h256v-975q0 -77 40 -120t112 -43q86 0 143 45l72 -183q-44 -37 -111 -55q-66 -18 -135 -18zM33 881v204h729v-204h-729zM59 494v165h678v-165h-678z" />
    <glyph glyph-name="Utilde" unicode="&#x168;" horiz-adv-x="1615" 
d="M809 -20q-297 0 -462 165q-167 167 -167 480v809h266v-799q0 -220 96 -322q94 -100 269 -100q174 0 268 100q95 101 95 322v799h262v-809q0 -313 -167 -480q-165 -165 -460 -165zM958 1550q-47 0 -89 20q-37 18 -71 47q-25 22 -61 48q-29 21 -57 21q-43 0 -70 -33
q-25 -31 -30 -90h-138q4 126 63 200t159 74q51 0 90 -20q40 -21 72 -48q17 -15 61 -47q27 -20 55 -20q43 0 71 31t29 86h138q-1 -118 -62 -194q-60 -75 -160 -75z" />
    <glyph glyph-name="utilde" unicode="&#x169;" horiz-adv-x="1394" 
d="M631 -14q-141 0 -246 52q-106 52 -166 160q-59 106 -59 271v625h256v-590q0 -148 66 -220q67 -73 190 -73q91 0 156 37q69 39 105 110q38 74 38 183v553h256v-1094h-244v295l43 -90q-55 -106 -162 -163q-105 -56 -233 -56zM840 1243q-47 0 -89 20q-39 19 -72 47
q-25 22 -61 48q-27 20 -57 20q-43 0 -69 -32t-31 -91h-137q5 129 62 201q59 74 159 74q49 0 90 -21q46 -24 73 -47q23 -20 60 -47q27 -20 55 -20q44 0 71 30q29 32 30 86h137q-1 -117 -62 -193q-60 -75 -159 -75z" />
    <glyph glyph-name="Umacron" unicode="&#x16a;" horiz-adv-x="1615" 
d="M809 -20q-297 0 -462 165q-167 167 -167 480v809h266v-799q0 -220 96 -322q94 -100 269 -100q174 0 268 100q95 101 95 322v799h262v-809q0 -313 -167 -480q-165 -165 -460 -165zM457 1614v153h708v-153h-708z" />
    <glyph glyph-name="umacron" unicode="&#x16b;" horiz-adv-x="1394" 
d="M631 -14q-141 0 -246 52q-106 52 -166 160q-59 106 -59 271v625h256v-590q0 -148 66 -220q67 -73 190 -73q91 0 156 37q69 39 105 110q38 74 38 183v553h256v-1094h-244v295l43 -90q-55 -106 -162 -163q-105 -56 -233 -56zM338 1307v153h709v-153h-709z" />
    <glyph glyph-name="Ubreve" unicode="&#x16c;" horiz-adv-x="1615" 
d="M809 -20q-297 0 -462 165q-167 167 -167 480v809h266v-799q0 -220 96 -322q94 -100 269 -100q174 0 268 100q95 101 95 322v799h262v-809q0 -313 -167 -480q-165 -165 -460 -165zM811 1536q-149 0 -249 80q-99 79 -105 215h168q5 -73 57 -113q53 -41 129 -41q75 0 130 41
q54 41 56 113h168q-6 -136 -105 -215q-100 -80 -249 -80z" />
    <glyph glyph-name="ubreve" unicode="&#x16d;" horiz-adv-x="1394" 
d="M631 -14q-141 0 -246 52q-106 52 -166 160q-59 106 -59 271v625h256v-590q0 -148 66 -220q67 -73 190 -73q91 0 156 37q69 39 105 110q38 74 38 183v553h256v-1094h-244v295l43 -90q-55 -106 -162 -163q-105 -56 -233 -56zM692 1229q-149 0 -249 80q-99 79 -105 215h168
q5 -73 57 -113q53 -41 129 -41q75 0 130 41q56 42 57 113h168q-6 -135 -106 -215t-249 -80z" />
    <glyph glyph-name="Uring" unicode="&#x16e;" horiz-adv-x="1615" 
d="M809 -20q-297 0 -462 165q-167 167 -167 480v809h266v-799q0 -220 96 -322q94 -100 269 -100q174 0 268 100q95 101 95 322v799h262v-809q0 -313 -167 -480q-165 -165 -460 -165zM809 1554q-68 0 -122 33q-56 34 -85 85q-31 54 -31 116q0 65 32 120q31 54 85 86
q52 31 121 31q71 0 124 -31q55 -32 85 -86q31 -56 31 -120q0 -63 -31 -117q-30 -53 -85 -85t-124 -32zM809 1659q57 0 94 37t37 92q0 58 -37 95q-38 38 -94 38q-54 0 -91 -37q-38 -38 -38 -96q0 -55 37 -92t92 -37z" />
    <glyph glyph-name="uring" unicode="&#x16f;" horiz-adv-x="1394" 
d="M631 -14q-141 0 -246 52q-106 52 -166 160q-59 106 -59 271v625h256v-590q0 -148 66 -220q67 -73 190 -73q91 0 156 37q69 39 105 110q38 74 38 183v553h256v-1094h-244v295l43 -90q-55 -106 -162 -163q-105 -56 -233 -56zM690 1214q-68 0 -122 33q-56 34 -85 85
q-30 52 -30 116q0 67 31 120q31 54 85 86q53 32 121 32q69 0 124 -32t85 -86q31 -56 31 -120q0 -63 -31 -117q-30 -53 -85 -85t-124 -32zM690 1319q57 0 94 37t37 92q0 58 -37 95q-38 38 -94 38q-54 0 -91 -37q-38 -38 -38 -96q0 -55 37 -92t92 -37z" />
    <glyph glyph-name="Uhungarumlaut" unicode="&#x170;" horiz-adv-x="1615" 
d="M809 -20q-297 0 -462 165q-167 167 -167 480v809h266v-799q0 -220 96 -322q94 -100 269 -100q174 0 268 100q95 101 95 322v799h262v-809q0 -313 -167 -480q-165 -165 -460 -165zM903 1550l164 281h256l-219 -281h-201zM518 1550l166 281h256l-221 -281h-201z" />
    <glyph glyph-name="uhungarumlaut" unicode="&#x171;" horiz-adv-x="1394" 
d="M631 -14q-141 0 -246 52q-106 52 -166 160q-59 106 -59 271v625h256v-590q0 -148 66 -220q67 -73 190 -73q91 0 156 37q69 39 105 110q38 74 38 183v553h256v-1094h-244v295l43 -90q-55 -106 -162 -163q-105 -56 -233 -56zM784 1243l164 281h256l-219 -281h-201z
M399 1243l166 281h256l-221 -281h-201z" />
    <glyph glyph-name="Uogonek" unicode="&#x172;" horiz-adv-x="1615" 
d="M1174 1434h262v-809q0 -252 -103 -400t-274 -209q-116 -43 -179 -85q-62 -41 -86 -82t-24 -76q0 -47 34 -74t87 -27q28 0 66 10t59 23l43 -125q-37 -20 -90 -34q-49 -13 -107 -13q-125 0 -194 60q-70 61 -70 159q0 60 30 118t96 111q62 50 175 95v-92l-45 -3
q-15 -1 -45 -1q-297 0 -462 165q-167 167 -167 480v809h266v-799q0 -220 96 -322q94 -100 269 -100q174 0 268 100q95 101 95 322v799z" />
    <glyph glyph-name="uogonek" unicode="&#x173;" horiz-adv-x="1394" 
d="M631 -14q-141 0 -246 52q-106 52 -166 160q-59 106 -59 271v625h256v-590q0 -148 66 -220q67 -73 190 -73q91 0 156 37q69 39 105 110q38 74 38 183v553h256v-1094h-244v295l43 -90q-55 -106 -162 -163q-105 -56 -233 -56zM1079 -467q-127 0 -196 60q-70 61 -70 159
q0 58 31 118q29 57 97 111q63 50 173 95l113 -76q-93 -42 -140 -76q-55 -39 -77 -74q-25 -39 -25 -77q0 -47 34 -74q35 -27 87 -27q31 0 68 10q36 10 57 23l43 -125q-37 -20 -90 -34q-49 -13 -105 -13z" />
    <glyph glyph-name="Wcircumflex" unicode="&#x174;" horiz-adv-x="2342" 
d="M530 0l-475 1434h277l424 -1297h-138l441 1297h246l428 -1297h-134l435 1297h254l-476 -1434h-282l-391 1169h73l-397 -1169h-285zM782 1550l275 281h233l275 -281h-211l-279 236h197l-279 -236h-211z" />
    <glyph glyph-name="wcircumflex" unicode="&#x175;" horiz-adv-x="1882" 
d="M410 0l-402 1094h242l344 -965h-115l361 965h215l350 -965h-113l355 965h227l-404 -1094h-245l-320 854h76l-326 -854h-245zM545 1239l274 281h234l274 -281h-211l-278 236h196l-278 -236h-211z" />
    <glyph glyph-name="Ycircumflex" unicode="&#x176;" horiz-adv-x="1353" 
d="M545 0v567l59 -164l-622 1031h284l500 -830h-160l504 830h262l-622 -1031l61 164v-567h-266zM287 1550l274 281h234l274 -281h-211l-278 236h196l-278 -236h-211z" />
    <glyph glyph-name="ycircumflex" unicode="&#x177;" horiz-adv-x="1183" 
d="M258 -412q-80 0 -160 27t-133 74l103 188q38 -34 88 -55t100 -21q69 0 113 35q42 33 80 117l63 143l20 31l414 967h246l-512 -1182q-51 -123 -114 -195t-139 -100q-78 -29 -169 -29zM483 -39l-493 1133h266l401 -944zM174 1243l275 281h233l274 -281h-211l-278 236h197
l-279 -236h-211z" />
    <glyph glyph-name="Ydieresis" unicode="&#x178;" horiz-adv-x="1353" 
d="M545 0v567l59 -164l-622 1031h284l500 -830h-160l504 830h262l-622 -1031l61 164v-567h-266zM877 1573q-52 0 -87 34q-36 34 -36 89q0 56 36 90q37 35 87 35t87 -35q35 -34 35 -90q0 -55 -35 -89t-87 -34zM479 1573q-52 0 -87 34q-36 34 -36 89q0 56 36 90q37 35 87 35
t87 -35q36 -34 36 -90q0 -54 -36 -89q-35 -34 -87 -34z" />
    <glyph glyph-name="Zacute" unicode="&#x179;" horiz-adv-x="1357" 
d="M84 0v178l926 1131l30 -101h-942v226h1182v-179l-926 -1130l-32 100h985v-225h-1223zM524 1550l277 281h301l-357 -281h-221z" />
    <glyph glyph-name="zacute" unicode="&#x17a;" horiz-adv-x="1089" 
d="M78 0v162l674 815l47 -88h-709v205h914v-162l-674 -815l-51 88h743v-205h-944zM377 1243l276 281h301l-356 -281h-221z" />
    <glyph glyph-name="Zdotaccent" unicode="&#x17b;" horiz-adv-x="1357" 
d="M84 0v178l926 1131l30 -101h-942v226h1182v-179l-926 -1130l-32 100h985v-225h-1223zM696 1575q-63 0 -104 41t-41 104q0 64 41 105t104 41q61 0 104 -41q42 -41 42 -105t-42 -104q-43 -41 -104 -41z" />
    <glyph glyph-name="zdotaccent" unicode="&#x17c;" horiz-adv-x="1089" 
d="M78 0v162l674 815l47 -88h-709v205h914v-162l-674 -815l-51 88h743v-205h-944zM549 1268q-64 0 -105 41t-41 104q0 64 41 105t105 41q60 0 103 -41q42 -40 42 -105q0 -63 -42 -104q-43 -41 -103 -41z" />
    <glyph glyph-name="Zcaron" unicode="&#x17d;" horiz-adv-x="1357" 
d="M84 0v178l926 1131l30 -101h-942v226h1182v-179l-926 -1130l-32 100h985v-225h-1223zM580 1550l-275 281h211l279 -234h-197l279 234h210l-274 -281h-233z" />
    <glyph glyph-name="zcaron" unicode="&#x17e;" horiz-adv-x="1089" 
d="M78 0v162l674 815l47 -88h-709v205h914v-162l-674 -815l-51 88h743v-205h-944zM432 1243l-274 281h211l278 -234h-196l278 234h211l-274 -281h-234z" />
    <glyph glyph-name="longs" unicode="&#x17f;" horiz-adv-x="653" 
d="M223 0v1155q0 173 102 276t291 103q70 0 126 -14q61 -15 104 -45l-72 -193q-28 22 -64 34q-33 11 -75 11q-75 0 -116 -44q-40 -43 -40 -132v-1151h-256zM45 881v204h307v-204h-307z" />
    <glyph glyph-name="uni018F" unicode="&#x18f;" horiz-adv-x="1673" 
d="M838 -20q-164 0 -299 55q-140 57 -238 155q-100 100 -156 238q-55 135 -55 301v66h1256v-209h-1076l86 121q0 -114 35 -208q34 -92 98 -159q61 -64 152 -101q89 -36 197 -36q106 0 196 35t152 100q63 66 96 156t33 202v33q0 104 -38 195q-36 87 -105 156q-67 67 -156 104
t-195 37q-75 0 -159 -19q-83 -19 -151 -55q-72 -38 -126 -94l-160 180q69 69 161 118q90 48 205 76q111 27 232 27q165 0 305 -54q139 -54 242 -154t158 -234t55 -293q0 -164 -55 -296q-57 -137 -157 -234q-102 -99 -236 -154t-297 -55z" />
    <glyph glyph-name="florin" unicode="&#x192;" horiz-adv-x="950" 
d="M51 -412q-70 0 -135 17q-63 17 -106 49l90 188q56 -43 139 -43q69 0 116 44q45 42 56 130l147 1182q21 173 132 276q110 103 294 103q66 0 130 -15q63 -15 104 -51l-92 -188q-25 20 -61 32q-32 11 -72 11q-77 0 -126 -44t-61 -130l-16 -121l-4 -115l-119 -946
q-21 -172 -130 -275q-110 -104 -286 -104zM143 854l25 205h727l-25 -205h-727z" />
    <glyph glyph-name="Ohorn" unicode="&#x1a0;" horiz-adv-x="1724" 
d="M864 -20q-169 0 -309 55q-142 56 -246 154t-162 235q-57 135 -57 293q0 160 57 295q56 133 163 234t249 154q144 54 313 54q126 0 211 -14q91 -15 172 -15q87 0 135 36t48 106q0 37 -13 69q-14 35 -28 58l155 57q29 -39 45 -88q17 -51 17 -104q0 -141 -97 -217t-272 -76
q-62 0 -139 8q-5 1 -135 16l325 39q100 -57 177 -149q73 -87 118 -210q43 -117 43 -253q0 -160 -57 -295t-162 -234q-103 -97 -245 -153q-140 -55 -306 -55zM862 213q111 0 201 37q96 39 160 105q67 69 105 161q38 93 38 201t-38 201q-37 91 -105 160q-66 67 -160 106
q-90 37 -201 37q-110 0 -200 -37q-94 -39 -160 -106q-70 -72 -106 -159q-38 -93 -38 -202q0 -108 38 -201q37 -91 106 -161q64 -66 160 -105q90 -37 200 -37z" />
    <glyph glyph-name="ohorn" unicode="&#x1a1;" horiz-adv-x="1320" 
d="M659 -14q-168 0 -299 72q-129 71 -206 200q-76 127 -76 289q0 165 76 290q76 126 207 197q132 72 303 72q53 0 92 -3q47 -4 74 -7q32 -4 77 -4q76 0 110 38t34 97q0 34 -13 68q-12 33 -30 59l155 57q27 -40 45 -88q19 -52 19 -104q0 -87 -41 -154q-40 -65 -117 -100
q-78 -35 -182 -35q-44 0 -77 4q-61 7 -79 10l160 121q160 -62 256 -198q96 -137 96 -320q0 -161 -75 -289q-76 -129 -206 -200q-132 -72 -303 -72zM659 205q92 0 166 41q73 40 117 119q43 77 43 182q0 107 -42 183q-43 78 -116 118q-74 41 -168 41q-91 0 -164 -41
q-72 -40 -116 -118q-43 -76 -43 -183q0 -105 43 -182q44 -78 116 -119q73 -41 164 -41z" />
    <glyph glyph-name="Uhorn" unicode="&#x1af;" horiz-adv-x="1638" 
d="M809 -20q-297 0 -462 165q-167 167 -167 480v809h266v-799q0 -220 96 -322q94 -100 269 -100q174 0 268 100q95 101 95 322v799h262v-809q0 -313 -167 -480q-165 -165 -460 -165zM1303 1251v183h43q65 0 95 36q32 38 32 95q0 36 -12 69q-14 38 -29 58l157 57
q29 -38 45 -86q17 -51 17 -107q0 -141 -82 -223t-226 -82h-40z" />
    <glyph glyph-name="uhorn" unicode="&#x1b0;" horiz-adv-x="1419" 
d="M631 -14q-141 0 -246 52q-106 52 -166 160q-59 106 -59 271v625h256v-590q0 -148 66 -220q67 -73 190 -73q91 0 156 37q69 39 105 110q38 74 38 183v553h256v-1094h-244v295l43 -90q-55 -106 -162 -163q-105 -56 -233 -56zM1061 911v183h43q65 0 95 36q32 38 32 95
q0 39 -11 69q-13 35 -30 58l158 57q29 -38 45 -86t16 -106q0 -142 -82 -224t-225 -82h-41z" />
    <glyph glyph-name="uni01B7" unicode="&#x1b7;" horiz-adv-x="1292" 
d="M612 -20q-160 0 -310 44q-148 44 -243 117l95 209q78 -65 199 -104q120 -39 251 -39q159 0 245 59q87 60 87 164q0 99 -82 157t-256 58h-135v178l446 488l25 -97h-817v220h1018v-179l-447 -487l-119 78h80q185 0 307 -52q123 -52 186 -147q62 -93 62 -217
q0 -121 -63 -223q-62 -101 -195 -165q-128 -62 -334 -62z" />
    <glyph glyph-name="uni01C4" unicode="&#x1c4;" horiz-adv-x="2973" 
d="M193 0v1434h626q233 0 410 -91q175 -90 274 -249t99 -377q0 -216 -99 -376q-100 -162 -274 -251q-175 -90 -410 -90h-626zM459 225h348q160 0 279 62t183 172t64 258q0 150 -64 259q-65 110 -183 171t-279 61h-348v-983zM1690 0v178l925 1131l31 -101h-942v226h1182v-179
l-926 -1130l-33 100h985v-225h-1222zM2185 1550l-274 281h211l278 -234h-196l278 234h211l-274 -281h-234z" />
    <glyph glyph-name="uni01C5" unicode="&#x1c5;" horiz-adv-x="2781" 
d="M193 0v1434h626q233 0 410 -91q175 -90 274 -249t99 -377q0 -216 -99 -376q-100 -162 -274 -251q-175 -90 -410 -90h-626zM459 225h348q160 0 279 62t183 172t64 258q0 150 -64 259q-65 110 -183 171t-279 61h-348v-983zM1769 0v162l674 815l47 -88h-708v205h913v-162
l-674 -815l-51 88h744v-205h-945zM2124 1243l-275 281h211l279 -234h-197l279 234h211l-275 -281h-233z" />
    <glyph glyph-name="uni01C6" unicode="&#x1c6;" horiz-adv-x="2500" 
d="M631 -14q-159 0 -284 70q-124 69 -197 196q-72 124 -72 295t72 295q73 126 197 194q128 70 284 70q138 0 246 -60q109 -60 172 -184q63 -123 63 -315t-61 -315t-170 -185q-107 -61 -250 -61zM662 205q91 0 164 41q74 42 117 119q44 79 44 182q0 106 -44 183t-117 118
t-164 41q-92 0 -165 -41t-117 -118t-44 -183q0 -103 44 -182q43 -77 117 -119q73 -41 165 -41zM993 0v258l11 291l-21 291v680h254v-1520h-244zM1473 0v162l673 815l47 -88h-708v205h913v-162l-674 -815l-51 88h744v-205h-944zM1827 1243l-275 281h211l279 -234h-197
l279 234h211l-275 -281h-233z" />
    <glyph glyph-name="uni01C7" unicode="&#x1c7;" horiz-adv-x="2306" 
d="M193 0v1434h266v-1209h749v-225h-1015zM1642 -20q-135 0 -252 53t-190 153l152 183q60 -83 130 -123q71 -41 154 -41q224 0 224 264v741h-510v224h776v-951q0 -255 -124 -379t-360 -124z" />
    <glyph glyph-name="uni01C8" unicode="&#x1c8;" horiz-adv-x="1830" 
d="M193 0v1434h266v-1209h749v-225h-1015zM1282 -412q-67 0 -136 16q-65 15 -110 48l74 190q59 -43 150 -43q69 0 108 44t39 130v1121h256v-1114q0 -181 -99 -286q-100 -106 -282 -106zM1534 1274q-72 0 -118 45t-46 108q0 67 46 110q47 44 118 44q72 0 118 -42t46 -105
q0 -68 -45 -114t-119 -46z" />
    <glyph glyph-name="uni01C9" unicode="&#x1c9;" horiz-adv-x="1196" 
d="M168 0v1520h256v-1520h-256zM647 -412q-67 0 -136 16q-65 15 -110 48l74 190q59 -43 150 -43q69 0 108 44t39 130v1121h256v-1114q0 -181 -99 -286q-100 -106 -282 -106zM899 1274q-71 0 -118 45q-46 45 -46 108q0 67 46 110q47 44 118 44t118 -42q46 -42 46 -105
q0 -68 -45 -114t-119 -46z" />
    <glyph glyph-name="uni01CA" unicode="&#x1ca;" horiz-adv-x="2738" 
d="M193 0v1434h219l899 -1104h-109v1104h264v-1434h-219l-899 1104h109v-1104h-264zM2075 -20q-136 0 -253 53t-190 153l152 183q60 -83 130 -123q71 -41 154 -41q224 0 224 264v741h-510v224h776v-951q0 -255 -124 -379t-359 -124z" />
    <glyph glyph-name="uni01CB" unicode="&#x1cb;" horiz-adv-x="2263" 
d="M193 0v1434h219l899 -1104h-109v1104h264v-1434h-219l-899 1104h109v-1104h-264zM1714 -412q-67 0 -136 16q-65 15 -110 48l74 190q59 -43 150 -43q69 0 108 44t39 130v1121h256v-1114q0 -181 -99 -286q-100 -106 -282 -106zM1966 1274q-72 0 -118 45t-46 108
q0 67 46 110q47 44 118 44q72 0 118 -42t46 -105q0 -68 -45 -114t-119 -46z" />
    <glyph glyph-name="uni01CC" unicode="&#x1cc;" horiz-adv-x="2007" 
d="M788 1106q132 0 235 -51q102 -50 163 -157q59 -103 59 -271v-627h-256v594q0 146 -68 217q-69 72 -192 72q-92 0 -160 -37q-69 -38 -107 -110q-38 -73 -38 -183v-553h-256v1094h244v-295l-43 90q56 103 167 161q108 56 252 56zM1458 -412q-67 0 -136 16q-65 15 -110 48
l74 190q59 -43 150 -43q69 0 108 44t39 130v1121h256v-1114q0 -181 -99 -286q-100 -106 -282 -106zM1710 1274q-72 0 -118 45t-46 108q0 67 46 110q47 44 118 44q72 0 118 -42t46 -105q0 -68 -45 -114t-119 -46z" />
    <glyph glyph-name="uni01CD" unicode="&#x1cd;" horiz-adv-x="1533" 
d="M-10 0l645 1434h262l647 -1434h-278l-555 1292h106l-553 -1292h-274zM287 332l71 209h775l71 -209h-917zM649 1550l-274 281h211l278 -234h-196l278 234h211l-274 -281h-234z" />
    <glyph glyph-name="uni01CE" unicode="&#x1ce;" horiz-adv-x="1243" 
d="M842 0v221l-15 47v387q0 112 -67 175t-205 63q-91 0 -181 -29q-89 -29 -151 -80l-100 187q86 66 210 101q120 34 253 34q236 0 367 -114q130 -114 130 -351v-641h-241zM498 -14q-124 0 -215 42q-95 44 -143 116q-50 76 -50 169q0 92 44 166q43 73 145 117q99 43 266 43
h317v-170h-299q-131 0 -176 -42t-45 -103q0 -71 55 -111q56 -41 154 -41q95 0 169 43t107 127l43 -154q-38 -97 -132 -149q-95 -53 -240 -53zM492 1243l-275 281h211l279 -234h-197l278 234h211l-274 -281h-233z" />
    <glyph glyph-name="uni01D3" unicode="&#x1d3;" horiz-adv-x="1615" 
d="M809 -20q-297 0 -462 165q-167 167 -167 480v809h266v-799q0 -220 96 -322q94 -100 269 -100q174 0 268 100q95 101 95 322v799h262v-809q0 -313 -167 -480q-165 -165 -460 -165zM694 1550l-274 281h211l278 -234h-196l278 234h211l-274 -281h-234z" />
    <glyph glyph-name="uni01D4" unicode="&#x1d4;" horiz-adv-x="1394" 
d="M631 -14q-141 0 -246 52q-106 52 -166 160q-59 106 -59 271v625h256v-590q0 -148 66 -220q67 -73 190 -73q91 0 156 37q69 39 105 110q38 74 38 183v553h256v-1094h-244v295l43 -90q-55 -106 -162 -163q-105 -56 -233 -56zM575 1243l-274 281h211l279 -234h-197l278 234
h211l-274 -281h-234z" />
    <glyph glyph-name="uni01E4" unicode="&#x1e4;" horiz-adv-x="1656" 
d="M811 399v195h801v-195h-801zM862 -20q-167 0 -308 54q-139 53 -245 153q-104 98 -162 235q-57 135 -57 295t57 295q56 133 163 234q106 100 247 154t309 54q184 0 329 -59q146 -60 247 -174l-168 -164q-83 83 -181 124q-96 40 -214 40q-114 0 -209 -37q-98 -38 -166 -105
q-72 -70 -108 -159q-38 -93 -38 -203q0 -108 38 -201q37 -90 108 -161q66 -66 164 -105q93 -37 209 -37q107 0 205 34q103 36 190 113l151 -198q-111 -89 -261 -136q-147 -46 -300 -46zM1171 197v536h252v-571z" />
    <glyph glyph-name="uni01E5" unicode="&#x1e5;" horiz-adv-x="1441" 
d="M662 -412q-153 0 -295 40q-147 41 -236 116l115 190q69 -57 180 -96q107 -37 223 -37q179 0 264 83q84 82 84 249v197l21 250l-8 247v267h243v-928q0 -295 -150 -436q-151 -142 -441 -142zM571 -102v153l813 2v-155h-813zM629 111q-162 0 -285 62q-127 64 -196 176
q-70 113 -70 261q0 149 70 259t196 174q125 63 285 63q137 0 249 -53q110 -52 179 -162q67 -107 67 -281q0 -173 -67 -283q-68 -111 -179 -164q-110 -52 -249 -52zM670 313q97 0 173 38q72 36 116 105q42 66 42 154t-42 154t-116 103q-76 38 -173 38q-96 0 -174 -38
q-76 -37 -118 -103t-42 -154t42 -154q44 -69 118 -105q78 -38 174 -38z" />
    <glyph glyph-name="Gcaron" unicode="&#x1e6;" horiz-adv-x="1581" 
d="M862 -20q-167 0 -308 54q-139 53 -245 153q-104 98 -162 235q-57 135 -57 295t57 295q56 133 163 234q106 100 247 154t309 54q184 0 329 -59q146 -60 247 -174l-168 -164q-83 83 -181 124q-96 40 -214 40q-114 0 -209 -37q-98 -38 -166 -105q-72 -70 -108 -159
q-38 -93 -38 -203q0 -108 38 -201q37 -90 108 -161q66 -66 164 -105q93 -37 209 -37q107 0 205 34q103 36 190 113l151 -198q-111 -89 -261 -136q-147 -46 -300 -46zM1171 197v536h252v-571zM731 1550l-274 281h211l278 -234h-196l278 234h211l-274 -281h-234z" />
    <glyph glyph-name="gcaron" unicode="&#x1e7;" horiz-adv-x="1421" 
d="M664 -412q-154 0 -296 40q-148 42 -237 116l115 193q72 -60 181 -96t222 -36q179 0 264 83q84 82 84 249v195l21 248l-8 247v267h243v-928q0 -296 -151 -437q-152 -141 -438 -141zM631 49q-154 0 -282 67q-126 66 -198 185q-73 120 -73 279q0 156 73 276q72 118 198 184
t282 66q140 0 250 -55q111 -56 177 -172q66 -117 66 -299t-66 -300t-177 -175q-109 -56 -250 -56zM670 266q96 0 172 40q74 39 117 111q42 70 42 163q0 92 -42 162q-43 73 -117 109q-78 38 -172 38q-95 0 -173 -38q-76 -37 -119 -109q-42 -70 -42 -162t42 -163
q42 -70 119 -111q76 -40 173 -40zM569 1243l-274 281h211l278 -234h-196l278 234h211l-274 -281h-234z" />
    <glyph glyph-name="uni01E8" unicode="&#x1e8;" horiz-adv-x="1492" 
d="M430 338l-14 315l751 781h299l-624 -664l-148 -162zM193 0v1434h266v-1434h-266zM1192 0l-549 653l176 195l684 -848h-311zM655 1550l-274 281h211l278 -234h-196l278 234h211l-274 -281h-234z" />
    <glyph glyph-name="uni01E9" unicode="&#x1e9;" horiz-adv-x="1302" 
d="M377 244l6 321l571 529h308l-486 -488l-135 -112zM168 0v1520h256v-1520h-256zM993 0l-399 494l162 204l549 -698h-312zM180 1669l-274 281h211l278 -234h-196l278 234h211l-274 -281h-234z" />
    <glyph glyph-name="uni01EA" unicode="&#x1ea;" horiz-adv-x="1724" 
d="M891 -467q-126 0 -195 60t-69 159q0 61 29 119t97 112q65 52 175 93l16 -92q-27 -2 -44 -3q-13 -1 -38 -1q-165 0 -306 54t-246 153q-106 100 -163 235t-57 295t57 295q56 133 163 234t246 154q141 54 306 54q167 0 308 -54q138 -53 245 -154q105 -99 162 -234t57 -295
q0 -184 -71 -326q-71 -143 -196 -239q-126 -97 -275 -140q-99 -28 -160 -63q-64 -36 -99 -82q-34 -44 -34 -94q0 -47 34 -74q35 -27 87 -27q30 0 67 10q36 10 57 23l43 -125q-37 -20 -90 -34q-49 -13 -106 -13zM862 213q111 0 201 37q96 39 160 105q67 69 105 161
q38 93 38 201q0 109 -38 202q-36 89 -105 159q-66 67 -160 106q-90 37 -201 37q-110 0 -200 -37q-94 -39 -160 -106q-70 -72 -106 -159q-38 -93 -38 -202q0 -108 38 -201q37 -91 106 -161q64 -66 160 -105q90 -37 200 -37z" />
    <glyph glyph-name="uni01EB" unicode="&#x1eb;" horiz-adv-x="1320" 
d="M721 -467q-126 0 -195 60t-69 155q0 62 28 121q29 60 95 113q68 54 170 92l18 -80q-25 -1 -58 -5q-26 -3 -51 -3q-168 0 -299 72q-129 71 -206 200q-76 127 -76 289q0 165 76 290t206 197q131 72 299 72q171 0 303 -72q131 -72 206 -197q75 -126 75 -290q0 -181 -93 -316
q-93 -134 -249 -202q-106 -44 -168 -89q-58 -42 -82 -85q-22 -40 -22 -80q0 -49 34 -76q35 -27 87 -27q28 0 66 10q36 9 58 23l41 -125q-36 -20 -88 -34q-49 -13 -106 -13zM659 205q94 0 168 41t116 119t42 182q0 107 -42 183q-43 78 -116 118q-74 41 -168 41
q-91 0 -164 -41q-72 -40 -116 -118q-43 -76 -43 -183q0 -105 43 -182q44 -78 116 -119q73 -41 164 -41z" />
    <glyph glyph-name="uni01EE" unicode="&#x1ee;" horiz-adv-x="1292" 
d="M612 -20q-160 0 -310 44q-148 44 -243 117l95 209q78 -65 199 -104q120 -39 251 -39q159 0 245 59q87 60 87 164q0 99 -82 157t-256 58h-135v178l446 488l25 -97h-817v220h1018v-179l-447 -487l-119 78h80q185 0 307 -52q123 -52 186 -147q62 -93 62 -217
q0 -121 -63 -223q-62 -101 -195 -165q-128 -62 -334 -62zM512 1550l-274 281h211l278 -234h-197l279 234h211l-275 -281h-233z" />
    <glyph glyph-name="uni01EF" unicode="&#x1ef;" horiz-adv-x="1107" 
d="M487 -412q-155 0 -296 45q-139 44 -230 123l94 211q76 -67 188 -108t234 -41q149 0 228 61t79 172q0 105 -74 167q-75 63 -237 63h-133v178l418 510l24 -97h-766v222h967v-181l-418 -510l-121 80h80q265 0 394 -119q131 -120 131 -313q0 -124 -62 -230
q-63 -107 -185 -169q-126 -64 -315 -64zM362 1243l-274 281h211l279 -234h-197l278 234h211l-274 -281h-234z" />
    <glyph glyph-name="Aringacute" unicode="&#x1fa;" horiz-adv-x="1533" 
d="M-10 0l645 1434h262l647 -1434h-278l-555 1292h106l-553 -1292h-274zM287 332l71 209h775l71 -209h-917zM764 1554q-68 0 -122 33q-56 34 -85 85q-31 54 -31 116q0 65 32 120q31 54 85 86q52 31 121 31q71 0 124 -31q55 -32 85 -86q31 -56 31 -120q0 -63 -31 -117
q-30 -53 -85 -85t-124 -32zM764 1659q57 0 94 37t37 92q0 58 -37 95q-38 38 -94 38q-54 0 -91 -37q-38 -38 -38 -96q0 -55 37 -92t92 -37zM944 1898l-129 44l232 237l131 -102z" />
    <glyph glyph-name="aringacute" unicode="&#x1fb;" horiz-adv-x="1243" 
d="M842 0v221l-15 47v387q0 112 -67 175t-205 63q-91 0 -181 -29q-89 -29 -151 -80l-100 187q86 66 210 101q120 34 253 34q236 0 367 -114q130 -114 130 -351v-641h-241zM498 -14q-124 0 -215 42q-95 44 -143 116q-50 76 -50 169q0 92 44 166q43 73 145 117q99 43 266 43
h317v-170h-299q-131 0 -176 -42t-45 -103q0 -71 55 -111q56 -41 154 -41q95 0 169 43t107 127l43 -154q-38 -97 -132 -149q-95 -53 -240 -53zM606 1214q-68 0 -122 33q-56 34 -85 85q-30 52 -30 116q0 67 31 120q31 54 85 86q53 32 121 32q69 0 124 -32t85 -86
q31 -56 31 -120q0 -63 -31 -117q-30 -53 -85 -85t-124 -32zM606 1319q57 0 94 37t37 92q0 58 -37 95q-38 38 -94 38q-54 0 -91 -37q-38 -38 -38 -96q0 -55 37 -92t92 -37zM786 1559l-129 43l232 237l131 -102z" />
    <glyph glyph-name="AEacute" unicode="&#x1fc;" horiz-adv-x="2177" 
d="M-10 0l831 1434h266v-224h-231l162 115l-754 -1325h-274zM383 332l8 209h696v-209h-704zM1243 838h713v-220h-715zM1264 223h809v-223h-1076v1434h1047v-224h-780v-987zM956 1550l277 281h301l-356 -281h-222z" />
    <glyph glyph-name="aeacute" unicode="&#x1fd;" horiz-adv-x="2033" 
d="M532 -14q-209 0 -325 94q-117 94 -117 244q0 85 44 156q43 70 145 114q99 43 266 43h315v-168h-297q-129 0 -175 -42t-46 -99q0 -75 56 -115q58 -41 157 -41q128 0 201 67q71 65 71 173v243q0 112 -67 175t-203 63q-93 0 -183 -29q-89 -29 -151 -80l-100 187
q86 66 210 101q120 34 251 34q185 0 301 -70q114 -69 155 -205l-120 9q68 125 193 195q127 71 286 71q119 0 220 -40q99 -39 177 -114q75 -72 118 -176q42 -102 42 -225q0 -31 -1 -45q-2 -25 -5 -37h-910v168h762l-94 -55q2 108 -43 176t-117 106q-71 37 -151 37t-151 -37
q-74 -39 -119 -108q-46 -71 -46 -181v-40q0 -99 45 -175q44 -75 126 -116t190 -41q93 0 164 28q70 28 133 91l139 -158q-77 -89 -189 -133q-114 -45 -253 -45q-127 0 -239 38q-113 38 -196 117t-133 207l154 -2q-28 -137 -106 -218q-77 -80 -178 -111q-100 -31 -206 -31z
M784 1243l277 281h301l-356 -281h-222z" />
    <glyph glyph-name="Oslashacute" unicode="&#x1fe;" horiz-adv-x="1724" 
d="M864 -20q-169 0 -309 55q-142 56 -246 154t-162 234q-57 133 -57 294q0 160 57 294t162 233q106 100 246 155t307 55q168 0 308 -55q138 -54 245 -155q105 -99 162 -233t57 -294t-57 -295t-162 -234q-103 -97 -245 -153q-140 -55 -306 -55zM862 213q111 0 201 37
q96 39 160 105q68 69 105 160q38 93 38 202t-38 202q-36 89 -105 159q-66 67 -160 106q-90 37 -201 37q-109 0 -199 -37q-91 -38 -160 -106q-71 -71 -107 -159q-38 -93 -38 -202q0 -108 38 -201q37 -91 106 -161q64 -66 160 -105q90 -37 200 -37zM154 -143l1228 1720h191
l-1229 -1720h-190zM690 1550l277 281h301l-357 -281h-221z" />
    <glyph glyph-name="oslashacute" unicode="&#x1ff;" horiz-adv-x="1320" 
d="M659 -14q-168 0 -299 72q-129 71 -206 200q-76 127 -76 289q0 165 76 290t206 197q131 72 299 72q171 0 303 -72q131 -71 206 -196q75 -124 75 -291q0 -161 -75 -289q-76 -129 -206 -200q-132 -72 -303 -72zM659 205q94 0 168 41t116 119t42 182q0 107 -42 183
q-43 78 -116 118q-74 41 -165 41q-94 0 -167 -41q-72 -40 -116 -118q-43 -76 -43 -183q0 -105 43 -182q44 -78 116 -119q73 -41 164 -41zM135 -145l901 1376h144l-901 -1376h-144zM481 1243l277 281h301l-357 -281h-221z" />
    <glyph glyph-name="uni0200" unicode="&#x200;" horiz-adv-x="1533" 
d="M-10 0l645 1434h262l647 -1434h-278l-555 1292h106l-553 -1292h-274zM287 332l71 209h775l71 -209h-917zM858 1550l-221 281h256l166 -281h-201zM473 1550l-219 281h256l164 -281h-201z" />
    <glyph glyph-name="uni0201" unicode="&#x201;" horiz-adv-x="1243" 
d="M842 0v221l-15 47v387q0 112 -67 175t-205 63q-91 0 -181 -29q-89 -29 -151 -80l-100 187q86 66 210 101q120 34 253 34q236 0 367 -114q130 -114 130 -351v-641h-241zM498 -14q-124 0 -215 42q-95 44 -143 116q-50 76 -50 169q0 92 44 166q43 73 145 117q99 43 266 43
h317v-170h-299q-131 0 -176 -42t-45 -103q0 -71 55 -111q56 -41 154 -41q95 0 169 43t107 127l43 -154q-38 -97 -132 -149q-95 -53 -240 -53zM700 1243l-221 281h256l166 -281h-201zM315 1243l-219 281h256l164 -281h-201z" />
    <glyph glyph-name="uni0202" unicode="&#x202;" horiz-adv-x="1533" 
d="M-10 0l645 1434h262l647 -1434h-278l-555 1292h106l-553 -1292h-274zM287 332l71 209h775l71 -209h-917zM412 1550q6 136 105 216q98 79 249 79t249 -79q99 -80 105 -216h-168q-1 72 -56 114q-54 42 -130 42t-129 -42t-57 -114h-168z" />
    <glyph glyph-name="uni0203" unicode="&#x203;" horiz-adv-x="1243" 
d="M842 0v221l-15 47v387q0 112 -67 175t-205 63q-91 0 -181 -29q-89 -29 -151 -80l-100 187q86 66 210 101q120 34 253 34q236 0 367 -114q130 -114 130 -351v-641h-241zM498 -14q-124 0 -215 42q-95 44 -143 116q-50 76 -50 169q0 92 44 166q43 73 145 117q99 43 266 43
h317v-170h-299q-131 0 -176 -42t-45 -103q0 -71 55 -111q56 -41 154 -41q95 0 169 43t107 127l43 -154q-38 -97 -132 -149q-95 -53 -240 -53zM254 1243q6 137 105 216q98 79 249 79t249 -79q100 -80 106 -216h-168q-1 71 -57 114q-54 42 -130 42t-129 -42t-57 -114h-168z
" />
    <glyph glyph-name="uni0204" unicode="&#x204;" horiz-adv-x="1372" 
d="M438 838h713v-220h-713v220zM459 223h809v-223h-1075v1434h1046v-224h-780v-987zM811 1550l-221 281h256l166 -281h-201zM426 1550l-219 281h256l164 -281h-201z" />
    <glyph glyph-name="uni0205" unicode="&#x205;" horiz-adv-x="1273" 
d="M682 -14q-182 0 -318 72q-135 71 -211 200q-75 127 -75 289t73 290q71 124 200 197q128 72 292 72q159 0 285 -70q124 -69 196 -196t72 -299q0 -23 -1 -37q-1 -21 -3 -39h-911v170h776l-101 -53q2 96 -38 166t-112 112q-71 41 -163 41q-94 0 -165 -41q-68 -39 -110 -114
q-40 -71 -40 -171v-40q0 -99 45 -175q44 -75 127 -116q84 -41 188 -41q94 0 166 28q73 28 131 91l137 -158q-73 -85 -185 -132q-110 -46 -255 -46zM729 1243l-221 281h256l166 -281h-201zM344 1243l-219 281h256l164 -281h-201z" />
    <glyph glyph-name="uni0206" unicode="&#x206;" horiz-adv-x="1372" 
d="M438 838h713v-220h-713v220zM459 223h809v-223h-1075v1434h1046v-224h-780v-987zM365 1550q6 136 105 216q98 79 249 79t249 -79q99 -80 105 -216h-168q-1 72 -56 114q-54 42 -130 42q-77 0 -129 -42q-54 -43 -58 -114h-167z" />
    <glyph glyph-name="uni0207" unicode="&#x207;" horiz-adv-x="1273" 
d="M682 -14q-182 0 -318 72q-135 71 -211 200q-75 127 -75 289t73 290q71 124 200 197q128 72 292 72q159 0 285 -70q124 -69 196 -196t72 -299q0 -23 -1 -37q-1 -21 -3 -39h-911v170h776l-101 -53q2 96 -38 166t-112 112q-71 41 -163 41q-94 0 -165 -41q-68 -39 -110 -114
q-40 -71 -40 -171v-40q0 -99 45 -175q44 -75 127 -116q84 -41 188 -41q94 0 166 28q73 28 131 91l137 -158q-73 -85 -185 -132q-110 -46 -255 -46zM283 1243q6 137 105 216q98 79 249 79t249 -79q99 -79 105 -216h-168q-1 72 -56 114q-54 42 -130 42q-77 0 -129 -42
t-57 -114h-168z" />
    <glyph glyph-name="uni0208" unicode="&#x208;" horiz-adv-x="653" 
d="M193 0v1434h266v-1434h-266zM418 1550l-221 281h256l165 -281h-200zM33 1550l-219 281h256l163 -281h-200z" />
    <glyph glyph-name="uni0209" unicode="&#x209;" horiz-adv-x="591" 
d="M168 0v1094h256v-1094h-256zM389 1243l-221 281h256l166 -281h-201zM4 1243l-219 281h256l164 -281h-201z" />
    <glyph glyph-name="uni020A" unicode="&#x20a;" horiz-adv-x="653" 
d="M193 0v1434h266v-1434h-266zM-29 1550q6 136 106 216q98 79 249 79q150 0 248 -79q100 -80 106 -216h-168q-1 72 -56 114q-54 42 -130 42t-129 -42q-54 -43 -58 -114h-168z" />
    <glyph glyph-name="uni020B" unicode="&#x20b;" horiz-adv-x="591" 
d="M168 0v1094h256v-1094h-256zM-6 1243q1 136 88 216q85 79 215 79t215 -79q87 -80 88 -216h-158q0 72 -39 114t-106 42q-68 0 -107 -42q-38 -41 -38 -114h-158z" />
    <glyph glyph-name="uni020C" unicode="&#x20c;" horiz-adv-x="1724" 
d="M864 -20q-169 0 -309 55q-142 56 -246 154t-162 234q-57 133 -57 294q0 160 57 294t162 233q106 100 246 155t307 55q168 0 308 -55q138 -54 245 -155q105 -99 162 -233t57 -294t-57 -295t-162 -234q-103 -97 -245 -153q-140 -55 -306 -55zM862 213q111 0 201 37
q96 39 160 105q68 69 105 160q38 93 38 202t-38 202q-36 89 -105 159q-66 67 -160 106q-90 37 -201 37q-109 0 -199 -37q-91 -38 -160 -106q-71 -71 -107 -159q-38 -93 -38 -202q0 -108 38 -201q37 -91 106 -161q64 -66 160 -105q90 -37 200 -37zM954 1550l-221 281h256
l166 -281h-201zM569 1550l-219 281h256l164 -281h-201z" />
    <glyph glyph-name="uni020D" unicode="&#x20d;" horiz-adv-x="1320" 
d="M659 -14q-168 0 -299 72q-129 71 -206 200q-76 127 -76 289q0 165 76 290t206 197q131 72 299 72q171 0 303 -72q131 -71 206 -196q75 -124 75 -291q0 -161 -75 -289q-76 -129 -206 -200q-132 -72 -303 -72zM659 205q94 0 168 41t116 119t42 182q0 107 -42 183
q-43 78 -116 118q-74 41 -165 41q-94 0 -167 -41q-72 -40 -116 -118q-43 -76 -43 -183q0 -105 43 -182q44 -78 116 -119q73 -41 164 -41zM750 1243l-222 281h256l166 -281h-200zM365 1243l-220 281h256l164 -281h-200z" />
    <glyph glyph-name="uni020E" unicode="&#x20e;" horiz-adv-x="1724" 
d="M864 -20q-169 0 -309 55q-142 56 -246 154t-162 234q-57 133 -57 294q0 160 57 294t162 233q106 100 246 155t307 55q168 0 308 -55q138 -54 245 -155q105 -99 162 -233t57 -294t-57 -295t-162 -234q-103 -97 -245 -153q-140 -55 -306 -55zM862 213q111 0 201 37
q96 39 160 105q68 69 105 160q38 93 38 202t-38 202q-36 89 -105 159q-66 67 -160 106q-90 37 -201 37q-109 0 -199 -37q-91 -38 -160 -106q-71 -71 -107 -159q-38 -93 -38 -202q0 -108 38 -201q37 -91 106 -161q64 -66 160 -105q90 -37 200 -37zM508 1550q6 136 105 216
q98 79 249 79t249 -79q100 -80 106 -216h-168q-1 71 -57 114q-54 42 -130 42t-129 -42t-57 -114h-168z" />
    <glyph glyph-name="uni020F" unicode="&#x20f;" horiz-adv-x="1320" 
d="M659 -14q-168 0 -299 72q-129 71 -206 200q-76 127 -76 289q0 165 76 290t206 197q131 72 299 72q171 0 303 -72q131 -71 206 -196q75 -124 75 -291q0 -161 -75 -289q-76 -129 -206 -200q-132 -72 -303 -72zM659 205q94 0 168 41t116 119t42 182q0 107 -42 183
q-43 78 -116 118q-74 41 -165 41q-94 0 -167 -41q-72 -40 -116 -118q-43 -76 -43 -183q0 -105 43 -182q44 -78 116 -119q73 -41 164 -41zM303 1243q6 136 106 216q98 79 248 79q151 0 249 -79q100 -80 106 -216h-168q-1 71 -57 114q-54 42 -130 42q-77 0 -129 -42t-57 -114
h-168z" />
    <glyph glyph-name="uni0210" unicode="&#x210;" horiz-adv-x="1497" 
d="M193 0v1434h589q189 0 327 -62q136 -61 210 -176t74 -272t-74 -272q-73 -114 -210 -174t-327 -60h-442l119 121v-539h-266zM1130 0l-362 520h285l364 -520h-287zM459 510l-119 127h430q177 0 265 76q89 77 89 211q0 137 -89 211q-88 73 -265 73h-430l119 131v-829z
M856 1550l-221 281h256l166 -281h-201zM471 1550l-219 281h256l164 -281h-201z" />
    <glyph glyph-name="uni0211" unicode="&#x211;" horiz-adv-x="860" 
d="M168 0v1094h244v-301l-29 88q49 111 155 168q105 57 263 57v-244q-11 3 -31 5q-10 1 -29 1q-146 0 -231 -85q-86 -86 -86 -253v-530h-256zM575 1243l-221 281h256l166 -281h-201zM190 1243l-219 281h256l164 -281h-201z" />
    <glyph glyph-name="uni0212" unicode="&#x212;" horiz-adv-x="1497" 
d="M193 0v1434h589q189 0 327 -62q136 -61 210 -176t74 -272t-74 -272q-73 -114 -210 -174t-327 -60h-442l119 121v-539h-266zM1130 0l-362 520h285l364 -520h-287zM459 510l-119 127h430q177 0 265 76q89 77 89 211q0 137 -89 211q-88 73 -265 73h-430l119 131v-829z
M410 1550q6 136 105 216q98 79 249 79t249 -79q99 -80 105 -216h-168q-1 72 -56 114q-54 42 -130 42t-129 -42t-57 -114h-168z" />
    <glyph glyph-name="uni0213" unicode="&#x213;" horiz-adv-x="860" 
d="M168 0v1094h244v-301l-29 88q49 111 155 168q105 57 263 57v-244q-11 3 -31 5q-10 1 -29 1q-146 0 -231 -85q-86 -86 -86 -253v-530h-256zM129 1243q6 136 106 216q98 79 248 79q151 0 249 -79q100 -80 106 -216h-168q-1 71 -57 114q-54 42 -130 42q-77 0 -129 -42
t-57 -114h-168z" />
    <glyph glyph-name="uni0214" unicode="&#x214;" horiz-adv-x="1615" 
d="M809 -20q-297 0 -462 165q-167 167 -167 480v809h266v-799q0 -220 96 -322q94 -100 269 -100q174 0 268 100q95 101 95 322v799h262v-809q0 -313 -167 -480q-165 -165 -460 -165zM903 1550l-221 281h256l166 -281h-201zM518 1550l-219 281h256l164 -281h-201z" />
    <glyph glyph-name="uni0215" unicode="&#x215;" horiz-adv-x="1394" 
d="M631 -14q-141 0 -246 52q-106 52 -166 160q-59 106 -59 271v625h256v-590q0 -148 66 -220q67 -73 190 -73q91 0 156 37q69 39 105 110q38 74 38 183v553h256v-1094h-244v295l43 -90q-55 -106 -162 -163q-105 -56 -233 -56zM784 1243l-221 281h256l166 -281h-201z
M399 1243l-219 281h256l164 -281h-201z" />
    <glyph glyph-name="uni0216" unicode="&#x216;" horiz-adv-x="1615" 
d="M809 -20q-297 0 -462 165q-167 167 -167 480v809h266v-799q0 -220 96 -322q94 -100 269 -100q174 0 268 100q95 101 95 322v799h262v-809q0 -313 -167 -480q-165 -165 -460 -165zM457 1550q6 136 105 216q98 79 249 79t249 -79q99 -80 105 -216h-168q-1 72 -56 114
q-54 42 -130 42q-77 0 -129 -42t-57 -114h-168z" />
    <glyph glyph-name="uni0217" unicode="&#x217;" horiz-adv-x="1394" 
d="M631 -14q-141 0 -246 52q-106 52 -166 160q-59 106 -59 271v625h256v-590q0 -148 66 -220q67 -73 190 -73q91 0 156 37q69 39 105 110q38 74 38 183v553h256v-1094h-244v295l43 -90q-55 -106 -162 -163q-105 -56 -233 -56zM338 1243q6 137 105 216q98 79 249 79t249 -79
q100 -80 106 -216h-168q-1 71 -57 114q-54 42 -130 42t-129 -42t-57 -114h-168z" />
    <glyph glyph-name="uni0218" unicode="&#x218;" horiz-adv-x="1288" 
d="M637 -20q-169 0 -322 48q-154 48 -243 124l92 206q84 -67 213 -112q127 -45 260 -45q113 0 182 24t103 67q32 41 32 95q0 65 -47 106q-43 38 -122 63q-68 22 -165 44q-92 21 -183 48q-85 25 -166 72q-73 42 -121 118t-48 188q0 116 63 214t190 156q126 58 325 58
q128 0 256 -33q127 -33 221 -94l-84 -207q-98 58 -199 85q-106 28 -196 28q-110 0 -179 -27q-71 -28 -101 -69q-31 -43 -31 -99q0 -65 46 -105q47 -41 121 -63q84 -25 166 -44q96 -22 184 -48q96 -28 166 -69q73 -42 120 -117q47 -74 47 -186q0 -114 -63 -212t-191 -156
t-326 -58zM563 -543l74 250l27 -92q-57 0 -91 29q-32 28 -32 77t33 78q36 31 90 31q56 0 90 -32q32 -31 32 -77q0 -25 -6 -53q-6 -31 -26 -67l-66 -144h-125z" />
    <glyph glyph-name="uni0219" unicode="&#x219;" horiz-adv-x="1054" 
d="M506 -14q-140 0 -263 35q-124 36 -200 88l98 194q77 -49 176 -78q102 -30 205 -30q123 0 175 32q55 34 55 88q0 45 -37 69q-38 24 -97 36q-51 10 -132 22q-79 12 -145 28q-77 19 -132 51q-58 33 -96 91q-37 56 -37 152q0 106 59 181q61 78 167 119q108 42 255 42
q106 0 223 -25q114 -24 187 -69l-99 -195q-80 48 -156 65q-75 17 -157 17q-115 0 -173 -35q-56 -34 -56 -88q0 -51 36 -74q35 -23 97 -38q60 -15 132 -24q64 -8 144 -28q70 -18 132 -50q60 -32 98 -89q36 -55 36 -149q0 -102 -60 -179q-58 -74 -171 -117q-111 -42 -264 -42z
M420 -543l74 250l26 -92q-56 0 -90 29q-33 28 -33 77q0 48 34 78q36 31 89 31q56 0 90 -32q33 -31 33 -77q0 -25 -6 -53t-27 -67l-65 -144h-125z" />
    <glyph glyph-name="uni021A" unicode="&#x21a;" horiz-adv-x="1232" 
d="M483 0v1208h-475v226h1217v-226h-475v-1208h-267zM516 -543l74 250l26 -92q-56 0 -90 29q-32 28 -32 77t33 78q36 31 89 31q57 0 91 -32q32 -31 32 -77q0 -25 -6 -53q-6 -31 -26 -67l-66 -144h-125z" />
    <glyph glyph-name="uni021B" unicode="&#x21b;" horiz-adv-x="868" 
d="M580 -14q-180 0 -279 93q-98 92 -98 275v981h256v-975q0 -77 40 -120t111 -43q87 0 144 45l71 -183q-45 -37 -110 -55q-66 -18 -135 -18zM23 881v204h729v-204h-729zM426 -543l74 250l26 -92q-56 0 -90 29q-33 28 -33 77q0 48 34 78q36 31 89 31q56 0 90 -32
q33 -31 33 -77q0 -25 -6 -53t-27 -67l-65 -144h-125z" />
    <glyph glyph-name="uni021E" unicode="&#x21e;" horiz-adv-x="1658" 
d="M1200 1434h266v-1434h-266v1434zM459 0h-266v1434h266v-1434zM1221 614h-785v228h785v-228zM713 1550l-275 281h211l279 -234h-197l279 234h211l-275 -281h-233z" />
    <glyph glyph-name="uni021F" unicode="&#x21f;" horiz-adv-x="1402" 
d="M788 1106q132 0 235 -51q102 -50 163 -157q59 -103 59 -271v-627h-256v594q0 146 -68 217q-69 72 -192 72q-92 0 -160 -37q-69 -38 -107 -110q-38 -73 -38 -183v-553h-256v1520h256v-721l-55 90q56 103 167 161q108 56 252 56zM180 1669l-274 281h211l278 -234h-196
l278 234h211l-274 -281h-234z" />
    <glyph glyph-name="uni022A" unicode="&#x22a;" horiz-adv-x="1724" 
d="M864 -20q-169 0 -309 55q-142 56 -246 154t-162 234q-57 133 -57 294q0 160 57 294t162 233q106 100 246 155t307 55q168 0 308 -55q138 -54 245 -155q105 -99 162 -233t57 -294t-57 -295t-162 -234q-103 -97 -245 -153q-140 -55 -306 -55zM862 213q111 0 201 37
q96 39 160 105q68 69 105 160q38 93 38 202t-38 202q-36 89 -105 159q-66 67 -160 106q-90 37 -201 37q-109 0 -199 -37q-91 -38 -160 -106q-71 -71 -107 -159q-38 -93 -38 -202q0 -108 38 -201q37 -91 106 -161q64 -66 160 -105q90 -37 200 -37zM1057 1573q-50 0 -84 34
q-35 35 -35 85t35 85q33 33 84 33q49 0 83 -33q36 -35 36 -85t-36 -85q-35 -34 -83 -34zM670 1573q-50 0 -84 34q-35 35 -35 85t35 85q33 33 84 33q52 0 85 -33t33 -85t-33 -85q-34 -34 -85 -34zM508 1901v143h709v-143h-709z" />
    <glyph glyph-name="uni022B" unicode="&#x22b;" horiz-adv-x="1320" 
d="M659 -14q-168 0 -299 72q-129 71 -206 200q-76 127 -76 289q0 165 76 290t206 197q131 72 299 72q171 0 303 -72q131 -71 206 -196q75 -124 75 -291q0 -161 -75 -289q-76 -129 -206 -200q-132 -72 -303 -72zM659 205q94 0 168 41t116 119t42 182q0 107 -42 183
q-43 78 -116 118q-74 41 -165 41q-94 0 -167 -41q-72 -40 -116 -118q-43 -76 -43 -183q0 -105 43 -182q44 -78 116 -119q73 -41 164 -41zM852 1266q-51 0 -84 33q-35 35 -35 85t35 85q34 34 84 34q48 0 83 -34q36 -35 36 -85t-36 -85q-34 -33 -83 -33zM465 1266
q-51 0 -84 33q-35 35 -35 85t35 85q34 34 84 34q51 0 85 -34t34 -85t-34 -85q-33 -33 -85 -33zM303 1593v144h709v-144h-709z" />
    <glyph glyph-name="uni022C" unicode="&#x22c;" horiz-adv-x="1724" 
d="M864 -20q-169 0 -309 55q-142 56 -246 154t-162 234q-57 133 -57 294q0 160 57 294t162 233q106 100 246 155t307 55q168 0 308 -55q138 -54 245 -155q105 -99 162 -233t57 -294t-57 -295t-162 -234q-103 -97 -245 -153q-140 -55 -306 -55zM862 213q111 0 201 37
q96 39 160 105q68 69 105 160q38 93 38 202t-38 202q-36 89 -105 159q-66 67 -160 106q-90 37 -201 37q-109 0 -199 -37q-91 -38 -160 -106q-71 -71 -107 -159q-38 -93 -38 -202q0 -108 38 -201q37 -91 106 -161q64 -66 160 -105q90 -37 200 -37zM1012 1552q-68 0 -119 28
q-40 22 -88 55q-40 28 -76 28q-45 0 -66 -27q-23 -29 -24 -71h-139q1 110 60 172q58 61 157 61q66 0 116 -28q45 -25 88 -54q39 -26 78 -26q44 0 66 25q24 27 25 71h135q-1 -106 -60 -171q-57 -63 -153 -63zM508 1901v143h709v-143h-709z" />
    <glyph glyph-name="uni022D" unicode="&#x22d;" horiz-adv-x="1320" 
d="M659 -14q-168 0 -299 72q-129 71 -206 200q-76 127 -76 289q0 165 76 290t206 197q131 72 299 72q171 0 303 -72q131 -71 206 -196q75 -124 75 -291q0 -161 -75 -289q-76 -129 -206 -200q-132 -72 -303 -72zM659 205q94 0 168 41t116 119t42 182q0 107 -42 183
q-43 78 -116 118q-74 41 -165 41q-94 0 -167 -41q-72 -40 -116 -118q-43 -76 -43 -183q0 -105 43 -182q44 -78 116 -119q73 -41 164 -41zM807 1245q-68 0 -119 28q-40 22 -88 55q-40 28 -76 28q-45 0 -66 -27q-23 -29 -24 -72h-139q2 112 60 173t157 61q66 0 116 -28
q45 -25 88 -54q40 -27 79 -27q42 0 65 26q24 27 25 71h135q-1 -107 -59 -171q-57 -63 -154 -63zM303 1593v144h709v-144h-709z" />
    <glyph glyph-name="uni0230" unicode="&#x230;" horiz-adv-x="1724" 
d="M864 -20q-169 0 -309 55q-142 56 -246 154t-162 234q-57 133 -57 294q0 160 57 294t162 233q106 100 246 155t307 55q168 0 308 -55q138 -54 245 -155q105 -99 162 -233t57 -294t-57 -295t-162 -234q-103 -97 -245 -153q-140 -55 -306 -55zM862 213q111 0 201 37
q96 39 160 105q68 69 105 160q38 93 38 202t-38 202q-36 89 -105 159q-66 67 -160 106q-90 37 -201 37q-109 0 -199 -37q-91 -38 -160 -106q-71 -71 -107 -159q-38 -93 -38 -202q0 -108 38 -201q37 -91 106 -161q64 -66 160 -105q90 -37 200 -37zM862 1571q-52 0 -87 34
q-36 35 -36 89t36 89q35 34 87 34t87 -34q36 -34 36 -89q0 -54 -36 -89q-35 -34 -87 -34zM508 1909v143h709v-143h-709z" />
    <glyph glyph-name="uni0231" unicode="&#x231;" horiz-adv-x="1320" 
d="M659 -14q-168 0 -299 72q-129 71 -206 200q-76 127 -76 289q0 165 76 290t206 197q131 72 299 72q171 0 303 -72q131 -71 206 -196q75 -124 75 -291q0 -161 -75 -289q-76 -129 -206 -200q-132 -72 -303 -72zM659 205q94 0 168 41t116 119t42 182q0 107 -42 183
q-43 78 -116 118q-74 41 -165 41q-94 0 -167 -41q-72 -40 -116 -118q-43 -76 -43 -183q0 -105 43 -182q44 -78 116 -119q73 -41 164 -41zM657 1264q-53 0 -87 33q-35 34 -35 89q0 56 35 90q34 33 87 33t87 -33q36 -34 36 -90q0 -54 -36 -89q-34 -33 -87 -33zM303 1602v143
h709v-143h-709z" />
    <glyph glyph-name="uni0232" unicode="&#x232;" horiz-adv-x="1353" 
d="M545 0v567l59 -164l-622 1031h284l500 -830h-160l504 830h262l-622 -1031l61 164v-567h-266zM324 1614v153h708v-153h-708z" />
    <glyph glyph-name="uni0233" unicode="&#x233;" horiz-adv-x="1183" 
d="M258 -412q-80 0 -160 27t-133 74l103 188q38 -34 88 -55t100 -21q69 0 113 35q42 33 80 117l63 143l20 31l414 967h246l-512 -1182q-51 -123 -114 -195t-139 -100q-78 -29 -169 -29zM483 -39l-493 1133h266l401 -944zM211 1307v153h709v-153h-709z" />
    <glyph glyph-name="uni0237" unicode="&#x237;" horiz-adv-x="604" 
d="M55 -412q-67 0 -136 16q-64 15 -109 48l73 190q59 -43 150 -43q69 0 108 44q39 43 39 130v1121h256v-1114q0 -181 -99 -286q-100 -106 -282 -106z" />
    <glyph glyph-name="uni0259" unicode="&#x259;" horiz-adv-x="1273" 
d="M592 1106q182 0 318 -72q137 -72 211 -197q75 -126 75 -290q0 -162 -73 -290q-73 -127 -201 -199q-129 -72 -291 -72q-161 0 -286 70q-126 70 -197 199q-70 127 -70 298q0 23 1 37q1 21 3 39h909v-170h-774l100 53q0 -94 40 -165q42 -74 111 -114q70 -40 163 -40t164 40
q69 39 111 115q40 73 40 170v41q0 100 -45 175q-45 76 -126 116q-82 41 -191 41q-91 0 -164 -29q-70 -28 -131 -90l-139 158q78 87 188 131q113 45 254 45z" />
    <glyph glyph-name="uni0292" unicode="&#x292;" horiz-adv-x="1107" 
d="M487 -412q-155 0 -296 45q-139 44 -230 123l94 211q76 -67 188 -108t234 -41q149 0 228 61t79 172q0 105 -74 167q-75 63 -237 63h-133v178l418 510l24 -97h-766v222h967v-181l-418 -510l-121 80h80q265 0 394 -119q131 -120 131 -313q0 -124 -62 -230
q-63 -107 -185 -169q-126 -64 -315 -64z" />
    <glyph glyph-name="uni02B9" unicode="&#x2b9;" horiz-adv-x="450" 
d="M131 866l-16 568h221l-19 -568h-186z" />
    <glyph glyph-name="uni02BA" unicode="&#x2ba;" horiz-adv-x="845" 
d="M131 866l-16 568h221l-19 -568h-186zM526 866l-16 568h221l-18 -568h-187z" />
    <glyph glyph-name="uni02BB" unicode="&#x2bb;" horiz-adv-x="573" 
d="M430 1815l-119 -455l-32 153q71 0 118 -45t47 -120t-47 -122q-46 -46 -116 -46q-74 0 -121 47t-47 121q0 25 3 46q4 25 13 52q11 32 29 78l108 291h164z" />
    <glyph glyph-name="uni02BC" unicode="&#x2bc;" horiz-adv-x="526" 
d="M113 899l118 455l35 -154q-72 0 -120 45t-48 121t48 122q47 46 118 46q72 0 119 -47t47 -121q0 -22 -3 -46q-3 -22 -12 -53t-30 -77l-106 -291h-166z" />
    <glyph glyph-name="uni02BE" unicode="&#x2be;" horiz-adv-x="1228" 
d="M612 1214v109q58 0 95 36q36 35 36 89q0 57 -37 93t-94 36v109q72 0 126 -33t86 -86t32 -119q0 -64 -32 -117q-32 -54 -86 -85q-55 -32 -126 -32z" />
    <glyph glyph-name="uni02BF" unicode="&#x2bf;" horiz-adv-x="1228" 
d="M612 1214q-69 0 -125 32q-55 31 -87 85q-31 52 -31 117q0 67 31 120q32 55 87 86q56 32 125 32v-109q-54 0 -91 -36q-38 -36 -38 -93q0 -53 37 -89q38 -36 92 -36v-109z" />
    <glyph glyph-name="circumflex" unicode="&#x2c6;" horiz-adv-x="1228" 
d="M223 1243l275 281h233l275 -281h-211l-279 236h197l-279 -236h-211z" />
    <glyph glyph-name="caron" unicode="&#x2c7;" horiz-adv-x="1228" 
d="M498 1243l-275 281h211l279 -234h-197l279 234h211l-275 -281h-233z" />
    <glyph glyph-name="uni02C8" unicode="&#x2c8;" horiz-adv-x="364" 
d="M96 1038v396h172v-396h-172z" />
    <glyph glyph-name="uni02C9" unicode="&#x2c9;" horiz-adv-x="1228" 
d="M260 1307v153h709v-153h-709z" />
    <glyph glyph-name="uni02CA" unicode="&#x2ca;" horiz-adv-x="1228" 
d="M442 1243l277 281h301l-356 -281h-222z" />
    <glyph glyph-name="uni02CB" unicode="&#x2cb;" horiz-adv-x="1228" 
d="M565 1243l-356 281h301l276 -281h-221z" />
    <glyph glyph-name="uni02CC" unicode="&#x2cc;" horiz-adv-x="368" 
d="M96 -459v398h176v-398h-176z" />
    <glyph glyph-name="breve" unicode="&#x2d8;" horiz-adv-x="1228" 
d="M614 1229q-148 0 -248 80t-106 215h168q5 -73 57 -113q53 -41 129 -41q75 0 130 41q56 42 57 113h168q-6 -135 -106 -215t-249 -80z" />
    <glyph glyph-name="dotaccent" unicode="&#x2d9;" horiz-adv-x="1228" 
d="M614 1268q-63 0 -104 41t-41 104q0 64 41 105t104 41q61 0 104 -41q42 -40 42 -105q0 -63 -42 -104q-43 -41 -104 -41z" />
    <glyph glyph-name="ring" unicode="&#x2da;" horiz-adv-x="1228" 
d="M612 1214q-68 0 -122 33t-84 85q-31 54 -31 116q0 65 32 120q31 54 85 86q53 32 120 32q69 0 124 -32t85 -86q31 -56 31 -120q0 -63 -31 -117q-30 -53 -85 -85t-124 -32zM612 1319q58 0 95 37q36 36 36 92q0 59 -36 95q-38 38 -95 38q-54 0 -91 -37q-38 -38 -38 -96
q0 -55 37 -92t92 -37z" />
    <glyph glyph-name="ogonek" unicode="&#x2db;" horiz-adv-x="1228" 
d="M469 -467q-128 0 -197 60t-69 159q0 60 30 118q29 56 98 111q63 50 173 95l112 -76q-90 -41 -139 -76q-56 -40 -78 -74q-24 -38 -24 -77q0 -47 34 -74q35 -27 87 -27q30 0 67 10q38 10 58 23l43 -125q-36 -19 -91 -34q-49 -13 -104 -13z" />
    <glyph glyph-name="tilde" unicode="&#x2dc;" horiz-adv-x="1228" 
d="M762 1243q-47 0 -89 20q-39 19 -72 47q-31 27 -60 48q-27 20 -58 20q-43 0 -69 -32t-31 -91h-137q5 129 62 201q59 74 159 74q49 0 90 -21q46 -24 73 -47q23 -20 60 -47q27 -20 55 -20q44 0 71 30q29 32 30 86h137q-2 -119 -61 -193q-60 -75 -160 -75z" />
    <glyph glyph-name="hungarumlaut" unicode="&#x2dd;" horiz-adv-x="1228" 
d="M707 1243l163 281h256l-219 -281h-200zM322 1243l165 281h256l-221 -281h-200z" />
    <glyph glyph-name="gravecomb" unicode="&#x300;" 
d="M565 1243l-356 281h301l276 -281h-221z" />
    <glyph glyph-name="acutecomb" unicode="&#x301;" 
d="M442 1243l277 281h301l-356 -281h-222z" />
    <glyph glyph-name="uni0302" unicode="&#x302;" 
d="M223 1243l275 281h233l275 -281h-211l-279 236h197l-279 -236h-211z" />
    <glyph glyph-name="tildecomb" unicode="&#x303;" 
d="M762 1243q-47 0 -89 20q-39 19 -72 47q-31 27 -60 48q-27 20 -58 20q-43 0 -69 -32t-31 -91h-137q5 129 62 201q59 74 159 74q49 0 90 -21q46 -24 73 -47q23 -20 60 -47q27 -20 55 -20q44 0 71 30q29 32 30 86h137q-2 -119 -61 -193q-60 -75 -160 -75z" />
    <glyph glyph-name="uni0304" unicode="&#x304;" 
d="M260 1307v153h709v-153h-709z" />
    <glyph glyph-name="uni0306" unicode="&#x306;" 
d="M614 1229q-148 0 -248 80t-106 215h168q5 -73 57 -113q53 -41 129 -41q75 0 130 41q56 42 57 113h168q-6 -135 -106 -215t-249 -80z" />
    <glyph glyph-name="uni0307" unicode="&#x307;" 
d="M614 1268q-63 0 -104 41t-41 104q0 64 41 105t104 41q61 0 104 -41q42 -40 42 -105q0 -63 -42 -104q-43 -41 -104 -41z" />
    <glyph glyph-name="uni0308" unicode="&#x308;" 
d="M813 1266q-53 0 -87 33q-36 35 -36 90t36 90q35 34 87 34t87 -34q36 -35 36 -90t-36 -90q-34 -33 -87 -33zM416 1266q-53 0 -87 33q-36 35 -36 90t36 90q35 34 87 34t87 -34q36 -35 36 -90t-36 -90q-34 -33 -87 -33z" />
    <glyph glyph-name="hookabovecomb" unicode="&#x309;" 
d="M666 1223l-84 94q59 28 85 60q25 31 25 71q0 41 -28 65q-30 25 -74 25q-63 0 -123 -39l-55 113q45 31 96 47t108 16q101 0 163 -56q63 -57 63 -149q0 -84 -43 -145q-44 -62 -133 -102z" />
    <glyph glyph-name="uni030A" unicode="&#x30a;" 
d="M612 1214q-68 0 -122 33t-84 85q-31 54 -31 116q0 65 32 120q31 54 85 86q53 32 120 32q69 0 124 -32t85 -86q31 -56 31 -120q0 -63 -31 -117q-30 -53 -85 -85t-124 -32zM612 1319q58 0 95 37q36 36 36 92q0 59 -36 95q-38 38 -95 38q-54 0 -91 -37q-38 -38 -38 -96
q0 -55 37 -92t92 -37z" />
    <glyph glyph-name="uni030B" unicode="&#x30b;" 
d="M707 1243l163 281h256l-219 -281h-200zM322 1243l165 281h256l-221 -281h-200z" />
    <glyph glyph-name="uni030C" unicode="&#x30c;" 
d="M498 1243l-275 281h211l279 -234h-197l279 234h211l-275 -281h-233z" />
    <glyph glyph-name="uni030F" unicode="&#x30f;" 
d="M707 1243l-222 281h256l166 -281h-200zM322 1243l-220 281h256l164 -281h-200z" />
    <glyph glyph-name="uni0311" unicode="&#x311;" 
d="M260 1243q6 136 106 216q98 79 248 79q151 0 249 -79q100 -80 106 -216h-168q-1 71 -57 114q-54 42 -130 42t-129 -42t-57 -114h-168z" />
    <glyph glyph-name="uni0312" unicode="&#x312;" 
d="M614 1229q-66 0 -102 31q-35 30 -35 77q0 22 8 51q7 25 29 66l84 188h141l-92 -290l-33 92q65 0 102 -29q36 -29 36 -78t-35 -79q-33 -29 -103 -29z" />
    <glyph glyph-name="uni031B" unicode="&#x31b;" 
d="M573 911v183h43q66 0 96 36q31 37 31 95q0 39 -11 69q-13 35 -30 58l158 57q29 -38 45 -86q17 -51 17 -106q0 -142 -82 -224t-226 -82h-41z" />
    <glyph glyph-name="dotbelowcomb" unicode="&#x323;" 
d="M614 -416q-51 0 -87 33q-35 32 -35 88t35 90q37 35 87 35t87 -35q36 -35 36 -90t-36 -88t-87 -33z" />
    <glyph glyph-name="uni0324" unicode="&#x324;" 
d="M801 -408q-49 0 -84 33t-35 86q0 50 35 85q34 34 84 34t84 -34q35 -35 35 -85q0 -53 -35 -86t-84 -33zM428 -408q-48 0 -83 33q-34 33 -34 86q0 51 34 85t83 34q50 0 85 -34q36 -34 36 -85q0 -53 -36 -86t-85 -33z" />
    <glyph glyph-name="uni0326" unicode="&#x326;" 
d="M514 -543l74 250l26 -92q-56 0 -90 29q-32 28 -32 77t33 78q36 31 89 31q57 0 91 -32q32 -31 32 -77q0 -25 -6 -53q-6 -31 -26 -67l-66 -144h-125z" />
    <glyph glyph-name="uni0327" unicode="&#x327;" 
d="M555 -467q-59 0 -102 11q-51 13 -86 32l47 121q38 -19 66 -25q37 -8 73 -8q60 0 84 21q25 22 25 53t-26 49t-83 18h-64l56 209h139l-29 -114q91 -11 135 -59q44 -49 44 -113q0 -91 -76 -143t-203 -52z" />
    <glyph glyph-name="uni0328" unicode="&#x328;" 
d="M469 -467q-128 0 -197 60t-69 159q0 60 30 118q29 56 98 111q63 50 173 95l112 -76q-90 -41 -139 -76q-56 -40 -78 -74q-24 -38 -24 -77q0 -47 34 -74q35 -27 87 -27q30 0 67 10q38 10 58 23l43 -125q-36 -19 -91 -34q-49 -13 -104 -13z" />
    <glyph glyph-name="uni032E" unicode="&#x32e;" 
d="M614 -436q-150 0 -248 76q-100 77 -106 202h160q0 -68 56 -106q57 -39 138 -39q82 0 139 39q56 38 56 106h160q-6 -125 -106 -202q-98 -76 -249 -76z" />
    <glyph glyph-name="uni0331" unicode="&#x331;" 
d="M260 -365v152h709v-152h-709z" />
    <glyph glyph-name="uni0335" unicode="&#x335;" 
d="M201 811v168h827v-168h-827z" />
    <glyph glyph-name="uni0336" unicode="&#x336;" 
d="M84 795v196h1677v-196h-1677z" />
    <glyph glyph-name="uni0337" unicode="&#x337;" 
d="M219 498l-106 143l602 457l104 -146z" />
    <glyph glyph-name="uni0338" unicode="&#x338;" 
d="M123 -143l901 1376h143l-901 -1376h-143z" />
    <glyph glyph-name="uni0394" unicode="&#x394;" horiz-adv-x="1533" 
d="M897 1434l647 -1434h-1554l645 1434h262zM299 96l-76 129h1080l-76 -129l-516 1198h106z" />
    <glyph glyph-name="uni03A9" unicode="&#x3a9;" horiz-adv-x="1830" 
d="M18 0v225h355q-105 93 -166 227q-60 132 -60 296q0 152 58 285q56 129 162 224q107 97 244 146q141 51 304 51q165 0 304 -51q138 -50 244 -146q107 -97 163 -224q57 -130 57 -285q0 -164 -60 -296q-60 -133 -165 -227h354v-225h-729v209q163 83 248 219q86 137 86 301
q0 112 -37 202q-37 91 -103 155q-67 65 -159 100q-93 35 -203 35q-109 0 -202 -35q-92 -35 -159 -100q-66 -64 -103 -155q-37 -90 -37 -202q0 -163 86 -302q86 -138 248 -218v-209h-730z" />
    <glyph glyph-name="uni03BC" unicode="&#x3bc;" horiz-adv-x="1404" 
d="M168 -397v1491h256v-590q0 -147 68 -220t190 -73q92 0 157 37q67 38 104 110q38 74 38 183v553h256v-1094h-240v293l41 -64q-30 -89 -88 -143q-57 -53 -127 -77q-66 -23 -139 -23q-109 0 -188 43q-81 44 -125 125l53 88v-639h-256z" />
    <glyph glyph-name="pi" unicode="&#x3c0;" horiz-adv-x="1486" 
d="M61 524q-41 51 -63 123q-23 74 -23 131q0 88 49 162q48 73 132 113q85 41 196 41h1114v-203h-1083q-87 0 -136 -36q-50 -36 -50 -118q0 -39 16 -78q17 -41 39 -75zM348 0l107 936h245l-106 -936h-246zM940 0v936h246v-936h-246z" />
    <glyph glyph-name="uni0400" unicode="&#x400;" horiz-adv-x="1372" 
d="M446 838h713v-220h-713v220zM467 223h809v-223h-1075v1434h1046v-224h-780v-987zM678 1550l-356 281h301l276 -281h-221z" />
    <glyph glyph-name="uni0401" unicode="&#x401;" horiz-adv-x="1372" 
d="M446 838h713v-220h-713v220zM467 223h809v-223h-1075v1434h1046v-224h-780v-987zM926 1573q-52 0 -87 34q-36 34 -36 89q0 56 36 90q37 35 87 35t87 -35q36 -34 36 -90q0 -54 -36 -89q-35 -34 -87 -34zM528 1573q-52 0 -87 34t-35 89q0 56 35 90q37 35 87 35t87 -35
q36 -34 36 -90q0 -54 -36 -89q-35 -34 -87 -34z" />
    <glyph glyph-name="uni0402" unicode="&#x402;" horiz-adv-x="1722" 
d="M506 0v1274l61 -66h-536v226h1265v-226h-589l63 66v-1274h-264zM995 4l29 217q58 -16 124 -14q63 2 119 25q54 23 90 71q34 46 34 123q0 93 -56 151q-54 56 -147 74q-94 19 -210 -2q-117 -21 -245 -78l-4 234q198 67 368 75q167 7 295 -40q123 -46 194 -150
q69 -102 69 -258q0 -142 -56 -236q-57 -95 -150 -144t-213 -61q-115 -12 -241 13z" />
    <glyph glyph-name="uni0403" unicode="&#x403;" horiz-adv-x="1198" 
d="M203 0v1434h973l-2 -226h-773l62 64l2 -1272h-262zM500 1550l276 281h301l-356 -281h-221z" />
    <glyph glyph-name="uni0404" unicode="&#x404;" horiz-adv-x="1456" 
d="M1014 811v-211h-740v211h740zM827 -20q-155 0 -289 54q-136 55 -234 153t-153 235q-55 138 -55 295t55 295q54 135 153 234q100 100 234 154q133 54 289 54q184 0 331 -61t247 -179l-168 -163q-81 87 -178 128q-99 42 -217 42q-104 0 -192 -38q-84 -36 -151 -105
q-64 -66 -99 -158q-33 -88 -33 -203t33 -203q35 -94 99 -159q66 -67 151 -104q88 -38 192 -38q118 0 217 42q97 41 178 128l168 -164q-99 -117 -247 -178q-147 -61 -331 -61z" />
    <glyph glyph-name="uni0405" unicode="&#x405;" horiz-adv-x="1320" 
d="M655 -20q-168 0 -321 48q-156 49 -244 124l92 206q84 -67 213 -112q127 -45 260 -45q114 0 183 24q68 24 102 67q33 42 33 95q0 65 -47 106q-43 38 -122 63q-65 21 -166 44q-87 20 -182 48q-85 25 -166 72q-75 43 -122 118q-47 74 -47 188q0 118 62 214q63 97 191 156
q126 58 324 58q128 0 256 -33q129 -33 222 -94l-84 -207q-98 58 -199 85q-106 28 -197 28q-110 0 -179 -27q-70 -27 -100 -69q-32 -44 -32 -99q0 -65 46 -105q47 -41 121 -63q80 -24 167 -44q91 -21 183 -48q96 -28 166 -69q74 -43 121 -117q46 -73 46 -186q0 -114 -63 -212
t-191 -156t-326 -58z" />
    <glyph glyph-name="uni0406" unicode="&#x406;" horiz-adv-x="667" 
d="M203 0v1434h262v-1434h-262z" />
    <glyph glyph-name="uni0407" unicode="&#x407;" horiz-adv-x="653" 
d="M193 0v1434h266v-1434h-266zM524 1573q-52 0 -87 34q-36 34 -36 89q0 56 36 90q37 35 87 35t88 -35q37 -34 37 -90q0 -55 -37 -89t-88 -34zM127 1573q-52 0 -87 34q-36 35 -36 89q0 56 36 90q37 35 87 35t88 -35q37 -34 37 -90q0 -55 -37 -89t-88 -34z" />
    <glyph glyph-name="uni0408" unicode="&#x408;" horiz-adv-x="1134" 
d="M473 -20q-136 0 -253 53q-116 53 -189 153l151 183q60 -83 130 -123q71 -41 155 -41q223 0 223 264v741h-510v224h776v-951q0 -256 -123 -379q-124 -124 -360 -124z" />
    <glyph glyph-name="uni0409" unicode="&#x409;" horiz-adv-x="2428" 
d="M174 -20q-36 0 -70 6q-13 2 -40.5 7.5t-34.5 6.5l18 231q30 -8 62 -8q86 0 137 71q50 69 73 208q24 144 31 338l21 594h1054v-1434h-262v1274l62 -66h-682l57 68l-14 -426q-6 -208 -29 -375q-22 -161 -69 -271q-48 -112 -121 -167q-77 -57 -193 -57zM1823 948
q255 0 395 -114q139 -114 139 -345q0 -241 -152 -365t-425 -124h-617v1434h262v-486h398zM1767 205q155 0 239 71q85 72 85 209q0 135 -84 198q-83 62 -240 62h-342v-540h342z" />
    <glyph glyph-name="uni040A" unicode="&#x40a;" horiz-adv-x="2408" 
d="M203 0v1434h262v-555h717v555h262v-1434h-262v653h-717v-653h-262zM1444 139l-62 66h396q142 0 218 63q77 63 77 178q0 116 -77 176q-76 60 -218 60h-396l62 68v-611zM1182 0v1434h262v-623l-62 76h455q239 0 373 -113q133 -112 133 -317q0 -218 -143 -337
q-144 -120 -396 -120h-622z" />
    <glyph glyph-name="uni040B" unicode="&#x40b;" horiz-adv-x="1738" 
d="M502 0v1274l63 -66h-536v226h1253v-226h-577l61 66v-1274h-264zM727 784q111 42 218 64q99 20 198 20q230 0 369 -122t139 -373v-373h-262v338q0 149 -82 224q-83 75 -224 75q-152 0 -352 -94z" />
    <glyph glyph-name="uni040C" unicode="&#x40c;" horiz-adv-x="1478" 
d="M1149 0l-485 698l215 133l571 -831h-301zM201 0v1434h262v-1434h-262zM383 604v230h483v-230h-483zM903 686l-244 33l490 715h283zM580 1550l276 281h301l-356 -281h-221z" />
    <glyph glyph-name="uni040D" unicode="&#x40d;" horiz-adv-x="1683" 
d="M203 0v1434h262v-1018l770 1018h248v-1434h-262v1016l-770 -1016h-248zM791 1550l-357 281h301l277 -281h-221z" />
    <glyph glyph-name="uni040E" unicode="&#x40e;" horiz-adv-x="1445" 
d="M221 225q111 -39 199 -20q85 18 153 125l70 108l27 29l499 967h263l-623 -1158q-77 -146 -180 -221q-104 -76 -225 -85q-120 -9 -248 46zM664 238l-639 1196h284l500 -992zM715 1530q-185 0 -278 78q-94 78 -95 219h186q1 -75 51 -117q49 -41 136 -41q88 0 138 41
q51 41 52 117h185q-1 -140 -97 -219q-95 -78 -278 -78z" />
    <glyph glyph-name="uni040F" unicode="&#x40f;" horiz-adv-x="1652" 
d="M1452 1434v-1434h-504v-315h-246v315h-499v1434h262v-1209h723v1209h264z" />
    <glyph glyph-name="uni0410" unicode="&#x410;" horiz-adv-x="1591" 
d="M18 0l646 1434h262l647 -1434h-279l-555 1292h107l-553 -1292h-275zM315 332l72 209h774l72 -209h-918z" />
    <glyph glyph-name="uni0411" unicode="&#x411;" horiz-adv-x="1505" 
d="M203 0v1434h1116v-220h-854v-352h424q260 0 392 -107q134 -108 134 -313q0 -211 -148 -326q-149 -116 -419 -116h-645zM465 205h369q155 0 233 59q80 60 80 172q0 221 -313 221h-369v-452z" />
    <glyph glyph-name="uni0412" unicode="&#x412;" horiz-adv-x="1527" 
d="M203 0v1434h641q240 0 377 -96q135 -94 135 -273q0 -177 -129 -271q-131 -96 -340 -96l37 74q240 0 370 -96q131 -96 131 -279q0 -187 -137 -292q-136 -105 -405 -105h-680zM465 205h409q140 0 211 52q72 52 72 161q0 110 -72 159q-73 50 -211 50h-409v-422zM465 821h356
q130 0 197 52t67 151q0 103 -67 154q-68 51 -197 51h-356v-408z" />
    <glyph glyph-name="uni0413" unicode="&#x413;" horiz-adv-x="1198" 
d="M203 0v1434h973l-2 -226h-773l62 64l2 -1272h-262z" />
    <glyph glyph-name="uni0414" unicode="&#x414;" horiz-adv-x="1671" 
d="M1153 123v1085h-561l-10 -254q-6 -143 -18 -271q-13 -134 -35 -232q-25 -108 -64 -175q-41 -70 -100 -92l-287 41q77 -4 128 54q51 59 79 159q28 98 43 241q13 124 20 300l17 455h1050v-1311h-262zM29 -305l2 530h1591v-530h-246v305h-1100v-305h-247z" />
    <glyph glyph-name="uni0415" unicode="&#x415;" horiz-adv-x="1372" 
d="M446 838h713v-220h-713v220zM467 223h809v-223h-1075v1434h1046v-224h-780v-987z" />
    <glyph glyph-name="uni0416" unicode="&#x416;" horiz-adv-x="2154" 
d="M1815 0l-418 698l225 133l500 -831h-307zM1130 604v230h433v-230h-433zM1636 686l-247 33l419 715h283zM340 0h-307l499 831l228 -133zM1208 0h-260v1434h260v-1434zM1026 604h-434v230h434v-230zM520 686l-457 748h283l418 -715z" />
    <glyph glyph-name="uni0417" unicode="&#x417;" horiz-adv-x="1329" 
d="M59 141l86 195q89 -61 202 -97q109 -34 218 -36q114 -2 198 24q89 27 142 80t53 133q0 98 -78 145q-80 48 -214 48h-334v209h313q123 0 188 49q66 49 66 133q0 69 -44 115q-43 44 -119 67q-78 23 -168 22t-193 -29q-97 -26 -191 -81l-84 215q136 73 284 101
q147 28 288 16q137 -12 251 -64q111 -51 179 -134q67 -82 67 -195q0 -101 -54 -181q-53 -78 -148 -122q-93 -43 -219 -43l10 65q142 0 247 -48q104 -48 163 -132q59 -85 59 -195q0 -103 -53 -185q-51 -79 -146 -135q-92 -54 -211 -80q-117 -25 -250 -19q-131 6 -261 45
q-134 40 -247 114z" />
    <glyph glyph-name="uni0418" unicode="&#x418;" horiz-adv-x="1683" 
d="M203 0v1434h262v-1018l770 1018h248v-1434h-262v1016l-770 -1016h-248z" />
    <glyph glyph-name="uni0419" unicode="&#x419;" horiz-adv-x="1683" 
d="M203 0v1434h262v-1018l770 1018h248v-1434h-262v1016l-770 -1016h-248zM840 1530q-185 0 -278 78q-94 78 -95 219h186q1 -76 50 -117t137 -41t138 41q51 41 52 117h184q-2 -141 -96 -219t-278 -78z" />
    <glyph glyph-name="uni041A" unicode="&#x41a;" horiz-adv-x="1478" 
d="M1149 0l-485 698l215 133l571 -831h-301zM201 0v1434h262v-1434h-262zM383 604v230h483v-230h-483zM903 686l-244 33l490 715h283z" />
    <glyph glyph-name="uni041B" unicode="&#x41b;" horiz-adv-x="1628" 
d="M174 -20q-36 0 -70 6q-13 2 -40.5 7.5t-34.5 6.5l18 231q30 -8 62 -8q86 0 137 71q50 69 73 208q24 144 31 338l21 594h1054v-1434h-262v1274l62 -66h-682l57 68l-14 -426q-6 -208 -29 -375q-22 -161 -69 -271q-48 -112 -121 -167q-77 -57 -193 -57z" />
    <glyph glyph-name="uni041C" unicode="&#x41c;" horiz-adv-x="1972" 
d="M203 0v1434h217l629 -1047h-117l618 1047h217l5 -1434h-254l-2 1038h53l-525 -874h-118l-533 874h62v-1038h-252z" />
    <glyph glyph-name="uni041D" unicode="&#x41d;" horiz-adv-x="1675" 
d="M1208 1434h267v-1434h-267v1434zM467 0h-266v1434h266v-1434zM1229 614h-785v228h785v-228z" />
    <glyph glyph-name="uni041E" unicode="&#x41e;" horiz-adv-x="1730" 
d="M866 -20q-169 0 -309 55q-142 56 -246 154q-102 96 -161 234q-58 136 -58 294t58 294t161 233q106 100 246 155t307 55q168 0 308 -55q138 -54 245 -155q105 -99 162 -233t57 -294t-57 -295t-162 -234q-103 -97 -245 -153q-140 -55 -306 -55zM864 213q111 0 201 37
q96 39 160 105q68 69 105 160q38 93 38 202t-38 202q-36 89 -105 159q-66 67 -160 106q-90 37 -201 37q-109 0 -199 -37q-91 -38 -160 -106q-71 -71 -107 -159q-38 -93 -38 -202q0 -108 38 -201q37 -91 106 -161q64 -66 160 -105q90 -37 200 -37z" />
    <glyph glyph-name="uni041F" unicode="&#x41f;" horiz-adv-x="1673" 
d="M203 0v1434h1267v-1434h-262v1274l62 -66h-867l62 66v-1274h-262z" />
    <glyph glyph-name="uni0420" unicode="&#x420;" horiz-adv-x="1472" 
d="M201 0v1434h590q188 0 326 -62q136 -61 210 -176t74 -272q0 -158 -74 -273t-210 -176q-135 -61 -326 -61h-443l119 125v-539h-266zM467 510l-119 129h430q176 0 265 75q90 76 90 210q0 136 -90 211q-88 73 -265 73h-430l119 131v-829z" />
    <glyph glyph-name="uni0421" unicode="&#x421;" horiz-adv-x="1476" 
d="M860 -20q-163 0 -304 54q-140 54 -244 153q-102 98 -160 235t-58 295t58 295t161 234q107 101 244 154q139 54 305 54q176 0 322 -60q144 -59 246 -180l-173 -161q-78 84 -174 126t-209 42t-205 -37q-93 -38 -162 -105q-70 -68 -107 -159q-37 -90 -37 -203t37 -203
q38 -92 107 -160q67 -66 162 -104q92 -37 205 -37t209 42q95 42 174 128l173 -164q-100 -116 -246 -178q-144 -61 -324 -61z" />
    <glyph glyph-name="uni0422" unicode="&#x422;" horiz-adv-x="1269" 
d="M502 0v1274l63 -66h-536v226h1212v-226h-536l61 66v-1274h-264z" />
    <glyph glyph-name="uni0423" unicode="&#x423;" horiz-adv-x="1445" 
d="M221 225q111 -39 199 -20q85 18 153 125l70 108l27 29l499 967h263l-623 -1158q-77 -146 -180 -221q-104 -76 -225 -85q-120 -9 -248 46zM664 238l-639 1196h284l500 -992z" />
    <glyph glyph-name="uni0424" unicode="&#x424;" horiz-adv-x="1918" 
d="M930 92q-270 0 -460 74t-290 214t-100 339q0 203 100 342t290 213t460 74h19h31h17q267 0 457 -74q188 -73 287 -214q98 -140 98 -341q0 -198 -97 -338q-98 -142 -283 -215q-187 -74 -451 -74h-22h-35h-21zM956 299h13h10q197 1 333 49q132 46 202 140q69 93 69 233
q0 138 -70 231q-71 94 -202 140q-135 47 -328 47h-12h-15q-204 0 -341 -46q-136 -46 -206 -140q-69 -93 -69 -234t73 -235q71 -92 210 -139q135 -46 333 -46zM838 -57v1548h245v-1548h-245z" />
    <glyph glyph-name="uni0425" unicode="&#x425;" horiz-adv-x="1417" 
d="M59 1434h308l338 -480l337 480h312l-482 -689l521 -745h-316l-372 522l-371 -522h-307l518 735z" />
    <glyph glyph-name="uni0426" unicode="&#x426;" horiz-adv-x="1708" 
d="M203 0v1434h262v-1209h723v1209h264v-1434h-1249zM1419 -315v381l60 -66h-291v225h477v-540h-246z" />
    <glyph glyph-name="uni0427" unicode="&#x427;" horiz-adv-x="1519" 
d="M1096 557q-117 -49 -219 -70q-104 -22 -207 -22q-274 0 -423 132t-149 380v457h264v-428q0 -152 89 -232t251 -80q97 0 198 23q102 23 192 69zM1055 0v1434h264v-1434h-264z" />
    <glyph glyph-name="uni0428" unicode="&#x428;" horiz-adv-x="2246" 
d="M1053 225l-60 -65v1274h262v-1274l-63 65h653l-63 -65v1274h262v-1434h-1841v1434h262v-1274l-62 65h650z" />
    <glyph glyph-name="uni0429" unicode="&#x429;" horiz-adv-x="2304" 
d="M1053 225l-60 -65v1274h262v-1274l-63 65h653l-63 -65v1274h262v-1434h-1841v1434h262v-1274l-62 65h650zM2005 -305v371l63 -66h-292v225h475v-530h-246z" />
    <glyph glyph-name="uni042A" unicode="&#x42a;" horiz-adv-x="1712" 
d="M1108 948q256 0 395 -114t139 -345q0 -241 -152 -365t-427 -124h-614v1208h-420v226h682v-486h397zM1053 205q154 0 237 71q84 72 84 209q0 135 -83 198q-81 62 -238 62h-342v-540h342z" />
    <glyph glyph-name="uni042B" unicode="&#x42b;" horiz-adv-x="2068" 
d="M862 948q256 0 395 -114q140 -114 140 -345q0 -241 -153 -365q-152 -124 -425 -124h-616v1434h262v-486h397zM807 205q155 0 239 71t84 209q0 136 -83 198t-240 62h-342v-540h342zM1604 0v1434h262v-1434h-262z" />
    <glyph glyph-name="uni042C" unicode="&#x42c;" horiz-adv-x="1468" 
d="M862 948q256 0 395 -114q140 -114 140 -345q0 -241 -153 -365q-152 -124 -425 -124h-616v1434h262v-486h397zM807 205q155 0 239 71t84 209q0 136 -83 198t-240 62h-342v-540h342z" />
    <glyph glyph-name="uni042D" unicode="&#x42d;" horiz-adv-x="1454" 
d="M440 623v211h740v-211h-740zM627 1454q157 0 291 -54q131 -53 232 -154t154 -234q54 -135 54 -295t-54 -295t-154 -235q-99 -99 -232 -153q-134 -54 -291 -54q-184 0 -331 61q-148 61 -247 178l168 164q80 -86 179 -128t216 -42q101 0 191 38q87 37 151 104q65 68 99 159
q34 90 34 203t-34 203t-99 158q-66 69 -151 105q-90 38 -191 38q-117 0 -216 -42t-179 -128l-168 163q100 118 247 179t331 61z" />
    <glyph glyph-name="uni042E" unicode="&#x42e;" horiz-adv-x="2265" 
d="M203 0v1434h262v-588h371v-238h-371v-608h-262zM1427 -20q-160 0 -294 55q-138 57 -236 153q-100 98 -157 234q-56 133 -56 295t56 295q57 134 157 233q99 98 236 154q134 55 294 55q159 0 294 -55q137 -56 237 -154q101 -100 156 -233q55 -134 55 -295t-55 -295
q-56 -135 -156 -234q-98 -96 -237 -153q-135 -55 -294 -55zM1427 213q102 0 188 37q89 38 150 104q65 69 100 159q36 91 36 204t-36 204q-35 88 -100 158q-63 67 -150 105q-86 37 -188 37t-186 -37q-85 -38 -150 -105q-66 -69 -101 -158q-36 -91 -36 -204t36 -204t101 -159
q63 -66 150 -104q84 -37 186 -37z" />
    <glyph glyph-name="uni042F" unicode="&#x42f;" horiz-adv-x="1499" 
d="M1034 0v459l66 -60h-420q-177 0 -310 61q-131 60 -200 174q-70 116 -70 273q0 165 74 284q72 116 209 180q135 63 317 63h596v-1434h-262zM104 0l355 512h268l-342 -512h-281zM1034 545v737l66 -74h-391q-165 0 -251 -74q-87 -75 -87 -223q0 -141 83 -218t244 -77h402z
" />
    <glyph glyph-name="uni0430" unicode="&#x430;" horiz-adv-x="1222" 
d="M836 0v221l-15 47v387q0 112 -67 175q-68 63 -205 63q-91 0 -181 -29q-89 -29 -151 -80l-100 187q86 66 210 101q120 34 253 34q236 0 367 -114q130 -114 130 -351v-641h-241zM492 -14q-125 0 -216 42q-94 43 -142 116q-50 76 -50 169q0 92 44 166q44 73 144 117
q99 43 267 43h317v-170h-299q-131 0 -176 -42t-45 -103q0 -71 55 -111q56 -41 154 -41q95 0 169 43t107 127l43 -154q-38 -97 -132 -149q-95 -53 -240 -53z" />
    <glyph glyph-name="uni0431" unicode="&#x431;" horiz-adv-x="1366" 
d="M694 -20q-136 0 -241 40q-108 41 -184 126q-77 86 -117 216q-41 132 -41 312q0 133 22 239q23 108 68 196q47 90 113 155q67 66 161 112q95 47 209 70l508 108l37 -229l-461 -94q-21 -4 -93 -24q-54 -15 -111 -45q-55 -29 -104 -84q-48 -54 -78 -139t-30 -212
q0 -39 3 -58q2 -13 6 -41t4 -63l-97 101q39 101 114 179q69 72 170 114q96 40 212 40q154 0 272 -63q119 -63 187 -178q67 -113 67 -260q0 -153 -73 -269t-208 -183q-133 -66 -315 -66zM715 186q93 0 163 40q69 39 110 110q40 68 40 156q0 86 -40 150q-41 65 -110 103
q-71 39 -167 39t-165 -36q-73 -38 -113 -102t-40 -148q0 -85 41 -158q40 -71 114 -113q73 -41 167 -41z" />
    <glyph glyph-name="uni0432" unicode="&#x432;" horiz-adv-x="1267" 
d="M172 0v1094h535q197 0 312 -74q114 -74 114 -209q0 -133 -107 -208q-106 -75 -283 -75l31 64q197 0 296 -73q97 -72 97 -212q0 -145 -108 -226t-330 -81h-557zM416 186h293q105 0 157 34q54 35 54 104q0 73 -50 108t-153 35h-301v-281zM416 637h268q100 0 149 36
q50 36 50 101q0 67 -50 100t-149 33h-268v-270z" />
    <glyph glyph-name="uni0433" unicode="&#x433;" horiz-adv-x="1026" 
d="M172 0v1094h840v-217h-643l59 57v-934h-256z" />
    <glyph glyph-name="uni0434" unicode="&#x434;" horiz-adv-x="1396" 
d="M922 119v758h-420l-6 -177q-3 -67 -13 -181q-7 -85 -26 -160q-17 -70 -54 -119q-35 -47 -92 -62l-254 39q63 0 100 40q38 41 59 111q22 74 32 161q9 77 14 190l14 375h902v-975h-256zM18 -244v461h1321v-461h-239v244h-844v-244h-238z" />
    <glyph glyph-name="uni0435" unicode="&#x435;" horiz-adv-x="1304" 
d="M682 -14q-182 0 -318 72q-135 71 -211 200q-75 127 -75 289t73 290q71 124 200 197q128 72 292 72q159 0 285 -70q124 -69 196 -196t72 -299q0 -23 -1 -37q-1 -21 -3 -39h-911v170h776l-101 -53q2 96 -38 166t-112 112q-71 41 -163 41q-94 0 -165 -41q-68 -39 -110 -114
q-40 -71 -40 -171v-40q0 -99 45 -175q44 -75 127 -116q84 -41 188 -41q94 0 166 28q73 28 131 91l137 -158q-73 -85 -185 -132q-110 -46 -255 -46z" />
    <glyph glyph-name="uni0436" unicode="&#x436;" horiz-adv-x="1800" 
d="M1477 0l-320 524l209 129l416 -653h-305zM950 438v213h367v-213h-367zM1391 516l-242 29l332 549h272zM322 0h-304l414 653l209 -129zM1026 0h-254v1094h254v-1094zM848 438h-365v213h365v-213zM408 516l-363 578h272l330 -549z" />
    <glyph glyph-name="uni0437" unicode="&#x437;" horiz-adv-x="1132" 
d="M518 -18q152 0 269 43q120 44 186 119q67 76 67 178q0 126 -104 197q-106 73 -287 73l-8 -55q108 0 189 34q84 35 132 98t48 140q0 94 -68 164q-67 69 -184 106q-116 37 -266 31q-95 -1 -198 -28q-99 -26 -204 -72l66 -189q90 39 177 60q83 20 169 20q78 0 133 -15
t85 -45t30 -69q0 -37 -25 -67q-23 -28 -71 -43q-46 -15 -111 -15h-191v-172h211q105 0 161 -34t56 -99q0 -46 -34 -80t-95 -52q-58 -17 -147 -17q-100 0 -201 24q-97 23 -180 70l-72 -191q98 -55 220 -85q117 -29 247 -29z" />
    <glyph glyph-name="uni0438" unicode="&#x438;" horiz-adv-x="1437" 
d="M172 0v1094h256v-721l604 721h234v-1094h-256v721l-602 -721h-236z" />
    <glyph glyph-name="uni0439" unicode="&#x439;" horiz-adv-x="1437" 
d="M172 0v1094h256v-721l604 721h234v-1094h-256v721l-602 -721h-236zM702 1223q-163 0 -251 76q-89 77 -91 225h170q1 -71 47 -117q43 -43 123 -43q78 0 124 43t48 117h175q-1 -147 -92 -225q-88 -76 -253 -76z" />
    <glyph glyph-name="uni043A" unicode="&#x43a;" horiz-adv-x="1265" 
d="M956 0l-395 524l209 129l487 -653h-301zM172 0v1094h256v-1094h-256zM352 438v213h371v-213h-371zM795 516l-240 29l401 549h275z" />
    <glyph glyph-name="uni043B" unicode="&#x43b;" horiz-adv-x="1335" 
d="M12 2l13 215q6 -1 14.5 -2.5t11.5 -1.5q16 -2 23 -2q64 0 98 39q34 38 52 105q17 63 25 150q5 55 11 167l19 422h884v-1094h-256v946l60 -69h-521l56 71l-15 -289q-6 -154 -23 -269q-19 -129 -53 -216q-36 -92 -99 -143t-158 -51q-31 0 -67 6q-41 7 -75 16z" />
    <glyph glyph-name="uni043C" unicode="&#x43c;" horiz-adv-x="1650" 
d="M172 0v1094h268l441 -777h-107l463 777h240l2 -1094h-232v819l41 -26l-409 -678h-111l-412 696l50 12v-823h-234z" />
    <glyph glyph-name="uni043D" unicode="&#x43d;" horiz-adv-x="1406" 
d="M172 0v1094h256v-445h551v445h256v-1094h-256v432h-551v-432h-256z" />
    <glyph glyph-name="uni043E" unicode="&#x43e;" horiz-adv-x="1323" 
d="M659 -14q-168 0 -299 72q-129 71 -206 200q-76 127 -76 289q0 165 76 290t206 197q131 72 299 72q171 0 303 -72q131 -71 206 -196q75 -124 75 -291q0 -161 -75 -289q-76 -129 -206 -200q-132 -72 -303 -72zM659 205q94 0 168 41t116 119t42 182q0 107 -42 183
q-43 78 -116 118q-74 41 -165 41q-94 0 -167 -41q-72 -40 -116 -118q-43 -76 -43 -183q0 -105 43 -182q44 -78 116 -119q73 -41 164 -41z" />
    <glyph glyph-name="uni043F" unicode="&#x43f;" horiz-adv-x="1394" 
d="M172 0v1094h1049v-1094h-254v936l59 -59h-657l59 59v-936h-256z" />
    <glyph glyph-name="uni0440" unicode="&#x440;" horiz-adv-x="1415" 
d="M778 -14q-133 0 -242 61q-112 63 -175 185q-64 124 -64 315q0 194 62 315q64 124 171 184q108 60 248 60q160 0 286 -70q125 -69 197 -194q72 -124 72 -295q0 -170 -72 -296q-73 -127 -197 -196q-125 -69 -286 -69zM172 -397v1491h244v-258l-8 -291l20 -291v-651h-256z
M750 205q91 0 164 41q72 41 116 119q43 77 43 182q0 107 -43 183q-44 78 -116 118q-73 41 -164 41q-92 0 -166 -41q-73 -40 -117 -118q-43 -76 -43 -183q0 -105 43 -182q44 -79 117 -119q74 -41 166 -41z" />
    <glyph glyph-name="uni0441" unicode="&#x441;" horiz-adv-x="1189" 
d="M670 -14q-172 0 -306 72q-133 72 -210 200q-76 127 -76 289q0 165 76 290t210 197t306 72q159 0 281 -65q124 -66 186 -189l-197 -115q-49 77 -120 115q-70 37 -152 37q-93 0 -170 -41q-74 -39 -119 -118q-43 -76 -43 -183t43 -183q45 -79 119 -118q77 -41 170 -41
q82 0 152 37q72 38 120 114l197 -114q-63 -123 -186 -190q-121 -66 -281 -66z" />
    <glyph glyph-name="uni0442" unicode="&#x442;" horiz-adv-x="1052" 
d="M399 0v938l60 -61h-445v217h1024v-217h-442l59 61v-938h-256z" />
    <glyph glyph-name="uni0443" unicode="&#x443;" horiz-adv-x="1210" 
d="M270 -412q-80 0 -159 27q-82 28 -134 74l103 188q38 -34 88 -55t100 -21q69 0 113 35q42 33 80 117l63 143l21 31l413 967h246l-512 -1182q-52 -125 -113 -195q-62 -71 -140 -100t-169 -29zM496 -39l-494 1133h266l402 -944z" />
    <glyph glyph-name="uni0444" unicode="&#x444;" horiz-adv-x="1693" 
d="M866 -20h-17h-29h-17q-348 5 -537 150q-190 147 -190 419q0 270 190 414q188 142 543 147h17h27h15q354 0 552 -144t198 -417q0 -275 -198 -422t-554 -147zM858 193q179 0 287 39q113 41 168 119q55 79 55 198q0 117 -55 193q-56 78 -168 115q-114 38 -287 38h-19h-20
q-171 0 -278 -40q-110 -41 -161 -116q-52 -76 -52 -190q0 -118 52 -195t162 -118q112 -42 277 -43h20h19zM725 -397v1917h242v-1917h-242z" />
    <glyph glyph-name="uni0445" unicode="&#x445;" horiz-adv-x="1155" 
d="M10 0l482 627l-5 -138l-458 605h284l322 -430h-109l324 430h276l-462 -605l2 138l479 -627h-289l-338 457l107 -15l-332 -442h-283z" />
    <glyph glyph-name="uni0446" unicode="&#x446;" horiz-adv-x="1427" 
d="M172 0v1094h256v-877h522v877h256v-1094h-1034zM1133 -244v250l59 -6h-242v217h422v-461h-239z" />
    <glyph glyph-name="uni0447" unicode="&#x447;" horiz-adv-x="1271" 
d="M862 432q-71 -34 -165 -60q-87 -24 -183 -24q-207 0 -321 96q-115 97 -115 299v351h256v-334q0 -109 62 -158t173 -49q75 0 148 18q68 17 145 52v-191zM844 0v1094h256v-1094h-256z" />
    <glyph glyph-name="uni0448" unicode="&#x448;" horiz-adv-x="1955" 
d="M907 217l-55 -61v938h256v-938l-61 61h540l-59 -61v938h256v-1094h-1612v1094h256v-938l-59 61h538z" />
    <glyph glyph-name="uni0449" unicode="&#x449;" horiz-adv-x="1955" 
d="M907 217l-55 -61v938h256v-938l-61 61h540l-59 -61v938h256v-1094h-1612v1094h256v-938l-59 61h538zM1702 -225v288l59 -63h-241v217h422v-442h-240z" />
    <glyph glyph-name="uni044A" unicode="&#x44a;" horiz-adv-x="1351" 
d="M872 735q209 0 318 -95q108 -94 108 -265q0 -181 -121 -278t-346 -97h-493v877h-324v217h580v-359h278zM819 188q108 0 164 50q55 49 55 143q0 176 -219 176h-225v-369h225z" />
    <glyph glyph-name="uni044B" unicode="&#x44b;" horiz-adv-x="1703" 
d="M1276 0v1094h256v-1094h-256zM705 733q211 0 320 -94q110 -95 110 -266q0 -179 -122 -278q-121 -99 -345 -97l-496 2v1094h256v-359zM645 186q113 -2 172 47q60 49 60 144q0 94 -59 136q-59 43 -173 44l-217 2v-371z" />
    <glyph glyph-name="uni044C" unicode="&#x44c;" horiz-adv-x="1206" 
d="M721 733q211 0 321 -94q111 -95 111 -266q0 -179 -123 -278q-122 -99 -346 -97l-512 2v1094h256v-359zM662 186q113 -2 172 47t59 144q0 94 -58 136q-59 43 -173 44l-234 2v-371z" />
    <glyph glyph-name="uni044D" unicode="&#x44d;" horiz-adv-x="1189" 
d="M362 461v184h594v-184h-594zM512 1110q174 0 311 -73q135 -72 213 -198t78 -292q0 -165 -78 -292q-79 -130 -213 -201q-135 -72 -311 -72q-148 0 -270 49t-205 141l147 143q66 -63 145 -96t173 -33q111 0 194 46q84 47 133 128q50 83 50 187q0 105 -50 187
q-49 81 -133 127q-83 46 -194 46q-94 0 -173 -33q-80 -33 -145 -98l-147 144q83 92 205 141t270 49z" />
    <glyph glyph-name="uni044E" unicode="&#x44e;" horiz-adv-x="1820" 
d="M172 0v1094h256v-424h326v-232h-326v-438h-256zM1171 -14q-163 0 -291 72q-129 73 -202 200q-74 128 -74 289q0 163 74 291q72 125 202 197q128 71 291 71q166 0 294 -71q130 -72 202 -197q74 -128 74 -291q0 -162 -74 -290q-73 -127 -202 -200q-126 -71 -294 -71z
M1171 203q93 0 163 43q73 45 112 119q41 77 41 182q0 106 -41 183t-112 118t-160 41t-162 -41q-72 -40 -113 -118q-41 -77 -41 -183q0 -105 41 -182q39 -75 113 -119q71 -43 159 -43z" />
    <glyph glyph-name="uni044F" unicode="&#x44f;" horiz-adv-x="1267" 
d="M866 0v373l37 -43h-328q-225 0 -353 95t-128 275q0 193 136 293q137 101 364 101h502v-1094h-230zM80 0l295 418h262l-283 -418h-274zM866 455v491l37 -67h-301q-118 0 -183 -44t-65 -143q0 -184 240 -184h309z" />
    <glyph glyph-name="uni0450" unicode="&#x450;" horiz-adv-x="1304" 
d="M682 -14q-182 0 -318 72q-135 71 -211 200q-75 127 -75 289t73 290q71 124 200 197q128 72 292 72q159 0 285 -70q124 -69 196 -196t72 -299q0 -23 -1 -37q-1 -21 -3 -39h-911v170h776l-101 -53q2 96 -38 166t-112 112q-71 41 -163 41q-94 0 -165 -41q-68 -39 -110 -114
q-40 -71 -40 -171v-40q0 -99 45 -175q44 -75 127 -116q84 -41 188 -41q94 0 166 28q73 28 131 91l137 -158q-73 -85 -185 -132q-110 -46 -255 -46zM590 1243l-357 281h302l276 -281h-221z" />
    <glyph glyph-name="uni0451" unicode="&#x451;" horiz-adv-x="1304" 
d="M682 -14q-182 0 -318 72q-135 71 -211 200q-75 127 -75 289t73 290q71 124 200 197q128 72 292 72q159 0 285 -70q124 -69 196 -196t72 -299q0 -23 -1 -37q-1 -21 -3 -39h-911v170h776l-101 -53q2 96 -38 166t-112 112q-71 41 -163 41q-94 0 -165 -41q-68 -39 -110 -114
q-40 -71 -40 -171v-40q0 -99 45 -175q44 -75 127 -116q84 -41 188 -41q94 0 166 28q73 28 131 91l137 -158q-73 -85 -185 -132q-110 -46 -255 -46zM838 1266q-53 0 -87 33q-36 35 -36 90t36 90q35 34 87 34t87 -34q36 -35 36 -90t-36 -90q-34 -33 -87 -33zM440 1266
q-53 0 -87 33q-36 35 -36 90t36 90q35 34 87 34t87 -34q36 -35 36 -90t-36 -90q-34 -33 -87 -33z" />
    <glyph glyph-name="uni0452" unicode="&#x452;" horiz-adv-x="1392" 
d="M868 -412q-67 0 -136 16q-64 15 -109 48l75 190q56 -43 150 -43q69 0 107 44t38 130v621q0 146 -67 217q-68 72 -193 72q-92 0 -160 -37q-69 -38 -107 -110q-38 -73 -38 -183v-553h-256v1520h246v-721l-45 90q56 103 167 161q108 56 253 56q133 0 235 -51
q101 -51 162 -157q59 -103 59 -271v-647q0 -182 -98 -286q-100 -106 -283 -106zM-29 1219v165h922v-165h-922z" />
    <glyph glyph-name="uni0453" unicode="&#x453;" horiz-adv-x="1026" 
d="M172 0v1094h840v-217h-643l59 57v-934h-256zM424 1239l276 281h301l-356 -281h-221z" />
    <glyph glyph-name="uni0454" unicode="&#x454;" horiz-adv-x="1196" 
d="M829 633v-184h-593v184h593zM680 -16q-175 0 -310 71t-214 200q-78 127 -78 292q0 166 78 292t214 199q137 74 310 74q151 0 271 -49q121 -49 204 -141l-147 -144q-63 66 -144 98q-78 31 -174 31q-108 0 -193 -46t-133 -127q-49 -83 -49 -187q0 -105 49 -188
q48 -81 133 -127t193 -46q94 0 174 33q84 35 144 98l147 -143q-83 -92 -204 -141q-120 -49 -271 -49z" />
    <glyph glyph-name="uni0455" unicode="&#x455;" horiz-adv-x="1114" 
d="M539 -14q-141 0 -264 35t-199 88l98 194q77 -49 176 -78q102 -30 205 -30q123 0 175 32q54 33 54 88q0 46 -36 69q-38 24 -97 36q-51 10 -132 22q-79 12 -145 28q-77 19 -132 51q-60 34 -97 91q-36 55 -36 152q0 106 59 181q61 78 167 119q108 42 255 42q106 0 223 -25
q113 -24 186 -69l-98 -195q-80 47 -157 65q-75 17 -156 17q-115 0 -173 -35q-57 -34 -57 -88q0 -50 37 -74q35 -23 97 -38q60 -15 132 -24q64 -8 144 -28q70 -18 132 -50q59 -31 97 -89q37 -56 37 -149q0 -102 -60 -179q-58 -74 -171 -117q-111 -42 -264 -42z" />
    <glyph glyph-name="uni0456" unicode="&#x456;" horiz-adv-x="602" 
d="M172 0v1094h256v-1094h-256zM301 1274q-71 0 -118 45q-46 45 -46 108q0 67 46 110q47 44 118 44t118 -42q46 -42 46 -105q0 -68 -45 -114t-119 -46z" />
    <glyph glyph-name="uni0457" unicode="&#x457;" horiz-adv-x="591" 
d="M168 0v1094h256v-1094h-256zM455 1268q-50 0 -85 35q-34 34 -34 86t34 87t85 35q49 0 83 -34q33 -33 33 -88q0 -54 -33 -87q-34 -34 -83 -34zM141 1268q-50 0 -85 35q-33 33 -33 86t33 87q34 35 85 35q49 0 83 -34t34 -88q0 -53 -34 -87t-83 -34z" />
    <glyph glyph-name="uni0458" unicode="&#x458;" horiz-adv-x="604" 
d="M51 -412q-67 0 -136 16q-65 15 -110 48l74 190q59 -43 150 -43q69 0 108 44q39 43 39 130v1121h256v-1114q0 -181 -99 -286q-100 -106 -282 -106zM303 1274q-71 0 -118 45q-46 45 -46 108q0 67 46 110q47 44 118 44t118 -42q46 -42 46 -105q0 -68 -45 -114t-119 -46z" />
    <glyph glyph-name="uni0459" unicode="&#x459;" horiz-adv-x="1941" 
d="M12 2l13 215q6 -1 14.5 -2.5t11.5 -1.5q16 -2 23 -2q64 0 98 39q34 38 52 105q17 63 25 150q5 55 11 167l19 422h884v-1094h-256v946l60 -69h-521l56 71l-15 -289q-6 -154 -23 -269q-19 -129 -53 -216q-36 -92 -99 -143t-158 -51q-31 0 -67 6q-41 7 -75 16zM1456 733
q212 0 322 -94t110 -266q0 -179 -123 -278q-122 -99 -346 -97l-512 2v1094h256v-359zM1397 186q113 -2 172 47t59 144q0 94 -58 136q-59 43 -173 44l-234 2v-371z" />
    <glyph glyph-name="uni045A" unicode="&#x45a;" horiz-adv-x="1970" 
d="M1505 686q203 0 310 -85q108 -85 108 -245q0 -168 -121 -262t-334 -94h-510v469h-530v-469h-256v1094h256v-408h530v408h256v-408h291zM1452 184q104 0 156 42q53 42 53 116q0 73 -53 111q-50 36 -156 36h-238v-305h238z" />
    <glyph glyph-name="uni045B" unicode="&#x45b;" horiz-adv-x="1390" 
d="M-82 1229v141h971v-141h-971zM793 1106q133 0 235 -51q101 -51 162 -157q59 -103 59 -271v-627h-256v594q0 146 -67 217q-68 72 -193 72q-92 0 -160 -37q-69 -38 -107 -110q-38 -73 -38 -183v-553h-256v1520h256v-721l-55 90q56 103 167 161q108 56 253 56z" />
    <glyph glyph-name="uni045C" unicode="&#x45c;" horiz-adv-x="1265" 
d="M956 0l-395 524l209 129l487 -653h-301zM172 0v1094h256v-1094h-256zM352 438v213h371v-213h-371zM795 516l-240 29l401 549h275zM479 1243l277 281h301l-357 -281h-221z" />
    <glyph glyph-name="uni045D" unicode="&#x45d;" horiz-adv-x="1437" 
d="M172 0v1094h256v-721l604 721h234v-1094h-256v721l-602 -721h-236zM653 1243l-356 281h301l276 -281h-221z" />
    <glyph glyph-name="uni045E" unicode="&#x45e;" horiz-adv-x="1210" 
d="M270 -412q-80 0 -159 27q-82 28 -134 74l103 188q38 -34 88 -55t100 -21q69 0 113 35q42 33 80 117l63 143l21 31l413 967h246l-512 -1182q-52 -125 -113 -195q-62 -71 -140 -100t-169 -29zM496 -39l-494 1133h266l402 -944zM580 1223q-164 0 -252 76t-90 225h170
q1 -72 46 -117q43 -43 124 -43q77 0 123 43q48 44 49 117h174q-2 -148 -91 -225q-88 -76 -253 -76z" />
    <glyph glyph-name="uni045F" unicode="&#x45f;" horiz-adv-x="1337" 
d="M1163 1094v-1094h-372v-244h-242v244h-377v1094h256v-877h481v877h254z" />
    <glyph glyph-name="uni0462" unicode="&#x462;" horiz-adv-x="1679" 
d="M412 0v1520h262v-582h407q259 0 394 -117t135 -340q0 -231 -149 -356t-423 -125h-626zM674 205h354q155 0 233 68t78 200q0 260 -311 260h-354v-528zM37 1122v187h1069v-187h-1069z" />
    <glyph glyph-name="uni0463" unicode="&#x463;" horiz-adv-x="1290" 
d="M-2 977v176h911v-176h-911zM805 733q211 0 321 -94q111 -95 111 -266q0 -179 -123 -278q-122 -99 -346 -97l-512 2v1520h256v-785zM745 186q114 -2 173 47t59 144q0 94 -58 136q-59 42 -174 44l-233 2v-371z" />
    <glyph glyph-name="uni046A" unicode="&#x46a;" horiz-adv-x="1886" 
d="M31 0l129 311q62 165 138 266q75 100 169 148q93 48 199 49h2l-459 490v170h1468v-164l-463 -496h3q108 -1 204 -50q94 -48 171 -149q77 -102 137 -264l126 -311h-274l-96 250q-62 181 -150 257q-89 77 -200 77h-70v-584h-246v584h-63q-118 0 -206 -76q-91 -78 -151 -258
l-94 -250h-274zM504 1235l440 -461h2l436 461h-878z" />
    <glyph glyph-name="uni046B" unicode="&#x46b;" horiz-adv-x="1505" 
d="M23 0l92 229q51 135 111 216t136 117q77 36 170 36h441q97 0 174 -36q76 -36 136 -117q63 -85 108 -216l92 -229h-250l-66 174q-41 139 -100 195q-60 57 -152 57h-57v-426h-219v426h-49q-90 0 -152 -57q-61 -56 -102 -195l-64 -174h-249zM748 596l323 328h-643zM545 547
l-383 391v156h1173v-156l-385 -391h-405z" />
    <glyph glyph-name="uni0472" unicode="&#x472;" horiz-adv-x="1730" 
d="M864 1454q167 0 308 -54q138 -53 245 -154q105 -99 162 -234t57 -295t-57 -295q-58 -137 -162 -235q-106 -100 -245 -153q-141 -54 -308 -54t-307 55q-142 56 -246 154q-103 97 -161 235q-58 137 -58 293t58 293t161 234q106 100 246 155t307 55zM864 1221
q-94 0 -178 -30q-81 -29 -149 -83q-65 -51 -109 -128q-42 -72 -59 -165h989q-15 91 -58 165q-45 78 -108 128q-67 53 -149 83q-83 30 -179 30zM864 213q95 0 179 29q82 28 149 83q63 52 108 129q43 74 58 164h-987q15 -92 57 -164q44 -76 109 -129q68 -55 149 -83
q85 -29 178 -29z" />
    <glyph glyph-name="uni0473" unicode="&#x473;" horiz-adv-x="1341" 
d="M670 1106q173 0 307 -71t210 -197q77 -128 77 -291q0 -162 -77 -290t-210 -200q-132 -71 -305 -71q-174 0 -306 71q-135 73 -211 200q-77 128 -77 290q0 163 77 291q75 125 211 197q134 71 304 71zM670 911q-91 0 -160 -33q-72 -34 -118 -97q-45 -61 -62 -148h682
q-15 85 -63 148q-47 62 -119 97q-67 33 -160 33zM672 182q89 0 158 34q73 36 119 96q48 63 63 149h-682q17 -86 63 -149q45 -60 119 -96q71 -34 160 -34z" />
    <glyph glyph-name="uni0474" unicode="&#x474;" horiz-adv-x="1589" 
d="M608 0l-585 1434h288l430 -1055l275 749q78 210 204 283q126 74 341 21l-27 -254q-122 28 -189 -19q-68 -48 -120 -192l-353 -967h-264z" />
    <glyph glyph-name="uni0475" unicode="&#x475;" horiz-adv-x="1271" 
d="M481 0l-477 1094h281l409 -963h-157l280 741q40 109 98 169q57 59 143 71q85 12 202 -18l-27 -248q-60 16 -99 10t-64 -43q-27 -39 -56 -117l-277 -696h-256z" />
    <glyph glyph-name="uni048A" unicode="&#x48a;" horiz-adv-x="1753" 
d="M203 0v1434h262v-1018l770 1018h248v-1434h-262v1016l-770 -1016h-248zM840 1530q-185 0 -278 78q-94 78 -95 219h186q1 -76 50 -117t137 -41t138 41q51 41 52 117h184q-2 -141 -96 -219t-278 -78zM1327 -305l82 371l98 -66h-286v225h471l-154 -530h-211z" />
    <glyph glyph-name="uni048B" unicode="&#x48b;" horiz-adv-x="1486" 
d="M172 0v1094h256v-721l604 721h234v-1094h-256v721l-602 -721h-236zM702 1229q-148 0 -248 80t-106 215h168q5 -73 57 -113q53 -41 129 -41t131 41q54 41 56 113h168q-6 -135 -106 -215t-249 -80zM1102 -225l67 288l156 -63h-315v217h426l-129 -442h-205z" />
    <glyph glyph-name="uni048C" unicode="&#x48c;" horiz-adv-x="1525" 
d="M256 0v1520h262v-582h410q258 0 392 -117t134 -340q0 -232 -148 -356q-149 -125 -423 -125h-627zM518 205h354q155 0 233 68q79 69 79 200q0 260 -312 260h-354v-528zM57 1122v187h891v-187h-891z" />
    <glyph glyph-name="uni048D" unicode="&#x48d;" horiz-adv-x="1273" 
d="M242 0v1094h256v-392l293 -2q209 -1 321 -86q111 -84 111 -254q0 -178 -123 -271q-122 -93 -348 -91zM731 182q111 0 172 44q60 43 60 136q0 94 -59 127q-59 34 -173 35l-233 2v-342zM39 807v174h856v-174h-856z" />
    <glyph glyph-name="uni048E" unicode="&#x48e;" horiz-adv-x="1503" 
d="M203 0v1434h590q187 0 324 -63t210 -178q74 -116 74 -280q0 -162 -74 -280q-73 -116 -210 -179t-324 -63h-390l66 68v-459h-266zM469 545l-66 71h377q171 0 262 77t91 220t-91 220q-88 75 -262 75h-377l66 74v-737zM1358 266l-129 -104l-535 698l127 105z" />
    <glyph glyph-name="uni048F" unicode="&#x48f;" horiz-adv-x="1437" 
d="M809 -14q-148 0 -252 64q-103 63 -161 191q-56 124 -56 304q0 183 54 307t159 189q106 65 256 65q148 0 268 -70q119 -69 191 -194q71 -123 71 -297q0 -172 -71 -295q-73 -126 -191 -195q-119 -69 -268 -69zM172 -397v1491h246v-258l-8 -291l20 -291v-651h-258zM756 203
q93 0 169 41q73 39 117 117q43 76 43 184q0 107 -43 183q-45 78 -117 119q-75 42 -169 42t-169 -42q-74 -41 -118 -119q-43 -76 -43 -183q0 -108 43 -184q44 -77 118 -117q76 -41 169 -41zM1307 -31l-125 -98l-428 532l131 103z" />
    <glyph glyph-name="uni0490" unicode="&#x490;" horiz-adv-x="1204" 
d="M203 0v1434h727v295h246v-521h-711v-1208h-262z" />
    <glyph glyph-name="uni0491" unicode="&#x491;" horiz-adv-x="991" 
d="M172 0v1094h563v223h240v-440h-547v-877h-256z" />
    <glyph glyph-name="uni0492" unicode="&#x492;" horiz-adv-x="1288" 
d="M51 567v185h1057v-185h-1057zM266 0v1434h973l-2 -226h-772l61 64l2 -1272h-262z" />
    <glyph glyph-name="uni0493" unicode="&#x493;" horiz-adv-x="1089" 
d="M78 381v168h831v-168h-831zM213 0v1094h840v-217h-643l59 57v-934h-256z" />
    <glyph glyph-name="uni0494" unicode="&#x494;" horiz-adv-x="1443" 
d="M203 0v1434h1014v-226h-814l62 66v-1274h-262zM653 -289l45 213q110 -22 201 14q91 37 144 120q55 87 55 206q0 95 -38 168q-37 70 -102 114q-62 41 -147 52q-82 10 -178 -14q-95 -24 -189 -84l-8 223q144 65 281 82q136 17 252 -10q115 -27 205 -95q87 -66 137 -173
q49 -104 49 -244q0 -149 -55 -268q-54 -118 -153 -198q-98 -80 -224 -108q-127 -28 -275 2z" />
    <glyph glyph-name="uni0495" unicode="&#x495;" horiz-adv-x="1255" 
d="M172 0v1094h821v-217h-624l59 61v-938h-256zM510 -393l53 215q123 -21 211 9t134 100t46 171q0 97 -36 156q-37 61 -100 91t-138 33q-76 3 -154 -21q-83 -25 -147 -66l-6 221q134 58 255 73q125 15 231 -10q109 -26 188 -87q78 -61 124 -158q46 -98 46 -221
q0 -132 -53 -241t-146 -177q-96 -70 -223 -95q-130 -26 -285 7z" />
    <glyph glyph-name="uni0496" unicode="&#x496;" horiz-adv-x="2228" 
d="M1815 0l-418 698l225 133l500 -831h-307zM1130 604v230h433v-230h-433zM1636 686l-247 33l419 715h283zM340 0h-307l499 831l228 -133zM1208 0h-260v1434h260v-1434zM1026 604h-434v230h434v-230zM520 686l-457 748h283l418 -715zM1954 -305v371l63 -66h-202v225h385
v-530h-246z" />
    <glyph glyph-name="uni0497" unicode="&#x497;" horiz-adv-x="1861" 
d="M1477 0l-320 524l209 129l416 -653h-305zM950 438v213h367v-213h-367zM1391 516l-242 29l332 549h272zM322 0h-304l414 653l209 -129zM1026 0h-254v1094h254v-1094zM848 438h-365v213h365v-213zM408 516l-363 578h272l330 -549zM1616 -227v288l57 -61h-194v213h368v-440
h-231z" />
    <glyph glyph-name="uni0498" unicode="&#x498;" horiz-adv-x="1329" 
d="M59 141l86 195q89 -61 202 -97q109 -34 218 -36q114 -2 198 24q89 27 142 80t53 133q0 98 -78 145q-80 48 -214 48h-334v209h313q123 0 188 49q66 49 66 133q0 69 -44 115q-43 44 -119 67q-78 23 -168 22t-193 -29q-97 -26 -191 -81l-84 215q136 73 284 101
q147 28 288 16q137 -12 251 -64q111 -51 179 -134q67 -82 67 -195q0 -101 -54 -181q-53 -78 -148 -122q-93 -43 -219 -43l10 65q142 0 247 -48q104 -48 163 -132q59 -85 59 -195q0 -103 -53 -185q-51 -79 -146 -135q-92 -54 -211 -80q-117 -25 -250 -19q-131 6 -261 45
q-134 40 -247 114zM750 55v-360h-248v360h248z" />
    <glyph glyph-name="uni0499" unicode="&#x499;" horiz-adv-x="1132" 
d="M518 -18q152 0 269 43q120 44 186 119q67 76 67 178q0 126 -104 197q-106 73 -287 73l-8 -55q108 0 189 34q84 35 132 98t48 140q0 94 -68 164q-67 69 -184 106q-116 37 -266 31q-95 -1 -198 -28q-99 -26 -204 -72l66 -189q90 39 177 60q83 20 169 20q78 0 133 -15
t85 -45t30 -69q0 -37 -25 -67q-23 -28 -71 -43q-46 -15 -111 -15h-191v-172h211q105 0 161 -34t56 -99q0 -46 -34 -80t-95 -52q-58 -17 -147 -17q-100 0 -201 24q-97 23 -180 70l-72 -191q98 -55 220 -85q117 -29 247 -29zM649 51h-241v-276h241v276z" />
    <glyph glyph-name="uni049A" unicode="&#x49a;" horiz-adv-x="1562" 
d="M1149 0l-485 698l215 133l571 -831h-301zM201 0v1434h262v-1434h-262zM383 604v230h483v-230h-483zM903 686l-244 33l490 715h283zM1288 -305v371l64 -66h-203v225h385v-530h-246z" />
    <glyph glyph-name="uni049B" unicode="&#x49b;" horiz-adv-x="1265" 
d="M956 0l-395 524l209 129l487 -653h-301zM172 0v1094h256v-1094h-256zM352 438v213h371v-213h-371zM795 516l-240 29l401 549h275zM1094 -227v288l57 -61h-195v213h369v-440h-231z" />
    <glyph glyph-name="uni049C" unicode="&#x49c;" horiz-adv-x="1548" 
d="M1206 0l-432 698l217 133l527 -831h-312zM201 0v1434h262v-1434h-262zM383 604v230h551v-230h-551zM580 340v760h176v-760h-176zM1014 686l-246 33l432 715h283z" />
    <glyph glyph-name="uni049D" unicode="&#x49d;" horiz-adv-x="1298" 
d="M983 0l-328 524l205 127l422 -651h-299zM166 0v1094h256v-1094h-256zM348 438v213h445v-213h-445zM883 518l-234 29l338 547h266zM504 256v582h162v-582h-162z" />
    <glyph glyph-name="uni049E" unicode="&#x49e;" horiz-adv-x="1525" 
d="M63 1098v168h758v-168h-758zM1194 0l-485 698l217 133l571 -831h-303zM246 0v1434h262v-1434h-262zM430 604v230h481v-230h-481zM948 686l-243 33l489 715h283z" />
    <glyph glyph-name="uni049F" unicode="&#x49f;" horiz-adv-x="1263" 
d="M-10 1219v170l735 -5v-165h-735zM952 0l-393 524l209 129l487 -653h-303zM172 0v1520h256v-1520h-256zM352 438v213h369v-213h-369zM791 516l-240 29l405 549h273z" />
    <glyph glyph-name="uni04A0" unicode="&#x4a0;" horiz-adv-x="1728" 
d="M29 1208v226h682v-226h-682zM1397 0l-486 698l217 133l572 -831h-303zM449 0v1434h262v-1434h-262zM633 604v230h481v-230h-481zM1151 686l-244 33l490 715h282z" />
    </font>
</defs>
</svg>
